<?xml version="1.0" encoding="UTF-8" ?>
<!DOCTYPE svg PUBLIC "-//W3C//DTD SVG 1.1//EN" "http://www.w3.org/Graphics/SVG/1.1/DTD/svg11.dtd">
<svg width="722pt" height="595pt" viewBox="0 0 722 595" version="1.1" xmlns="http://www.w3.org/2000/svg">
<g id="#ecececff">
<path fill="#ececec" opacity="1.00" d=" M 359.74 48.08 C 364.49 45.71 369.48 43.00 374.96 43.26 C 378.97 43.15 383.01 43.43 386.89 44.48 C 415.46 51.32 444.02 58.19 472.60 65.01 C 478.94 66.25 485.21 67.86 491.41 69.72 C 523.30 77.35 555.21 84.90 587.08 92.62 C 595.16 94.73 603.44 96.13 611.36 98.84 C 611.52 102.49 610.94 106.12 609.87 109.62 C 603.60 106.25 597.02 103.43 590.02 101.98 C 570.11 97.32 550.25 92.49 530.34 87.85 C 499.80 79.98 468.90 73.51 438.42 65.46 C 425.64 61.33 412.37 59.01 399.40 55.60 C 392.49 53.96 385.65 51.91 378.57 51.21 C 372.34 49.83 365.95 49.48 359.74 48.08 Z" />
<path fill="#ececec" opacity="1.00" d=" M 329.02 135.07 C 332.21 134.40 335.39 133.64 338.55 132.82 C 338.77 135.65 339.29 138.45 339.79 141.24 C 341.04 150.44 345.32 158.92 350.45 166.54 C 354.69 172.89 360.62 178.25 367.75 181.11 C 369.87 182.06 372.18 182.75 374.02 184.23 C 374.64 188.91 374.00 193.64 373.29 198.28 C 371.72 207.53 368.37 216.88 361.72 223.71 C 358.87 226.61 355.05 228.37 352.40 231.46 C 351.70 234.05 352.87 237.94 356.00 238.08 C 363.14 238.56 370.20 236.65 377.02 234.76 C 377.68 272.34 376.99 309.95 377.35 347.54 C 374.72 347.83 372.09 348.20 369.49 348.73 C 367.32 352.07 366.63 356.05 365.81 359.88 C 369.24 362.61 373.40 364.27 377.79 364.53 C 377.43 370.70 377.78 376.89 378.05 383.06 C 378.71 393.49 378.40 403.96 379.53 414.36 C 373.20 412.23 366.52 413.73 360.08 414.44 C 347.91 416.07 335.62 416.58 323.45 418.08 C 319.13 417.50 315.03 419.62 310.71 419.16 C 305.92 418.72 301.31 420.53 296.53 420.41 C 291.58 420.40 286.68 421.17 281.77 421.70 C 272.85 422.41 265.37 427.76 257.49 431.45 C 242.24 438.58 227.11 445.96 211.66 452.65 C 206.08 455.33 199.94 457.08 195.10 461.09 C 189.42 465.82 181.92 467.54 176.17 472.17 C 174.58 473.38 173.81 475.29 173.14 477.11 C 171.58 465.80 171.20 454.39 171.02 442.99 C 169.44 413.35 170.27 383.66 170.06 354.00 C 170.01 293.94 170.13 233.87 169.97 173.81 L 170.15 172.98 C 186.18 168.98 202.31 165.38 218.35 161.43 C 218.71 161.33 219.41 161.15 219.76 161.06 L 220.60 160.89 C 220.64 168.42 221.56 175.99 223.73 183.22 C 224.64 185.98 226.20 189.06 229.20 189.96 C 231.51 190.20 233.80 189.64 236.04 189.17 C 243.57 187.35 251.08 185.43 258.61 183.66 C 263.64 182.10 268.43 186.38 273.43 184.52 C 279.47 183.30 283.25 177.61 289.23 176.30 C 297.28 174.30 305.37 172.47 313.40 170.44 C 316.62 169.78 319.19 167.61 321.02 164.96 C 323.00 162.48 324.93 159.80 325.53 156.61 C 326.97 149.48 327.97 142.27 329.02 135.07 M 346.40 185.44 C 340.83 186.82 335.13 187.85 329.71 189.74 C 324.20 192.07 323.54 198.81 323.63 204.02 C 323.72 210.68 323.46 217.35 323.72 224.01 C 323.88 226.27 324.30 229.64 327.11 230.00 C 330.86 230.27 334.47 228.93 338.08 228.12 C 341.98 227.05 346.05 226.43 349.73 224.71 C 353.00 223.15 353.39 219.14 353.67 215.96 C 354.12 208.65 354.54 201.32 354.27 193.99 C 354.03 191.29 353.92 188.20 351.93 186.14 C 350.47 184.64 348.21 185.16 346.40 185.44 M 345.36 245.38 C 339.91 246.93 334.18 247.64 328.99 249.97 C 324.25 252.38 323.56 258.24 323.40 262.99 C 323.43 269.92 323.20 276.86 323.48 283.78 C 323.69 286.38 324.70 290.24 328.06 289.89 C 333.65 289.62 338.94 287.54 344.36 286.33 C 347.57 285.38 351.84 284.57 352.82 280.80 C 354.28 275.00 353.90 268.92 354.29 262.99 C 354.21 257.68 355.04 252.03 352.94 247.01 C 351.40 244.25 347.92 244.67 345.36 245.38 M 347.41 303.45 C 341.57 304.81 335.64 306.03 329.98 308.02 C 325.55 309.67 323.76 314.60 323.75 319.00 C 323.55 326.66 323.59 334.34 323.68 342.01 C 323.78 344.49 324.28 348.05 327.29 348.53 C 330.81 348.68 334.20 347.38 337.59 346.59 C 341.70 345.37 346.01 344.71 349.89 342.85 C 352.84 341.38 353.28 337.75 353.61 334.83 C 354.18 327.23 354.52 319.60 354.28 311.99 C 354.04 309.29 353.92 306.18 351.86 304.16 C 350.68 302.96 348.89 303.23 347.41 303.45 Z" />
</g>
<g id="#d5d5d5ff">
<path fill="#d5d5d5" opacity="1.00" d=" M 351.68 53.65 C 354.13 51.43 357.77 50.84 359.74 48.08 C 365.95 49.48 372.34 49.83 378.57 51.21 C 380.60 52.35 382.65 53.54 384.95 54.06 C 401.71 57.84 418.36 62.10 435.06 66.10 C 436.25 66.52 437.42 66.17 438.42 65.46 C 468.90 73.51 499.80 79.98 530.34 87.85 C 526.87 88.44 523.54 89.57 520.22 90.67 C 520.63 91.83 521.06 92.99 521.49 94.15 C 521.01 94.33 520.55 94.52 520.09 94.70 C 519.46 93.99 518.84 93.27 518.23 92.56 C 515.25 93.67 512.30 95.39 509.02 95.10 C 504.57 94.47 501.61 98.58 498.05 100.50 C 499.18 100.65 500.31 100.81 501.45 100.97 C 498.38 103.44 494.73 100.09 491.61 102.17 C 487.84 104.26 485.16 107.79 481.74 110.35 C 480.79 108.68 479.87 106.99 478.98 105.29 C 477.74 105.53 476.50 105.78 475.28 106.03 C 476.45 106.83 477.63 107.63 478.82 108.43 C 478.37 108.93 477.93 109.43 477.50 109.93 C 474.57 109.68 472.12 111.29 469.62 112.52 C 467.81 113.55 466.41 111.43 465.06 110.59 C 461.91 111.43 460.53 114.59 458.01 116.30 C 456.04 116.62 454.19 115.50 452.36 114.96 C 446.41 112.71 440.13 111.61 434.00 110.01 C 419.54 106.38 405.04 102.96 390.60 99.30 C 388.63 98.93 386.59 98.13 384.60 98.62 C 381.55 100.96 383.50 106.31 387.21 106.72 C 404.29 111.13 421.47 115.21 438.57 119.57 C 438.54 120.54 438.51 121.50 438.49 122.47 C 437.14 122.98 435.84 123.75 434.38 123.88 C 431.59 123.57 428.98 121.93 426.11 122.36 C 422.05 122.97 418.93 126.06 414.92 126.85 C 415.57 125.54 416.68 124.58 417.82 123.70 C 417.16 123.20 416.49 122.71 415.85 122.21 C 413.56 123.43 412.45 125.46 413.34 127.99 C 412.57 128.70 411.79 129.40 411.02 130.10 C 410.83 128.70 410.65 127.29 410.48 125.88 C 408.16 125.87 405.84 125.69 403.55 125.38 C 403.50 126.63 403.44 127.89 403.39 129.16 C 401.44 128.27 399.67 127.00 399.89 124.61 C 398.74 124.61 397.59 124.62 396.45 124.63 C 396.87 125.65 397.31 126.66 397.75 127.68 C 394.64 126.78 391.07 126.04 388.45 128.51 C 388.71 129.32 388.96 130.14 389.23 130.96 C 388.33 131.33 387.44 131.68 386.54 132.03 C 385.81 132.03 384.35 132.04 383.62 132.04 C 383.19 132.04 382.34 132.05 381.91 132.06 C 381.51 134.28 381.51 137.03 379.31 138.34 C 377.62 139.85 375.41 138.53 373.53 138.22 C 369.84 136.92 365.72 138.76 362.20 136.75 C 361.54 138.43 360.57 139.97 359.24 141.21 C 358.78 140.34 358.33 139.48 357.88 138.62 C 357.03 139.12 356.17 139.61 355.32 140.11 C 354.70 139.32 354.09 138.53 353.48 137.74 C 352.32 138.06 351.16 138.38 350.00 138.71 C 348.95 137.89 347.90 137.07 346.86 136.24 C 346.12 138.90 345.02 141.43 343.62 143.79 C 343.08 142.53 342.55 141.26 342.03 139.99 C 341.54 139.81 340.54 139.46 340.04 139.29 C 339.98 139.78 339.85 140.75 339.79 141.24 C 339.29 138.45 338.77 135.65 338.55 132.82 C 337.95 119.63 337.67 106.40 338.31 93.21 C 338.48 90.77 338.69 88.34 338.95 85.91 C 339.51 79.99 340.53 74.11 342.02 68.34 C 343.53 62.59 346.51 56.90 351.68 53.65 Z" />
</g>
<g id="#acacacc6">
<path fill="#acacac" opacity="0.78" d=" M 378.57 51.21 C 385.65 51.91 392.49 53.96 399.40 55.60 C 412.37 59.01 425.64 61.33 438.42 65.46 C 437.42 66.17 436.25 66.52 435.06 66.10 C 418.36 62.10 401.71 57.84 384.95 54.06 C 382.65 53.54 380.60 52.35 378.57 51.21 Z" />
</g>
<g id="#ef897bf9">
<path fill="#ef897b" opacity="0.98" d=" M 322.57 89.49 C 328.02 88.28 333.40 86.66 338.95 85.91 C 338.69 88.34 338.48 90.77 338.31 93.21 C 338.25 91.71 338.18 90.21 338.08 88.71 C 336.23 88.98 334.39 89.26 332.56 89.62 C 287.71 100.07 242.85 110.50 197.99 120.95 C 186.70 123.70 175.31 126.01 164.08 129.00 C 162.00 129.06 159.91 128.99 157.83 128.98 C 159.78 127.46 162.18 126.80 164.55 126.28 C 217.22 114.02 269.89 101.75 322.57 89.49 Z" />
</g>
<g id="#d1d2d1ff">
<path fill="#d1d2d1" opacity="1.00" d=" M 520.22 90.67 C 523.54 89.57 526.87 88.44 530.34 87.85 C 550.25 92.49 570.11 97.32 590.02 101.98 C 597.02 103.43 603.60 106.25 609.87 109.62 C 610.94 106.12 611.52 102.49 611.36 98.84 C 613.73 99.98 616.20 100.99 618.30 102.62 C 619.48 104.30 620.73 105.99 621.47 107.94 C 620.70 110.57 618.84 112.71 617.96 115.29 C 617.89 116.89 618.32 118.46 618.58 120.02 C 616.44 118.01 614.28 116.02 612.14 114.02 C 611.94 115.11 611.75 116.21 611.57 117.31 C 610.48 117.01 609.39 116.71 608.30 116.42 C 606.44 117.61 604.36 118.49 602.12 118.12 C 602.01 119.01 601.91 119.91 601.82 120.81 C 599.77 120.92 597.99 121.88 596.89 123.63 C 596.08 122.50 595.28 121.36 594.49 120.23 C 594.30 122.82 593.69 125.36 592.46 127.66 C 589.18 126.33 585.52 126.03 582.58 128.33 C 583.28 129.53 583.96 130.73 584.67 131.92 C 582.96 132.31 581.24 132.68 579.52 133.00 C 579.38 133.76 579.24 134.51 579.13 135.27 C 575.90 134.91 572.64 134.79 569.40 135.11 C 570.20 136.05 571.01 136.97 571.83 137.91 C 570.04 137.42 568.27 136.93 566.50 136.44 C 566.38 137.47 566.26 138.51 566.16 139.54 C 561.99 139.01 557.79 138.52 553.60 139.09 C 537.41 135.82 521.50 131.25 505.39 127.62 C 504.06 127.35 502.34 127.20 501.59 128.61 C 500.18 131.47 501.79 135.33 505.07 135.87 C 516.67 139.09 528.48 141.55 540.08 144.78 C 541.78 145.78 543.42 146.88 545.08 147.96 C 544.30 149.17 543.53 150.38 542.76 151.59 C 540.22 150.87 537.68 150.10 535.17 149.29 C 535.66 150.77 536.17 152.24 536.65 153.72 C 535.70 153.35 534.76 152.98 533.82 152.62 C 533.68 154.01 533.53 155.41 533.40 156.81 C 532.10 155.93 530.91 154.78 529.41 154.27 C 527.40 154.30 525.38 154.75 523.41 154.14 C 521.37 158.72 516.15 159.31 512.47 161.97 C 511.91 161.57 511.36 161.18 510.82 160.79 C 509.75 161.74 508.78 162.84 507.50 163.50 C 505.63 163.60 503.89 162.76 502.17 162.17 C 499.37 161.08 496.52 160.11 493.60 159.40 C 462.42 151.71 431.34 143.61 400.19 135.82 C 395.58 134.76 391.04 133.47 386.54 132.03 C 387.44 131.68 388.33 131.33 389.23 130.96 C 388.96 130.14 388.71 129.32 388.45 128.51 C 391.07 126.04 394.64 126.78 397.75 127.68 C 397.31 126.66 396.87 125.65 396.45 124.63 C 397.59 124.62 398.74 124.61 399.89 124.61 C 399.67 127.00 401.44 128.27 403.39 129.16 C 403.44 127.89 403.50 126.63 403.55 125.38 C 405.84 125.69 408.16 125.87 410.48 125.88 C 410.65 127.29 410.83 128.70 411.02 130.10 C 411.79 129.40 412.57 128.70 413.34 127.99 C 412.45 125.46 413.56 123.43 415.85 122.21 C 416.49 122.71 417.16 123.20 417.82 123.70 C 416.68 124.58 415.57 125.54 414.92 126.85 C 418.93 126.06 422.05 122.97 426.11 122.36 C 428.98 121.93 431.59 123.57 434.38 123.88 C 435.84 123.75 437.14 122.98 438.49 122.47 C 438.51 121.50 438.54 120.54 438.57 119.57 C 443.34 120.76 448.13 122.11 453.09 122.12 C 453.04 119.71 452.84 117.31 452.36 114.96 C 454.19 115.50 456.04 116.62 458.01 116.30 C 460.53 114.59 461.91 111.43 465.06 110.59 C 466.41 111.43 467.81 113.55 469.62 112.52 C 472.12 111.29 474.57 109.68 477.50 109.93 C 477.93 109.43 478.37 108.93 478.82 108.43 C 477.63 107.63 476.45 106.83 475.28 106.03 C 476.50 105.78 477.74 105.53 478.98 105.29 C 479.87 106.99 480.79 108.68 481.74 110.35 C 485.16 107.79 487.84 104.26 491.61 102.17 C 494.73 100.09 498.38 103.44 501.45 100.97 C 500.31 100.81 499.18 100.65 498.05 100.50 C 501.61 98.58 504.57 94.47 509.02 95.10 C 512.30 95.39 515.25 93.67 518.23 92.56 C 518.84 93.27 519.46 93.99 520.09 94.70 C 520.55 94.52 521.01 94.33 521.49 94.15 C 521.06 92.99 520.63 91.83 520.22 90.67 M 463.37 123.60 C 464.63 126.74 468.63 126.71 471.39 127.64 C 477.89 128.97 484.19 131.30 490.82 131.94 C 491.50 129.97 492.50 127.70 491.26 125.72 C 489.99 123.28 486.93 123.11 484.60 122.39 C 478.36 121.09 472.28 119.03 465.96 118.14 C 462.77 117.28 462.60 121.57 463.37 123.60 Z" />
</g>
<g id="#ed4e32ff">
<path fill="#ed4e32" opacity="1.00" d=" M 332.56 89.62 C 334.39 89.26 336.23 88.98 338.08 88.71 C 338.18 90.21 338.25 91.71 338.31 93.21 C 337.67 106.40 337.95 119.63 338.55 132.82 C 335.39 133.64 332.21 134.40 329.02 135.07 C 329.50 130.82 329.63 126.30 327.57 122.41 C 325.75 121.33 323.78 120.53 321.87 119.65 C 319.31 118.26 316.88 116.64 314.23 115.44 C 311.43 114.49 308.48 114.99 305.70 115.68 C 289.82 119.54 273.89 123.19 257.99 126.96 C 251.70 128.35 245.50 130.28 239.05 130.83 C 233.85 130.70 230.74 135.23 226.61 137.56 C 223.76 139.27 220.50 141.13 219.67 144.63 C 218.26 150.11 218.98 155.85 218.35 161.43 C 202.31 165.38 186.18 168.98 170.15 172.98 L 169.97 173.81 C 169.61 175.11 169.21 176.40 168.91 177.71 C 167.53 182.69 168.01 187.90 168.01 193.00 C 168.03 216.58 168.11 240.18 166.63 263.72 C 166.24 268.79 167.18 273.98 165.78 278.95 C 164.35 283.76 166.11 288.92 164.53 293.69 C 162.43 295.65 159.36 293.21 156.90 293.97 C 155.29 295.50 154.96 297.92 154.16 299.92 C 153.33 300.04 152.51 300.15 151.68 300.27 C 151.60 250.85 151.71 201.43 151.62 152.01 C 151.68 146.68 152.75 141.38 152.14 136.05 C 156.48 134.36 160.27 131.62 164.08 129.00 C 175.31 126.01 186.70 123.70 197.99 120.95 C 242.85 110.50 287.71 100.07 332.56 89.62 Z" />
</g>
<g id="#64b8d9ff">
<path fill="#64b8d9" opacity="1.00" d=" M 384.60 98.62 C 386.59 98.13 388.63 98.93 390.60 99.30 C 405.04 102.96 419.54 106.38 434.00 110.01 C 440.13 111.61 446.41 112.71 452.36 114.96 C 452.84 117.31 453.04 119.71 453.09 122.12 C 448.13 122.11 443.34 120.76 438.57 119.57 C 421.47 115.21 404.29 111.13 387.21 106.72 C 383.50 106.31 381.55 100.96 384.60 98.62 Z" />
</g>
<g id="#cececeff">
<path fill="#cecece" opacity="1.00" d=" M 618.30 102.62 C 621.65 104.54 624.51 107.17 627.22 109.89 C 627.86 111.52 628.54 113.18 628.75 114.94 C 627.67 118.30 624.64 120.61 623.49 123.94 C 624.47 127.83 626.60 131.32 627.79 135.14 C 631.72 147.01 631.63 159.65 632.13 172.00 C 633.06 187.81 632.54 203.84 629.25 219.36 C 627.66 227.26 622.82 233.84 617.14 239.32 C 614.84 241.25 611.85 242.08 608.95 242.56 C 600.61 243.53 592.25 242.11 584.14 240.20 C 534.64 227.56 485.16 214.82 435.69 202.06 C 433.63 201.46 431.60 200.41 429.42 200.52 C 427.64 202.06 426.28 203.99 424.80 205.80 C 419.54 212.66 412.21 217.46 406.20 223.59 C 402.66 226.63 396.88 226.65 394.45 230.96 C 393.98 238.81 394.59 246.70 394.16 254.56 L 394.12 255.33 C 393.75 246.65 394.10 237.96 393.91 229.27 C 388.31 231.19 382.63 232.87 377.02 234.76 C 370.20 236.65 363.14 238.56 356.00 238.08 C 352.87 237.94 351.70 234.05 352.40 231.46 C 355.05 228.37 358.87 226.61 361.72 223.71 C 368.37 216.88 371.72 207.53 373.29 198.28 C 374.00 193.64 374.64 188.91 374.02 184.23 C 372.18 182.75 369.87 182.06 367.75 181.11 C 360.62 178.25 354.69 172.89 350.45 166.54 C 345.32 158.92 341.04 150.44 339.79 141.24 C 339.85 140.75 339.98 139.78 340.04 139.29 C 340.54 139.46 341.54 139.81 342.03 139.99 C 342.55 141.26 343.08 142.53 343.62 143.79 C 345.02 141.43 346.12 138.90 346.86 136.24 C 347.90 137.07 348.95 137.89 350.00 138.71 C 351.16 138.38 352.32 138.06 353.48 137.74 C 354.09 138.53 354.70 139.32 355.32 140.11 C 356.17 139.61 357.03 139.12 357.88 138.62 C 358.33 139.48 358.78 140.34 359.24 141.21 C 360.57 139.97 361.54 138.43 362.20 136.75 C 365.72 138.76 369.84 136.92 373.53 138.22 C 375.41 138.53 377.62 139.85 379.31 138.34 C 381.51 137.03 381.51 134.28 381.91 132.06 C 382.34 132.05 383.19 132.04 383.62 132.04 C 383.01 134.46 381.82 137.88 384.45 139.56 C 388.56 141.61 393.22 142.12 397.61 143.36 C 431.09 151.95 464.58 160.47 498.04 169.09 C 499.78 169.60 502.04 169.79 502.90 167.77 C 502.97 165.87 502.52 164.01 502.17 162.17 C 503.89 162.76 505.63 163.60 507.50 163.50 C 508.78 162.84 509.75 161.74 510.82 160.79 C 511.36 161.18 511.91 161.57 512.47 161.97 C 516.15 159.31 521.37 158.72 523.41 154.14 C 525.38 154.75 527.40 154.30 529.41 154.27 C 530.91 154.78 532.10 155.93 533.40 156.81 C 533.53 155.41 533.68 154.01 533.82 152.62 C 534.76 152.98 535.70 153.35 536.65 153.72 C 536.17 152.24 535.66 150.77 535.17 149.29 C 537.68 150.10 540.22 150.87 542.76 151.59 C 543.53 150.38 544.30 149.17 545.08 147.96 C 543.42 146.88 541.78 145.78 540.08 144.78 C 558.06 148.70 575.76 153.79 593.73 157.74 C 595.58 154.98 595.82 150.16 592.01 149.00 C 579.35 145.23 566.20 143.12 553.60 139.09 C 557.79 138.52 561.99 139.01 566.16 139.54 C 566.26 138.51 566.38 137.47 566.50 136.44 C 568.27 136.93 570.04 137.42 571.83 137.91 C 571.01 136.97 570.20 136.05 569.40 135.11 C 572.64 134.79 575.90 134.91 579.13 135.27 C 579.24 134.51 579.38 133.76 579.52 133.00 C 581.24 132.68 582.96 132.31 584.67 131.92 C 583.96 130.73 583.28 129.53 582.58 128.33 C 585.52 126.03 589.18 126.33 592.46 127.66 C 593.69 125.36 594.30 122.82 594.49 120.23 C 595.28 121.36 596.08 122.50 596.89 123.63 C 597.99 121.88 599.77 120.92 601.82 120.81 C 601.91 119.91 602.01 119.01 602.12 118.12 C 604.36 118.49 606.44 117.61 608.30 116.42 C 609.39 116.71 610.48 117.01 611.57 117.31 C 611.75 116.21 611.94 115.11 612.14 114.02 C 614.28 116.02 616.44 118.01 618.58 120.02 C 618.32 118.46 617.89 116.89 617.96 115.29 C 618.84 112.71 620.70 110.57 621.47 107.94 C 620.73 105.99 619.48 104.30 618.30 102.62 Z" />
</g>
<g id="#aeaeaeff">
<path fill="#aeaeae" opacity="1.00" d=" M 627.22 109.89 C 636.80 119.41 641.50 132.91 642.78 146.14 C 643.36 153.41 643.61 160.69 643.91 167.97 C 643.80 181.29 644.63 194.74 642.08 207.90 C 640.74 217.11 637.23 226.77 629.37 232.37 C 625.47 234.97 621.43 237.42 617.14 239.32 C 622.82 233.84 627.66 227.26 629.25 219.36 C 632.54 203.84 633.06 187.81 632.13 172.00 C 631.63 159.65 631.72 147.01 627.79 135.14 C 626.60 131.32 624.47 127.83 623.49 123.94 C 624.64 120.61 627.67 118.30 628.75 114.94 C 628.54 113.18 627.86 111.52 627.22 109.89 Z" />
</g>
<g id="#535560ff">
<path fill="#535560" opacity="1.00" d=" M 305.70 115.68 C 308.48 114.99 311.43 114.49 314.23 115.44 C 314.45 116.05 314.88 117.28 315.09 117.89 C 296.21 122.65 277.20 126.90 258.25 131.41 C 252.05 132.92 245.65 133.65 239.62 135.86 C 238.74 134.79 237.79 133.77 236.84 132.75 C 237.57 132.10 238.30 131.46 239.05 130.83 C 245.50 130.28 251.70 128.35 257.99 126.96 C 273.89 123.19 289.82 119.54 305.70 115.68 Z" />
<path fill="#535560" opacity="1.00" d=" M 313.25 475.50 C 334.63 469.89 355.96 464.08 377.24 458.11 C 376.58 459.22 375.48 459.91 374.23 460.19 C 332.54 471.47 290.85 482.76 249.20 494.19 C 245.15 495.25 241.17 496.84 236.93 496.84 C 262.15 488.99 287.95 483.07 313.25 475.50 Z" />
</g>
<g id="#cc391eff">
<path fill="#cc391e" opacity="1.00" d=" M 314.23 115.44 C 316.88 116.64 319.31 118.26 321.87 119.65 C 320.55 120.26 319.23 120.87 317.92 121.47 C 316.95 120.29 315.98 119.12 315.09 117.89 C 314.88 117.28 314.45 116.05 314.23 115.44 Z" />
</g>
<g id="#6a747eff">
<path fill="#6a747e" opacity="1.00" d=" M 258.25 131.41 C 277.20 126.90 296.21 122.65 315.09 117.89 C 315.98 119.12 316.95 120.29 317.92 121.47 C 319.23 120.87 320.55 120.26 321.87 119.65 C 323.78 120.53 325.75 121.33 327.57 122.41 C 325.75 122.61 323.94 122.80 322.14 123.04 C 315.26 123.51 308.72 125.78 302.02 127.18 C 288.30 130.51 274.56 133.72 260.81 136.93 C 254.56 138.44 248.37 140.27 242.02 141.34 C 241.25 139.50 240.50 137.65 239.62 135.86 C 245.65 133.65 252.05 132.92 258.25 131.41 Z" />
</g>
<g id="#62b7d7ff">
<path fill="#62b7d7" opacity="1.00" d=" M 463.37 123.60 C 462.60 121.57 462.77 117.28 465.96 118.14 C 472.28 119.03 478.36 121.09 484.60 122.39 C 486.93 123.11 489.99 123.28 491.26 125.72 C 492.50 127.70 491.50 129.97 490.82 131.94 C 484.19 131.30 477.89 128.97 471.39 127.64 C 468.63 126.71 464.63 126.74 463.37 123.60 Z" />
</g>
<g id="#3f4b56ff">
<path fill="#3f4b56" opacity="1.00" d=" M 302.02 127.18 C 308.72 125.78 315.26 123.51 322.14 123.04 C 320.96 123.51 319.80 124.03 318.67 124.60 C 318.52 124.91 318.22 125.53 318.07 125.84 C 318.01 126.33 317.89 127.30 317.83 127.79 C 293.09 132.76 268.75 139.54 244.03 144.58 C 243.45 143.76 242.88 142.94 242.34 142.10 L 242.02 141.34 C 248.37 140.27 254.56 138.44 260.81 136.93 C 274.56 133.72 288.30 130.51 302.02 127.18 Z" />
</g>
<g id="#283138ff">
<path fill="#283138" opacity="1.00" d=" M 322.14 123.04 C 323.94 122.80 325.75 122.61 327.57 122.41 C 329.63 126.30 329.50 130.82 329.02 135.07 C 327.97 142.27 326.97 149.48 325.53 156.61 C 324.93 159.80 323.00 162.48 321.02 164.96 C 311.34 167.33 301.65 169.63 291.97 171.94 C 287.31 172.93 283.22 175.54 278.59 176.60 C 274.00 177.80 269.21 177.78 264.56 178.65 C 254.28 180.83 244.16 183.82 233.84 185.78 C 230.04 186.66 226.63 183.77 225.66 180.25 C 223.85 173.82 222.88 166.95 224.07 160.32 C 224.87 156.53 225.42 152.69 225.79 148.84 C 227.14 146.32 228.67 143.80 231.03 142.09 C 230.41 143.68 229.79 145.28 229.16 146.87 C 232.81 144.83 236.64 143.11 240.68 142.02 C 239.37 143.31 237.89 144.43 236.21 145.18 C 234.90 145.76 233.57 146.30 232.27 146.90 C 229.67 150.34 229.22 154.77 228.95 158.93 C 228.60 166.38 228.57 174.04 230.90 181.21 C 233.20 184.80 237.54 182.63 240.85 182.06 C 252.17 179.56 263.36 176.16 274.97 175.20 C 281.19 174.69 286.42 170.93 292.39 169.53 C 297.73 168.22 303.08 166.95 308.41 165.60 C 313.16 164.35 318.30 164.10 322.54 161.37 C 321.72 160.59 320.91 159.81 320.10 159.04 C 321.58 151.81 323.07 144.48 322.43 137.06 C 326.68 134.58 324.74 128.92 324.71 124.94 C 322.48 125.12 320.26 125.41 318.07 125.84 C 318.22 125.53 318.52 124.91 318.67 124.60 C 319.80 124.03 320.96 123.51 322.14 123.04 Z" />
</g>
<g id="#a11e08ff">
<path fill="#a11e08" opacity="1.00" d=" M 318.07 125.84 C 320.26 125.41 322.48 125.12 324.71 124.94 C 324.74 128.92 326.68 134.58 322.43 137.06 C 321.89 137.16 320.81 137.34 320.27 137.44 C 319.41 134.91 318.59 132.37 317.92 129.79 C 317.90 129.29 317.85 128.29 317.83 127.79 C 317.89 127.30 318.01 126.33 318.07 125.84 Z" />
</g>
<g id="#5eb4d5ff">
<path fill="#5eb4d5" opacity="1.00" d=" M 501.59 128.61 C 502.34 127.20 504.06 127.35 505.39 127.62 C 521.50 131.25 537.41 135.82 553.60 139.09 C 566.20 143.12 579.35 145.23 592.01 149.00 C 595.82 150.16 595.58 154.98 593.73 157.74 C 575.76 153.79 558.06 148.70 540.08 144.78 C 528.48 141.55 516.67 139.09 505.07 135.87 C 501.79 135.33 500.18 131.47 501.59 128.61 Z" />
</g>
<g id="#30383eff">
<path fill="#30383e" opacity="1.00" d=" M 244.03 144.58 C 268.75 139.54 293.09 132.76 317.83 127.79 C 317.85 128.29 317.90 129.29 317.92 129.79 C 314.36 133.76 308.96 134.88 304.01 136.04 C 282.42 140.98 260.92 146.35 239.33 151.28 C 241.13 148.54 242.21 145.39 242.34 142.10 C 242.88 142.94 243.45 143.76 244.03 144.58 Z" />
</g>
<g id="#ee634dff">
<path fill="#ee634d" opacity="1.00" d=" M 152.08 135.00 C 152.84 132.44 155.50 130.28 157.83 128.98 C 159.91 128.99 162.00 129.06 164.08 129.00 C 160.27 131.62 156.48 134.36 152.14 136.05 L 152.08 135.00 Z" />
</g>
<g id="#bc3922ff">
<path fill="#bc3922" opacity="1.00" d=" M 304.01 136.04 C 308.96 134.88 314.36 133.76 317.92 129.79 C 318.59 132.37 319.41 134.91 320.27 137.44 C 289.76 144.29 259.44 152.00 228.95 158.93 C 229.22 154.77 229.67 150.34 232.27 146.90 C 233.44 148.38 234.61 149.87 235.87 151.27 C 237.02 151.33 238.18 151.34 239.33 151.28 C 260.92 146.35 282.42 140.98 304.01 136.04 Z" />
</g>
<g id="#d73411ff">
<path fill="#d73411" opacity="1.00" d=" M 226.61 137.56 C 230.74 135.23 233.85 130.70 239.05 130.83 C 238.30 131.46 237.57 132.10 236.84 132.75 C 235.70 135.18 235.52 137.89 235.43 140.53 C 233.94 140.99 232.47 141.51 231.03 142.09 C 228.67 143.80 227.14 146.32 225.79 148.84 C 222.86 152.41 220.81 156.56 219.76 161.06 C 219.41 161.15 218.71 161.33 218.35 161.43 C 218.98 155.85 218.26 150.11 219.67 144.63 C 220.50 141.13 223.76 139.27 226.61 137.56 Z" />
</g>
<g id="#60b5d7ff">
<path fill="#60b5d7" opacity="1.00" d=" M 383.62 132.04 C 384.35 132.04 385.81 132.03 386.54 132.03 C 391.04 133.47 395.58 134.76 400.19 135.82 C 431.34 143.61 462.42 151.71 493.60 159.40 C 496.52 160.11 499.37 161.08 502.17 162.17 C 502.52 164.01 502.97 165.87 502.90 167.77 C 502.04 169.79 499.78 169.60 498.04 169.09 C 464.58 160.47 431.09 151.95 397.61 143.36 C 393.22 142.12 388.56 141.61 384.45 139.56 C 381.82 137.88 383.01 134.46 383.62 132.04 Z" />
</g>
<g id="#040407ff">
<path fill="#040407" opacity="1.00" d=" M 235.43 140.53 C 235.52 137.89 235.70 135.18 236.84 132.75 C 237.79 133.77 238.74 134.79 239.62 135.86 C 240.50 137.65 241.25 139.50 242.02 141.34 L 242.34 142.10 C 242.21 145.39 241.13 148.54 239.33 151.28 C 238.18 151.34 237.02 151.33 235.87 151.27 C 235.98 149.24 236.09 147.21 236.21 145.18 C 237.89 144.43 239.37 143.31 240.68 142.02 C 239.83 139.79 237.26 140.56 235.43 140.53 Z" />
</g>
<g id="#c14d3bff">
<path fill="#c14d3b" opacity="1.00" d=" M 147.49 148.02 C 147.97 143.52 148.46 138.17 152.08 135.00 L 152.14 136.05 C 152.75 141.38 151.68 146.68 151.62 152.01 C 151.71 201.43 151.60 250.85 151.68 300.27 C 151.60 364.18 151.70 428.09 151.64 492.00 C 151.53 498.88 151.09 506.19 154.60 512.41 C 150.33 509.71 147.76 504.90 147.59 499.88 C 147.32 492.84 147.68 485.79 147.45 478.74 C 147.58 469.78 147.60 460.83 147.55 451.88 C 147.56 448.57 147.60 445.27 147.60 441.96 C 147.64 438.17 147.67 434.38 147.46 430.60 C 147.50 336.41 147.40 242.21 147.49 148.02 Z" />
</g>
<g id="#e9e9e9ff">
<path fill="#e9e9e9" opacity="1.00" d=" M 320.27 137.44 C 320.81 137.34 321.89 137.16 322.43 137.06 C 323.07 144.48 321.58 151.81 320.10 159.04 C 317.60 160.39 314.97 161.50 312.20 162.13 C 304.93 163.88 297.63 165.52 290.36 167.27 C 284.67 168.57 279.71 172.18 273.79 172.63 C 259.14 173.45 245.33 179.00 230.90 181.21 C 228.57 174.04 228.60 166.38 228.95 158.93 C 259.44 152.00 289.76 144.29 320.27 137.44 Z" />
</g>
<g id="#717b86ff">
<path fill="#717b86" opacity="1.00" d=" M 235.43 140.53 C 237.26 140.56 239.83 139.79 240.68 142.02 C 236.64 143.11 232.81 144.83 229.16 146.87 C 229.79 145.28 230.41 143.68 231.03 142.09 C 232.47 141.51 233.94 140.99 235.43 140.53 Z" />
<path fill="#717b86" opacity="1.00" d=" M 312.20 162.13 C 314.97 161.50 317.60 160.39 320.10 159.04 C 320.91 159.81 321.72 160.59 322.54 161.37 C 318.30 164.10 313.16 164.35 308.41 165.60 C 303.08 166.95 297.73 168.22 292.39 169.53 C 286.42 170.93 281.19 174.69 274.97 175.20 C 263.36 176.16 252.17 179.56 240.85 182.06 C 237.54 182.63 233.20 184.80 230.90 181.21 C 245.33 179.00 259.14 173.45 273.79 172.63 C 279.71 172.18 284.67 168.57 290.36 167.27 C 297.63 165.52 304.93 163.88 312.20 162.13 Z" />
<path fill="#717b86" opacity="1.00" d=" M 169.00 514.99 C 190.55 509.02 212.26 503.57 233.68 497.15 C 234.49 497.07 236.12 496.92 236.93 496.84 C 235.81 497.49 234.64 498.04 233.40 498.41 C 210.18 504.74 186.98 511.18 163.75 517.49 C 158.64 519.03 153.26 518.74 148.00 518.72 C 146.84 518.73 145.76 518.45 144.77 517.87 C 146.27 517.99 147.78 518.09 149.29 518.17 C 151.35 518.31 153.42 518.35 155.50 518.31 C 157.18 517.98 158.40 516.81 159.49 515.57 C 162.66 516.00 165.90 515.80 169.00 514.99 Z" />
</g>
<g id="#7b1507ff">
<path fill="#7b1507" opacity="1.00" d=" M 232.27 146.90 C 233.57 146.30 234.90 145.76 236.21 145.18 C 236.09 147.21 235.98 149.24 235.87 151.27 C 234.61 149.87 233.44 148.38 232.27 146.90 Z" />
</g>
<g id="#971f0dff">
<path fill="#971f0d" opacity="1.00" d=" M 219.76 161.06 C 220.81 156.56 222.86 152.41 225.79 148.84 C 225.42 152.69 224.87 156.53 224.07 160.32 C 222.91 160.50 221.75 160.69 220.60 160.89 L 219.76 161.06 Z" />
</g>
<g id="#cfcfcfff">
<path fill="#cfcfcf" opacity="1.00" d=" M 220.60 160.89 C 221.75 160.69 222.91 160.50 224.07 160.32 C 222.88 166.95 223.85 173.82 225.66 180.25 C 226.63 183.77 230.04 186.66 233.84 185.78 C 244.16 183.82 254.28 180.83 264.56 178.65 C 269.21 177.78 274.00 177.80 278.59 176.60 C 283.22 175.54 287.31 172.93 291.97 171.94 C 301.65 169.63 311.34 167.33 321.02 164.96 C 319.19 167.61 316.62 169.78 313.40 170.44 C 305.37 172.47 297.28 174.30 289.23 176.30 C 283.25 177.61 279.47 183.30 273.43 184.52 C 268.43 186.38 263.64 182.10 258.61 183.66 C 251.08 185.43 243.57 187.35 236.04 189.17 C 233.80 189.64 231.51 190.20 229.20 189.96 C 226.20 189.06 224.64 185.98 223.73 183.22 C 221.56 175.99 220.64 168.42 220.60 160.89 Z" />
</g>
<g id="#700b02ff">
<path fill="#700b02" opacity="1.00" d=" M 168.91 177.71 C 169.21 176.40 169.61 175.11 169.97 173.81 C 170.13 233.87 170.01 293.94 170.06 354.00 C 170.27 383.66 169.44 413.35 171.02 442.99 C 171.20 454.39 171.58 465.80 173.14 477.11 C 173.25 478.40 173.40 479.70 173.57 480.99 C 171.82 479.99 169.28 479.29 169.31 476.83 C 168.06 466.19 169.67 455.42 168.41 444.78 C 168.30 443.20 168.17 441.62 168.10 440.05 C 169.07 434.08 168.73 428.02 168.96 422.01 C 169.39 410.67 169.17 399.33 169.22 388.00 C 169.27 329.67 169.28 271.34 169.29 213.01 C 169.12 201.24 169.71 189.46 168.91 177.71 Z" />
</g>
<g id="#e5492dff">
<path fill="#e5492d" opacity="1.00" d=" M 168.01 193.00 C 168.01 187.90 167.53 182.69 168.91 177.71 C 169.71 189.46 169.12 201.24 169.29 213.01 C 169.28 271.34 169.27 329.67 169.22 388.00 C 169.17 399.33 169.39 410.67 168.96 422.01 C 168.73 428.02 169.07 434.08 168.10 440.05 C 165.65 449.53 167.83 459.47 165.83 469.04 C 164.12 476.64 165.84 484.37 165.78 492.05 C 165.77 497.88 167.42 503.75 171.43 508.11 C 170.66 510.42 169.85 512.71 169.00 514.99 C 165.90 515.80 162.66 516.00 159.49 515.57 C 157.81 514.58 156.15 513.57 154.60 512.41 C 151.09 506.19 151.53 498.88 151.64 492.00 C 151.70 428.09 151.60 364.18 151.68 300.27 C 152.51 300.15 153.33 300.04 154.16 299.92 C 154.96 297.92 155.29 295.50 156.90 293.97 C 159.36 293.21 162.43 295.65 164.53 293.69 C 166.11 288.92 164.35 283.76 165.78 278.95 C 167.18 273.98 166.24 268.79 166.63 263.72 C 168.11 240.18 168.03 216.58 168.01 193.00 Z" />
</g>
<g id="#ffdb8aff">
<path fill="#ffdb8a" opacity="1.00" d=" M 346.40 185.44 C 348.21 185.16 350.47 184.64 351.93 186.14 C 353.92 188.20 354.03 191.29 354.27 193.99 C 354.54 201.32 354.12 208.65 353.67 215.96 C 353.39 219.14 353.00 223.15 349.73 224.71 C 346.05 226.43 341.98 227.05 338.08 228.12 C 334.47 228.93 330.86 230.27 327.11 230.00 C 324.30 229.64 323.88 226.27 323.72 224.01 C 323.46 217.35 323.72 210.68 323.63 204.02 C 323.54 198.81 324.20 192.07 329.71 189.74 C 335.13 187.85 340.83 186.82 346.40 185.44 M 328.60 199.37 C 332.42 205.90 336.02 212.61 340.26 218.88 C 340.65 218.90 341.44 218.95 341.84 218.98 C 345.30 214.53 347.52 209.21 350.22 204.27 C 351.67 202.51 349.24 199.39 347.43 201.33 C 345.15 204.38 343.71 207.97 341.71 211.20 C 337.97 206.05 335.46 200.10 331.74 194.94 C 329.49 193.13 326.90 197.45 328.60 199.37 Z" />
</g>
<g id="#121a22ff">
<path fill="#121a22" opacity="1.00" d=" M 328.60 199.37 C 326.90 197.45 329.49 193.13 331.74 194.94 C 335.46 200.10 337.97 206.05 341.71 211.20 C 343.71 207.97 345.15 204.38 347.43 201.33 C 349.24 199.39 351.67 202.51 350.22 204.27 C 347.52 209.21 345.30 214.53 341.84 218.98 C 341.44 218.95 340.65 218.90 340.26 218.88 C 336.02 212.61 332.42 205.90 328.60 199.37 Z" />
</g>
<g id="#b0b0b0ff">
<path fill="#b0b0b0" opacity="1.00" d=" M 429.42 200.52 C 431.60 200.41 433.63 201.46 435.69 202.06 C 427.09 210.69 417.80 219.26 406.20 223.59 C 412.21 217.46 419.54 212.66 424.80 205.80 C 426.28 203.99 427.64 202.06 429.42 200.52 Z" />
</g>
<g id="#e94c30ff">
<path fill="#e94c30" opacity="1.00" d=" M 377.02 234.76 C 382.63 232.87 388.31 231.19 393.91 229.27 C 394.10 237.96 393.75 246.65 394.12 255.33 C 394.11 259.56 394.04 263.78 394.06 268.00 C 388.95 269.77 383.88 271.66 378.83 273.59 C 378.49 277.26 378.73 281.17 380.53 284.46 C 384.08 288.11 389.54 287.71 394.11 286.72 C 393.92 306.60 394.24 326.48 393.95 346.37 C 388.41 346.78 382.88 347.08 377.35 347.54 C 376.99 309.95 377.68 272.34 377.02 234.76 Z" />
</g>
<g id="#ffd987ff">
<path fill="#ffd987" opacity="1.00" d=" M 345.36 245.38 C 347.92 244.67 351.40 244.25 352.94 247.01 C 355.04 252.03 354.21 257.68 354.29 262.99 C 353.90 268.92 354.28 275.00 352.82 280.80 C 351.84 284.57 347.57 285.38 344.36 286.33 C 338.94 287.54 333.65 289.62 328.06 289.89 C 324.70 290.24 323.69 286.38 323.48 283.78 C 323.20 276.86 323.43 269.92 323.40 262.99 C 323.56 258.24 324.25 252.38 328.99 249.97 C 334.18 247.64 339.91 246.93 345.36 245.38 M 328.67 259.34 C 332.46 265.95 336.32 272.54 340.35 279.01 C 344.10 278.02 344.73 273.50 346.70 270.68 C 347.99 267.49 351.34 264.48 350.17 260.83 C 349.63 260.73 348.56 260.52 348.03 260.41 C 345.28 263.54 343.86 267.55 341.69 271.06 C 338.05 265.57 335.02 259.71 331.55 254.11 C 329.02 254.27 327.03 257.08 328.67 259.34 Z" />
</g>
<g id="#111921ff">
<path fill="#111921" opacity="1.00" d=" M 328.67 259.34 C 327.03 257.08 329.02 254.27 331.55 254.11 C 335.02 259.71 338.05 265.57 341.69 271.06 C 343.86 267.55 345.28 263.54 348.03 260.41 C 348.56 260.52 349.63 260.73 350.17 260.83 C 351.34 264.48 347.99 267.49 346.70 270.68 C 344.73 273.50 344.10 278.02 340.35 279.01 C 336.32 272.54 332.46 265.95 328.67 259.34 Z" />
<path fill="#111921" opacity="1.00" d=" M 329.15 313.21 C 329.80 313.16 331.11 313.07 331.76 313.02 C 335.22 318.39 337.92 324.24 341.76 329.35 C 343.74 326.10 345.22 322.55 347.42 319.44 C 348.10 319.29 349.45 319.00 350.13 318.85 C 351.30 323.59 347.12 327.31 345.49 331.44 C 344.02 333.41 343.40 337.73 340.22 337.10 C 336.04 331.05 332.62 324.48 328.80 318.19 C 327.51 316.61 328.42 314.78 329.15 313.21 Z" />
</g>
<g id="#ffffffff">
<path fill="#ffffff" opacity="1.00" d=" M 394.12 255.33 L 394.16 254.56 C 394.24 257.01 395.17 259.21 396.37 261.31 C 396.59 263.23 396.51 265.18 396.63 267.11 C 395.76 267.40 394.91 267.70 394.06 268.00 C 394.04 263.78 394.11 259.56 394.12 255.33 Z" />
<path fill="#ffffff" opacity="1.00" d=" M 394.11 286.72 C 394.95 286.59 395.79 286.44 396.64 286.28 C 396.38 306.21 396.47 326.16 396.59 346.09 C 395.93 346.16 394.61 346.30 393.95 346.37 C 394.24 326.48 393.92 306.60 394.11 286.72 Z" />
<path fill="#ffffff" opacity="1.00" d=" M 448.24 320.06 C 451.24 319.62 454.20 320.34 457.08 321.14 C 456.95 322.02 456.67 323.78 456.53 324.66 C 453.62 324.16 450.72 323.60 447.82 323.06 C 447.93 322.31 448.13 320.81 448.24 320.06 Z" />
<path fill="#ffffff" opacity="1.00" d=" M 394.03 365.31 C 394.67 365.28 395.96 365.22 396.60 365.19 C 396.39 389.91 396.54 414.64 396.52 439.37 C 395.85 439.44 394.49 439.57 393.81 439.64 C 393.63 440.20 393.27 441.34 393.09 441.91 C 393.98 438.34 394.10 434.65 394.09 431.00 C 394.01 409.10 394.11 387.20 394.03 365.31 Z" />
<path fill="#ffffff" opacity="1.00" d=" M 481.92 437.09 C 482.40 437.13 483.37 437.22 483.85 437.26 C 485.27 438.83 486.75 440.35 488.14 441.95 C 488.09 443.33 487.99 444.71 487.84 446.10 C 484.70 444.13 482.22 440.87 481.92 437.09 Z" />
</g>
<g id="#495e70ff">
<path fill="#495e70" opacity="1.00" d=" M 396.63 267.11 C 404.69 264.30 414.33 263.36 421.86 268.14 C 424.36 269.53 425.95 272.13 426.51 274.89 C 426.18 276.53 425.79 278.17 425.42 279.81 C 423.83 279.73 422.18 279.96 420.66 279.40 C 417.47 277.62 415.90 273.92 412.75 272.12 C 403.56 272.12 395.12 276.67 386.11 278.07 C 383.85 276.32 381.40 274.83 378.83 273.59 C 383.88 271.66 388.95 269.77 394.06 268.00 C 394.91 267.70 395.76 267.40 396.63 267.11 Z" />
</g>
<g id="#394d5fff">
<path fill="#394d5f" opacity="1.00" d=" M 386.11 278.07 C 395.12 276.67 403.56 272.12 412.75 272.12 C 415.90 273.92 417.47 277.62 420.66 279.40 C 422.18 279.96 423.83 279.73 425.42 279.81 C 425.79 278.17 426.18 276.53 426.51 274.89 C 428.27 279.96 428.54 285.40 430.33 290.46 C 429.97 290.59 429.25 290.87 428.89 291.01 C 428.16 291.03 426.71 291.08 425.98 291.10 C 424.74 288.02 423.98 284.65 422.02 281.91 C 420.35 280.85 418.28 281.31 416.45 281.49 C 410.74 282.48 404.90 283.25 399.55 285.64 C 398.82 285.80 397.36 286.12 396.64 286.28 C 395.79 286.44 394.95 286.59 394.11 286.72 C 391.90 286.36 389.71 285.87 387.52 285.41 C 387.01 282.97 386.53 280.52 386.11 278.07 Z" />
<path fill="#394d5f" opacity="1.00" d=" M 446.62 307.30 C 455.63 311.88 465.89 313.08 475.28 316.68 C 477.15 317.20 479.40 318.42 481.26 317.29 C 484.38 314.47 486.80 310.95 489.95 308.15 C 490.45 308.08 491.44 307.95 491.94 307.89 C 493.28 311.50 495.04 314.94 497.00 318.26 C 492.03 323.67 489.83 331.05 490.49 338.33 C 488.88 333.77 490.10 328.95 490.67 324.32 C 490.23 323.92 489.34 323.12 488.90 322.73 C 487.37 325.58 485.99 328.51 484.73 331.50 C 482.50 330.92 480.26 330.33 478.00 329.87 C 474.49 329.56 470.82 329.32 467.44 330.52 C 464.90 331.57 462.82 333.41 460.62 335.02 C 459.41 334.71 458.20 334.42 457.00 334.12 C 451.85 332.73 446.69 331.34 441.65 329.58 C 444.90 324.61 446.80 318.80 447.15 312.86 C 447.06 311.00 446.89 309.14 446.62 307.30 M 448.24 320.06 C 448.13 320.81 447.93 322.31 447.82 323.06 C 450.01 327.92 456.41 328.08 461.00 328.87 C 461.36 326.31 458.64 325.00 456.53 324.66 C 456.67 323.78 456.95 322.02 457.08 321.14 C 454.20 320.34 451.24 319.62 448.24 320.06 Z" />
<path fill="#394d5f" opacity="1.00" d=" M 502.44 320.48 C 505.66 318.75 510.14 319.69 512.00 322.96 C 515.63 329.44 512.38 338.65 505.65 341.67 C 502.35 343.28 497.91 341.98 496.33 338.60 C 492.98 332.24 496.29 323.78 502.44 320.48 M 503.29 323.19 C 497.69 325.57 495.29 334.58 500.42 338.57 C 505.86 341.21 510.87 335.02 510.96 329.95 C 511.63 325.81 507.58 321.10 503.29 323.19 Z" />
</g>
<g id="#23303dff">
<path fill="#23303d" opacity="1.00" d=" M 378.83 273.59 C 381.40 274.83 383.85 276.32 386.11 278.07 C 386.53 280.52 387.01 282.97 387.52 285.41 C 389.71 285.87 391.90 286.36 394.11 286.72 C 389.54 287.71 384.08 288.11 380.53 284.46 C 378.73 281.17 378.49 277.26 378.83 273.59 Z" />
</g>
<g id="#232f3bff">
<path fill="#232f3b" opacity="1.00" d=" M 416.45 281.49 C 418.28 281.31 420.35 280.85 422.02 281.91 C 423.98 284.65 424.74 288.02 425.98 291.10 C 423.37 290.74 420.81 290.12 418.21 289.73 C 418.75 289.11 419.30 288.50 419.86 287.90 C 418.68 286.08 417.81 283.86 415.90 282.70 C 410.37 283.16 405.06 284.96 399.55 285.64 C 404.90 283.25 410.74 282.48 416.45 281.49 Z" />
</g>
<g id="#fefefeff">
<path fill="#fefefe" opacity="1.00" d=" M 448.84 290.82 C 453.91 285.92 460.90 283.09 467.97 283.19 C 470.62 283.42 474.40 282.22 475.74 285.36 C 471.01 285.88 466.02 285.41 461.58 287.43 C 454.46 289.55 450.39 296.13 445.02 300.74 C 444.20 299.69 443.35 298.69 442.45 297.72 C 444.61 295.45 446.95 293.34 448.84 290.82 Z" />
</g>
<g id="#acacacbc">
<path fill="#acacac" opacity="0.74" d=" M 475.74 285.36 C 485.34 287.62 492.26 297.33 492.00 307.07 L 491.94 307.89 C 491.44 307.95 490.45 308.08 489.95 308.15 C 490.42 301.73 488.17 295.02 483.16 290.82 C 477.43 285.25 468.74 287.47 461.58 287.43 C 466.02 285.41 471.01 285.88 475.74 285.36 Z" />
<path fill="#acacac" opacity="0.74" d=" M 486.90 391.79 C 496.95 387.42 510.55 388.10 517.69 397.30 C 522.01 401.27 525.13 406.83 525.40 412.78 C 525.72 416.39 526.54 419.96 526.59 423.59 C 525.86 429.92 525.89 436.46 523.49 442.47 C 523.64 439.61 524.14 436.79 524.61 433.97 C 525.54 425.71 524.32 417.43 522.74 409.33 C 521.62 403.16 517.06 398.39 512.43 394.51 C 505.02 389.12 495.36 391.52 486.90 391.79 Z" />
<path fill="#acacac" opacity="0.74" d=" M 502.13 442.93 C 505.68 441.64 507.66 438.04 510.71 435.94 C 508.52 438.33 505.97 440.38 503.92 442.89 C 504.00 444.51 505.50 445.46 506.47 446.59 C 510.30 450.12 512.83 454.87 517.15 457.92 C 518.53 455.67 519.56 453.25 520.77 450.92 C 519.97 453.63 518.80 456.21 517.95 458.90 C 519.94 461.21 522.29 463.46 525.64 462.85 C 525.72 457.63 525.70 452.41 525.65 447.20 C 524.94 447.25 523.50 447.35 522.79 447.41 C 523.94 446.51 525.15 445.68 526.35 444.84 C 525.95 450.74 526.26 456.66 526.09 462.57 C 527.35 463.04 528.64 463.50 529.92 463.95 C 526.71 463.16 523.40 462.90 520.11 462.74 C 514.06 456.19 508.18 449.48 502.13 442.93 Z" />
</g>
<g id="#ca6c5cfc">
<path fill="#ca6c5c" opacity="1.00" d=" M 403.59 303.44 C 406.05 297.22 410.86 291.53 417.60 289.93 C 413.22 293.32 408.82 297.13 406.93 302.53 C 404.08 309.09 403.08 316.71 405.55 323.54 C 407.16 327.65 410.04 331.08 412.08 334.97 L 411.33 334.60 C 401.30 328.01 399.23 313.98 403.59 303.44 Z" />
</g>
<g id="#f05e3eff">
<path fill="#f05e3e" opacity="1.00" d=" M 417.60 289.93 L 418.21 289.73 C 420.81 290.12 423.37 290.74 425.98 291.10 C 426.71 291.08 428.16 291.03 428.89 291.01 C 427.36 294.18 425.29 297.32 425.09 300.93 C 425.66 306.73 430.86 311.18 436.31 312.38 C 439.98 312.22 443.87 310.18 447.15 312.86 C 446.80 318.80 444.90 324.61 441.65 329.58 C 440.87 330.59 440.01 331.53 439.17 332.49 C 436.56 329.85 433.77 327.39 430.70 325.30 C 425.22 321.52 420.58 316.51 417.13 310.83 C 415.40 308.54 416.80 305.76 417.42 303.34 C 413.90 303.32 410.41 302.90 406.93 302.53 C 408.82 297.13 413.22 293.32 417.60 289.93 Z" />
</g>
<g id="#fd7c5fff">
<path fill="#fd7c5f" opacity="1.00" d=" M 430.33 290.46 C 435.21 290.24 439.09 294.59 442.45 297.72 C 443.35 298.69 444.20 299.69 445.02 300.74 C 445.57 302.92 446.13 305.10 446.62 307.30 C 446.89 309.14 447.06 311.00 447.15 312.86 C 443.87 310.18 439.98 312.22 436.31 312.38 C 430.86 311.18 425.66 306.73 425.09 300.93 C 425.29 297.32 427.36 294.18 428.89 291.01 C 429.25 290.87 429.97 290.59 430.33 290.46 M 428.32 299.41 C 428.27 301.48 427.87 303.88 429.42 305.56 C 431.75 307.66 434.90 308.40 437.89 309.01 C 438.09 305.52 437.25 301.79 434.61 299.34 C 432.57 298.58 430.39 299.19 428.32 299.41 Z" />
</g>
<g id="#ffa08dff">
<path fill="#ffa08d" opacity="1.00" d=" M 428.32 299.41 C 430.39 299.19 432.57 298.58 434.61 299.34 C 437.25 301.79 438.09 305.52 437.89 309.01 C 434.90 308.40 431.75 307.66 429.42 305.56 C 427.87 303.88 428.27 301.48 428.32 299.41 M 429.30 300.43 C 429.51 302.00 429.31 304.09 431.01 304.94 C 432.22 305.43 433.51 305.66 434.79 305.97 C 434.68 304.20 435.04 302.31 434.31 300.65 C 432.73 299.94 430.95 300.40 429.30 300.43 Z" />
</g>
<g id="#ffc4b9ff">
<path fill="#ffc4b9" opacity="1.00" d=" M 429.30 300.43 C 430.95 300.40 432.73 299.94 434.31 300.65 C 435.04 302.31 434.68 304.20 434.79 305.97 C 433.51 305.66 432.22 305.43 431.01 304.94 C 429.31 304.09 429.51 302.00 429.30 300.43 Z" />
</g>
<g id="#ca4b2fff">
<path fill="#ca4b2f" opacity="1.00" d=" M 406.93 302.53 C 410.41 302.90 413.90 303.32 417.42 303.34 C 416.80 305.76 415.40 308.54 417.13 310.83 C 420.58 316.51 425.22 321.52 430.70 325.30 C 433.77 327.39 436.56 329.85 439.17 332.49 C 436.37 335.22 432.91 337.23 429.12 338.19 C 423.23 338.84 417.33 337.69 412.08 334.97 C 410.04 331.08 407.16 327.65 405.55 323.54 C 403.08 316.71 404.08 309.09 406.93 302.53 Z" />
</g>
<g id="#ffd785ff">
<path fill="#ffd785" opacity="1.00" d=" M 347.41 303.45 C 348.89 303.23 350.68 302.96 351.86 304.16 C 353.92 306.18 354.04 309.29 354.28 311.99 C 354.52 319.60 354.18 327.23 353.61 334.83 C 353.28 337.75 352.84 341.38 349.89 342.85 C 346.01 344.71 341.70 345.37 337.59 346.59 C 334.20 347.38 330.81 348.68 327.29 348.53 C 324.28 348.05 323.78 344.49 323.68 342.01 C 323.59 334.34 323.55 326.66 323.75 319.00 C 323.76 314.60 325.55 309.67 329.98 308.02 C 335.64 306.03 341.57 304.81 347.41 303.45 M 329.15 313.21 C 328.42 314.78 327.51 316.61 328.80 318.19 C 332.62 324.48 336.04 331.05 340.22 337.10 C 343.40 337.73 344.02 333.41 345.49 331.44 C 347.12 327.31 351.30 323.59 350.13 318.85 C 349.45 319.00 348.10 319.29 347.42 319.44 C 345.22 322.55 343.74 326.10 341.76 329.35 C 337.92 324.24 335.22 318.39 331.76 313.02 C 331.11 313.07 329.80 313.16 329.15 313.21 Z" />
</g>
<g id="#4b6275ff">
<path fill="#4b6275" opacity="1.00" d=" M 492.00 307.07 C 496.48 307.27 501.19 306.51 505.45 308.31 C 511.66 310.62 516.51 316.09 518.47 322.35 C 519.80 329.54 518.53 337.96 512.93 343.11 C 515.45 338.06 518.46 332.84 518.05 326.99 C 518.06 321.67 515.10 315.76 509.61 314.38 C 505.03 313.08 500.55 315.59 497.00 318.26 C 495.04 314.94 493.28 311.50 491.94 307.89 L 492.00 307.07 Z" />
</g>
<g id="#f15f3fff">
<path fill="#f15f3f" opacity="1.00" d=" M 497.00 318.26 C 500.55 315.59 505.03 313.08 509.61 314.38 C 515.10 315.76 518.06 321.67 518.05 326.99 C 518.46 332.84 515.45 338.06 512.93 343.11 C 512.55 343.90 511.98 344.50 511.23 344.94 C 507.20 347.09 502.74 348.31 498.15 348.11 C 494.59 345.80 491.54 342.55 490.49 338.33 C 489.83 331.05 492.03 323.67 497.00 318.26 M 502.44 320.48 C 496.29 323.78 492.98 332.24 496.33 338.60 C 497.91 341.98 502.35 343.28 505.65 341.67 C 512.38 338.65 515.63 329.44 512.00 322.96 C 510.14 319.69 505.66 318.75 502.44 320.48 Z" />
<path fill="#f15f3f" opacity="1.00" d=" M 503.29 323.19 C 507.58 321.10 511.63 325.81 510.96 329.95 C 510.87 335.02 505.86 341.21 500.42 338.57 C 495.29 334.58 497.69 325.57 503.29 323.19 Z" />
</g>
<g id="#50677bff">
<path fill="#50677b" opacity="1.00" d=" M 447.82 323.06 C 450.72 323.60 453.62 324.16 456.53 324.66 C 458.64 325.00 461.36 326.31 461.00 328.87 C 456.41 328.08 450.01 327.92 447.82 323.06 Z" />
</g>
<g id="#22303dff">
<path fill="#22303d" opacity="1.00" d=" M 484.73 331.50 C 485.99 328.51 487.37 325.58 488.90 322.73 C 489.34 323.12 490.23 323.92 490.67 324.32 C 490.10 328.95 488.88 333.77 490.49 338.33 C 491.54 342.55 494.59 345.80 498.15 348.11 C 498.24 348.62 498.41 349.64 498.50 350.15 C 493.61 349.26 489.69 346.15 486.04 342.99 C 483.58 347.46 481.82 352.25 479.92 356.96 C 478.59 360.33 476.73 363.52 476.00 367.10 C 475.73 371.07 477.70 374.82 477.54 378.79 C 477.02 382.25 475.18 385.31 473.75 388.46 C 473.10 388.36 471.80 388.18 471.15 388.09 C 472.53 381.79 472.04 375.38 471.35 369.04 C 472.19 364.55 474.80 360.60 476.30 356.30 C 478.16 351.19 481.30 346.46 482.05 341.01 C 481.18 337.14 479.24 333.62 478.00 329.87 C 480.26 330.33 482.50 330.92 484.73 331.50 Z" />
</g>
<g id="#2c2e2f45">
<path fill="#2c2e2f" opacity="0.27" d=" M 467.44 330.52 C 470.82 329.32 474.49 329.56 478.00 329.87 C 479.24 333.62 481.18 337.14 482.05 341.01 C 481.30 346.46 478.16 351.19 476.30 356.30 C 474.80 360.60 472.19 364.55 471.35 369.04 C 472.04 375.38 472.53 381.79 471.15 388.09 C 470.90 388.53 470.38 389.41 470.13 389.85 C 462.33 386.12 455.07 379.53 452.97 370.87 C 456.95 377.28 461.61 383.47 468.13 387.49 C 469.08 385.60 470.16 383.74 470.72 381.69 C 471.98 376.40 469.04 370.94 470.85 365.73 C 473.71 358.38 476.93 351.18 479.97 343.91 C 481.39 341.10 479.75 338.16 478.66 335.57 C 477.65 333.58 476.71 330.70 474.02 330.70 C 468.50 330.01 463.62 333.71 460.73 338.09 C 460.71 337.32 460.65 335.78 460.62 335.02 C 462.82 333.41 464.90 331.57 467.44 330.52 Z" />
</g>
<g id="#fbfbfbff">
<path fill="#fbfbfb" opacity="1.00" d=" M 457.00 334.12 C 458.20 334.42 459.41 334.71 460.62 335.02 C 460.65 335.78 460.71 337.32 460.73 338.09 C 458.37 344.41 451.46 348.62 451.35 355.91 C 451.82 360.90 451.37 366.03 452.97 370.87 C 455.07 379.53 462.33 386.12 470.13 389.85 C 470.38 389.41 470.90 388.53 471.15 388.09 C 471.80 388.18 473.10 388.36 473.75 388.46 C 475.74 388.82 477.74 389.24 479.79 389.31 C 478.66 389.71 475.97 390.28 477.59 392.07 C 480.34 392.84 483.22 392.74 486.02 392.29 C 481.47 393.03 480.83 398.01 478.85 401.38 C 479.95 398.55 481.16 395.77 482.34 392.98 C 477.44 392.75 472.57 391.93 468.09 389.88 C 459.07 386.02 452.06 377.56 450.56 367.79 C 450.07 362.18 450.08 356.29 452.27 351.01 C 453.91 346.83 457.09 343.55 459.87 340.11 C 459.84 338.33 459.77 336.57 459.66 334.81 C 459.00 334.63 457.67 334.29 457.00 334.12 Z" />
</g>
<g id="#364a5aff">
<path fill="#364a5a" opacity="1.00" d=" M 411.33 334.60 L 412.08 334.97 C 417.33 337.69 423.23 338.84 429.12 338.19 C 425.76 338.57 422.39 338.51 419.02 338.62 C 416.60 345.91 415.53 354.23 409.97 359.96 C 407.37 362.47 403.96 364.47 400.30 364.63 C 391.56 363.55 382.74 363.46 373.98 362.66 C 374.18 359.22 374.49 355.80 374.92 352.38 C 379.34 354.52 384.32 353.16 388.99 353.10 C 395.90 352.60 403.24 353.64 409.75 350.72 C 414.05 348.48 415.07 343.15 414.82 338.72 C 411.80 340.85 411.91 345.12 409.52 347.62 C 406.89 348.08 404.39 346.05 401.97 345.15 C 405.34 341.86 408.39 338.28 411.33 334.60 Z" />
<path fill="#364a5a" opacity="1.00" d=" M 468.09 389.88 C 472.57 391.93 477.44 392.75 482.34 392.98 C 481.16 395.77 479.95 398.55 478.85 401.38 C 472.34 400.70 466.54 397.02 459.95 396.85 C 461.60 396.67 463.26 396.55 464.89 396.20 C 466.40 394.35 467.09 392.01 468.09 389.88 Z" />
</g>
<g id="#4c6173ff">
<path fill="#4c6173" opacity="1.00" d=" M 409.52 347.62 C 411.91 345.12 411.80 340.85 414.82 338.72 C 415.07 343.15 414.05 348.48 409.75 350.72 C 403.24 353.64 395.90 352.60 388.99 353.10 C 384.32 353.16 379.34 354.52 374.92 352.38 C 373.07 351.21 371.29 349.96 369.49 348.73 C 372.09 348.20 374.72 347.83 377.35 347.54 C 382.88 347.08 388.41 346.78 393.95 346.37 C 394.61 346.30 395.93 346.16 396.59 346.09 C 398.39 345.83 400.18 345.49 401.97 345.15 C 404.39 346.05 406.89 348.08 409.52 347.62 Z" />
</g>
<g id="#384c5cff">
<path fill="#384c5c" opacity="1.00" d=" M 486.04 342.99 C 489.69 346.15 493.61 349.26 498.50 350.15 C 498.41 349.64 498.24 348.62 498.15 348.11 C 502.74 348.31 507.20 347.09 511.23 344.94 C 508.73 348.24 504.51 349.09 500.68 349.84 C 494.70 362.65 489.62 375.87 483.88 388.79 C 482.51 389.01 481.15 389.19 479.79 389.31 C 477.74 389.24 475.74 388.82 473.75 388.46 C 475.18 385.31 477.02 382.25 477.54 378.79 C 477.70 374.82 475.73 371.07 476.00 367.10 C 476.73 363.52 478.59 360.33 479.92 356.96 C 481.82 352.25 483.58 347.46 486.04 342.99 M 482.06 367.82 C 483.23 367.79 484.42 367.76 485.61 367.74 C 487.66 363.44 490.23 359.36 491.78 354.84 C 492.48 353.38 490.77 352.51 490.03 351.57 C 485.49 355.75 483.70 362.06 482.06 367.82 Z" />
</g>
<g id="#23313eff">
<path fill="#23313e" opacity="1.00" d=" M 365.81 359.88 C 366.63 356.05 367.32 352.07 369.49 348.73 C 371.29 349.96 373.07 351.21 374.92 352.38 C 374.49 355.80 374.18 359.22 373.98 362.66 C 382.74 363.46 391.56 363.55 400.30 364.63 C 399.37 364.77 397.52 365.05 396.60 365.19 C 395.96 365.22 394.67 365.28 394.03 365.31 C 388.61 365.06 383.20 364.83 377.79 364.53 C 373.40 364.27 369.24 362.61 365.81 359.88 Z" />
<path fill="#23313e" opacity="1.00" d=" M 443.57 414.38 C 444.26 410.93 445.85 407.77 447.65 404.79 C 450.22 408.83 453.03 412.75 456.29 416.28 C 454.51 421.82 453.78 428.18 456.50 433.55 C 457.88 436.38 460.59 438.16 463.07 439.93 C 450.69 439.86 440.44 426.35 443.57 414.38 Z" />
<path fill="#23313e" opacity="1.00" d=" M 470.37 440.45 C 471.21 439.85 472.05 439.25 472.89 438.66 C 476.32 441.70 479.63 444.88 482.50 448.47 C 484.35 450.62 486.02 453.05 488.45 454.61 C 492.32 455.94 496.98 453.95 500.50 456.54 C 504.41 459.25 507.01 463.34 510.32 466.69 C 512.65 469.04 514.86 471.51 516.74 474.25 C 515.71 474.97 514.68 475.69 513.67 476.42 C 514.53 478.85 516.00 480.98 518.01 482.62 C 516.54 487.94 515.65 493.86 517.93 499.09 C 519.13 502.02 521.74 503.96 524.08 505.95 C 515.35 505.58 508.15 498.65 505.50 490.65 C 503.72 483.85 505.78 476.80 509.18 470.88 C 505.14 465.82 500.69 461.02 495.86 456.72 C 491.74 456.20 486.90 457.92 483.39 454.67 C 478.75 450.24 474.53 445.34 470.37 440.45 Z" />
</g>
<g id="#283946ff">
<path fill="#283946" opacity="1.00" d=" M 482.06 367.82 C 483.70 362.06 485.49 355.75 490.03 351.57 C 490.77 352.51 492.48 353.38 491.78 354.84 C 490.23 359.36 487.66 363.44 485.61 367.74 C 484.42 367.76 483.23 367.79 482.06 367.82 Z" />
</g>
<g id="#e3492dff">
<path fill="#e3492d" opacity="1.00" d=" M 377.79 364.53 C 383.20 364.83 388.61 365.06 394.03 365.31 C 394.11 387.20 394.01 409.10 394.09 431.00 C 394.10 434.65 393.98 438.34 393.09 441.91 C 391.27 449.08 386.02 456.07 378.44 457.57 C 376.52 456.74 374.63 455.86 372.72 455.04 C 371.41 449.96 374.95 445.64 376.02 440.91 C 376.84 438.14 376.56 435.24 376.11 432.44 C 378.01 431.85 379.91 431.27 381.81 430.68 C 381.08 425.24 380.16 419.82 379.53 414.36 C 378.40 403.96 378.71 393.49 378.05 383.06 C 377.78 376.89 377.43 370.70 377.79 364.53 Z" />
</g>
<g id="#455b6eff">
<path fill="#455b6e" opacity="1.00" d=" M 456.45 397.92 C 457.49 397.23 458.66 396.87 459.95 396.85 C 466.54 397.02 472.34 400.70 478.85 401.38 C 478.91 401.72 479.03 402.39 479.09 402.73 C 479.18 403.17 479.35 404.05 479.43 404.49 C 476.44 403.71 473.34 402.46 470.22 403.26 C 466.77 404.09 463.83 406.23 461.18 408.50 C 458.38 405.62 456.63 401.96 456.45 397.92 Z" />
</g>
<g id="#354858ff">
<path fill="#354858" opacity="1.00" d=" M 447.65 404.79 C 449.99 401.84 452.79 399.11 456.45 397.92 C 456.63 401.96 458.38 405.62 461.18 408.50 C 459.34 410.95 457.71 413.56 456.29 416.28 C 453.03 412.75 450.22 408.83 447.65 404.79 Z" />
</g>
<g id="#ed5b3bff">
<path fill="#ed5b3b" opacity="1.00" d=" M 461.18 408.50 C 463.83 406.23 466.77 404.09 470.22 403.26 C 473.34 402.46 476.44 403.71 479.43 404.49 C 481.12 407.61 483.71 410.40 484.25 414.03 C 484.65 417.25 484.51 420.51 484.27 423.75 C 482.36 429.89 478.42 435.30 472.89 438.66 C 472.05 439.25 471.21 439.85 470.37 440.45 C 467.98 439.88 465.51 439.74 463.07 439.93 C 460.59 438.16 457.88 436.38 456.50 433.55 C 453.78 428.18 454.51 421.82 456.29 416.28 C 457.71 413.56 459.34 410.95 461.18 408.50 M 469.38 410.41 C 465.70 411.65 462.93 414.86 461.49 418.39 C 459.48 423.33 460.16 431.10 466.17 432.77 C 476.07 434.11 482.63 420.45 477.26 412.75 C 475.52 410.32 472.15 409.44 469.38 410.41 Z" />
<path fill="#ed5b3b" opacity="1.00" d=" M 469.38 413.36 C 473.40 411.73 477.11 416.14 476.50 420.00 C 476.78 425.20 471.44 431.84 465.93 429.15 C 460.35 425.07 463.48 415.53 469.38 413.36 Z" />
</g>
<g id="#5a4c4a6b">
<path fill="#5a4c4a" opacity="0.42" d=" M 479.09 402.73 C 481.70 404.96 483.80 407.79 485.08 410.98 C 486.15 414.82 485.03 418.91 485.90 422.78 C 487.86 425.54 490.13 428.08 492.38 430.62 C 494.14 432.64 496.70 434.31 497.01 437.21 C 492.35 433.12 488.62 428.13 484.27 423.75 C 484.51 420.51 484.65 417.25 484.25 414.03 C 483.71 410.40 481.12 407.61 479.43 404.49 C 479.35 404.05 479.18 403.17 479.09 402.73 Z" />
</g>
<g id="#344859ff">
<path fill="#344859" opacity="1.00" d=" M 469.38 410.41 C 472.15 409.44 475.52 410.32 477.26 412.75 C 482.63 420.45 476.07 434.11 466.17 432.77 C 460.16 431.10 459.48 423.33 461.49 418.39 C 462.93 414.86 465.70 411.65 469.38 410.41 M 469.38 413.36 C 463.48 415.53 460.35 425.07 465.93 429.15 C 471.44 431.84 476.78 425.20 476.50 420.00 C 477.11 416.14 473.40 411.73 469.38 413.36 Z" />
</g>
<g id="#f3f3f3ff">
<path fill="#f3f3f3" opacity="1.00" d=" M 360.08 414.44 C 366.52 413.73 373.20 412.23 379.53 414.36 C 380.16 419.82 381.08 425.24 381.81 430.68 C 379.91 431.27 378.01 431.85 376.11 432.44 L 375.24 432.72 C 373.88 433.13 372.53 433.52 371.18 433.94 C 359.48 436.90 347.83 440.05 336.12 443.02 C 335.32 442.93 333.71 442.77 332.90 442.69 C 337.68 440.73 342.81 439.87 347.62 438.01 C 348.52 436.42 349.61 434.86 351.40 434.23 C 355.05 432.65 357.80 429.70 360.65 427.02 C 356.52 425.27 351.99 426.12 347.66 425.62 C 342.75 425.13 337.88 426.54 332.96 426.03 C 329.16 425.66 325.33 425.49 321.52 425.92 C 316.50 426.48 311.43 425.40 306.44 426.35 C 300.37 427.55 294.18 427.74 288.09 428.73 C 283.48 429.48 278.59 429.07 274.27 431.16 C 266.23 434.91 257.98 438.18 250.02 442.11 C 246.69 443.89 243.65 446.19 240.24 447.84 C 236.49 449.58 233.58 452.73 229.67 454.14 C 224.67 456.15 220.19 459.20 215.90 462.42 C 214.43 463.63 212.44 463.62 210.65 463.88 C 210.47 465.06 210.30 466.25 210.13 467.44 C 211.66 467.48 213.18 467.53 214.72 467.58 C 214.37 468.34 214.02 469.11 213.68 469.89 C 218.06 470.24 222.43 471.74 226.85 470.88 C 229.91 470.33 233.02 470.06 236.14 469.98 C 226.01 473.03 215.73 475.50 205.53 478.30 C 195.29 480.90 185.22 484.11 174.92 486.46 C 174.42 484.64 173.95 482.83 173.57 480.99 C 173.40 479.70 173.25 478.40 173.14 477.11 C 173.81 475.29 174.58 473.38 176.17 472.17 C 181.92 467.54 189.42 465.82 195.10 461.09 C 199.94 457.08 206.08 455.33 211.66 452.65 C 227.11 445.96 242.24 438.58 257.49 431.45 C 265.37 427.76 272.85 422.41 281.77 421.70 C 286.68 421.17 291.58 420.40 296.53 420.41 C 301.31 420.53 305.92 418.72 310.71 419.16 C 315.03 419.62 319.13 417.50 323.45 418.08 C 335.62 416.58 347.91 416.07 360.08 414.44 Z" />
</g>
<g id="#354859ff">
<path fill="#354859" opacity="1.00" d=" M 484.27 423.75 C 488.62 428.13 492.35 433.12 497.01 437.21 C 498.84 439.00 500.40 441.03 502.13 442.93 C 508.18 449.48 514.06 456.19 520.11 462.74 C 521.17 464.42 522.69 466.06 522.93 468.10 C 522.41 470.40 521.79 472.75 522.81 475.04 C 521.06 477.46 519.46 480.00 518.01 482.62 C 516.00 480.98 514.53 478.85 513.67 476.42 C 514.68 475.69 515.71 474.97 516.74 474.25 C 514.86 471.51 512.65 469.04 510.32 466.69 C 507.01 463.34 504.41 459.25 500.50 456.54 C 496.98 453.95 492.32 455.94 488.45 454.61 C 486.02 453.05 484.35 450.62 482.50 448.47 C 479.63 444.88 476.32 441.70 472.89 438.66 C 478.42 435.30 482.36 429.89 484.27 423.75 M 483.16 434.90 C 483.33 435.49 483.68 436.67 483.85 437.26 C 483.37 437.22 482.40 437.13 481.92 437.09 C 482.22 440.87 484.70 444.13 487.84 446.10 C 487.99 444.71 488.09 443.33 488.14 441.95 C 489.16 443.09 489.18 444.77 490.00 446.06 C 491.29 446.48 492.64 446.67 493.99 446.91 C 493.75 441.12 488.64 436.17 483.16 434.90 Z" />
</g>
<g id="#f8f9f9ff">
<path fill="#f8f9f9" opacity="1.00" d=" M 523.49 442.47 C 525.89 436.46 525.86 429.92 526.59 423.59 C 528.71 425.81 528.08 428.87 528.41 431.64 C 529.36 433.17 530.44 434.62 531.25 436.25 C 529.99 436.39 528.74 436.51 527.48 436.62 C 527.12 439.36 526.73 442.10 526.35 444.84 C 525.15 445.68 523.94 446.51 522.79 447.41 C 522.21 448.24 521.65 449.10 521.13 449.97 C 522.03 447.50 522.68 444.96 523.49 442.47 Z" />
</g>
<g id="#f9f9f9ff">
<path fill="#f9f9f9" opacity="1.00" d=" M 306.44 426.35 C 311.43 425.40 316.50 426.48 321.52 425.92 C 325.33 425.49 329.16 425.66 332.96 426.03 C 337.88 426.54 342.75 425.13 347.66 425.62 C 351.99 426.12 356.52 425.27 360.65 427.02 C 357.80 429.70 355.05 432.65 351.40 434.23 C 349.61 434.86 348.52 436.42 347.62 438.01 C 342.81 439.87 337.68 440.73 332.90 442.69 C 333.71 442.77 335.32 442.93 336.12 443.02 C 302.86 452.26 269.64 461.66 236.14 469.98 C 233.02 470.06 229.91 470.33 226.85 470.88 C 222.43 471.74 218.06 470.24 213.68 469.89 C 214.02 469.11 214.37 468.34 214.72 467.58 C 213.18 467.53 211.66 467.48 210.13 467.44 C 210.30 466.25 210.47 465.06 210.65 463.88 C 212.44 463.62 214.43 463.63 215.90 462.42 C 220.19 459.20 224.67 456.15 229.67 454.14 C 233.58 452.73 236.49 449.58 240.24 447.84 C 243.65 446.19 246.69 443.89 250.02 442.11 C 257.98 438.18 266.23 434.91 274.27 431.16 C 278.59 429.07 283.48 429.48 288.09 428.73 C 294.18 427.74 300.37 427.55 306.44 426.35 Z" />
</g>
<g id="#edebebff">
<path fill="#edebeb" opacity="1.00" d=" M 132.87 432.78 C 137.43 430.70 142.50 430.04 147.46 430.60 C 147.67 434.38 147.64 438.17 147.60 441.96 C 136.75 445.37 125.79 448.57 115.41 453.29 C 107.77 456.02 100.81 460.26 93.28 463.27 C 85.49 466.32 78.31 470.73 71.41 475.42 C 69.26 476.65 69.97 479.47 70.44 481.43 C 71.05 484.14 72.98 486.32 75.39 487.61 C 90.58 496.11 107.16 501.63 123.04 508.64 C 122.26 508.88 120.70 509.34 119.92 509.58 C 115.24 509.25 111.42 506.05 106.88 505.12 C 101.72 503.97 96.77 502.05 91.91 500.02 C 89.51 499.01 86.72 499.05 84.56 497.47 C 81.80 495.53 78.46 494.48 75.09 494.50 C 69.50 494.28 63.39 492.80 59.50 488.48 C 56.39 485.28 53.16 482.21 50.06 479.00 C 48.06 477.20 48.83 474.33 48.75 471.97 C 48.85 469.03 51.54 467.26 53.56 465.54 C 58.34 461.94 62.92 457.41 69.07 456.50 C 72.72 456.45 76.54 456.65 79.86 454.85 C 83.75 452.82 88.06 451.77 92.06 450.01 C 95.34 447.30 99.65 446.52 103.04 444.01 C 106.12 441.54 110.48 442.61 113.82 440.69 C 119.76 437.15 126.56 435.50 132.87 432.78 Z" />
</g>
<g id="#b02f19ff">
<path fill="#b02f19" opacity="1.00" d=" M 371.18 433.94 C 372.53 433.52 373.88 433.13 375.24 432.72 C 374.87 433.86 374.53 435.00 374.21 436.15 C 365.68 441.34 356.03 444.10 346.84 447.82 C 329.18 455.06 310.97 460.86 293.42 468.39 C 284.25 471.55 275.41 475.78 265.94 477.98 C 247.69 480.92 229.47 484.04 211.25 487.17 C 197.30 488.89 183.53 492.38 169.41 492.38 C 168.18 487.95 167.87 483.34 168.13 478.77 C 168.98 482.05 168.94 487.08 173.06 487.96 C 177.08 488.95 181.24 487.89 185.22 487.20 C 211.25 481.63 237.30 476.19 263.25 470.30 C 273.74 468.03 283.72 464.01 294.01 461.03 C 305.53 457.17 317.26 453.98 328.65 449.75 C 339.85 446.41 350.88 442.56 362.02 439.05 C 365.41 438.02 368.47 436.19 371.18 433.94 Z" />
</g>
<g id="#d03a1fff">
<path fill="#d03a1f" opacity="1.00" d=" M 375.24 432.72 L 376.11 432.44 C 376.56 435.24 376.84 438.14 376.02 440.91 C 374.95 445.64 371.41 449.96 372.72 455.04 C 374.63 455.86 376.52 456.74 378.44 457.57 C 378.14 457.71 377.54 457.98 377.24 458.11 C 355.96 464.08 334.63 469.89 313.25 475.50 C 311.39 475.08 309.54 474.59 307.70 474.10 C 308.80 473.44 309.90 472.77 311.01 472.10 C 311.64 470.79 311.94 469.11 313.33 468.37 C 329.54 459.39 346.80 452.59 363.68 445.03 C 366.67 443.63 370.01 442.75 372.59 440.61 C 373.35 439.21 373.74 437.66 374.21 436.15 C 374.53 435.00 374.87 433.86 375.24 432.72 Z" />
</g>
<g id="#9c2a17ff">
<path fill="#9c2a17" opacity="1.00" d=" M 336.12 443.02 C 347.83 440.05 359.48 436.90 371.18 433.94 C 368.47 436.19 365.41 438.02 362.02 439.05 C 350.88 442.56 339.85 446.41 328.65 449.75 C 317.26 453.98 305.53 457.17 294.01 461.03 C 283.72 464.01 273.74 468.03 263.25 470.30 C 237.30 476.19 211.25 481.63 185.22 487.20 C 181.24 487.89 177.08 488.95 173.06 487.96 C 168.94 487.08 168.98 482.05 168.13 478.77 C 168.22 474.74 168.10 470.72 167.92 466.70 C 168.52 459.41 168.35 452.08 168.41 444.78 C 169.67 455.42 168.06 466.19 169.31 476.83 C 169.28 479.29 171.82 479.99 173.57 480.99 C 173.95 482.83 174.42 484.64 174.92 486.46 C 185.22 484.11 195.29 480.90 205.53 478.30 C 215.73 475.50 226.01 473.03 236.14 469.98 C 269.64 461.66 302.86 452.26 336.12 443.02 Z" />
</g>
<g id="#202f3bff">
<path fill="#202f3b" opacity="1.00" d=" M 483.16 434.90 C 488.64 436.17 493.75 441.12 493.99 446.91 C 492.64 446.67 491.29 446.48 490.00 446.06 C 489.18 444.77 489.16 443.09 488.14 441.95 C 486.75 440.35 485.27 438.83 483.85 437.26 C 483.68 436.67 483.33 435.49 483.16 434.90 Z" />
</g>
<g id="#c13319ff">
<path fill="#c13319" opacity="1.00" d=" M 346.84 447.82 C 356.03 444.10 365.68 441.34 374.21 436.15 C 373.74 437.66 373.35 439.21 372.59 440.61 C 370.01 442.75 366.67 443.63 363.68 445.03 C 346.80 452.59 329.54 459.39 313.33 468.37 C 311.94 469.11 311.64 470.79 311.01 472.10 C 309.90 472.77 308.80 473.44 307.70 474.10 C 309.54 474.59 311.39 475.08 313.25 475.50 C 287.95 483.07 262.15 488.99 236.93 496.84 C 236.12 496.92 234.49 497.07 233.68 497.15 C 234.46 494.72 236.77 493.65 238.90 492.66 C 234.36 491.74 229.79 490.44 225.11 490.87 C 210.24 492.59 195.26 493.33 180.43 495.53 C 176.56 495.90 172.41 496.85 168.67 495.34 C 167.31 492.80 167.12 489.86 166.94 487.06 C 166.72 480.27 166.20 473.36 167.92 466.70 C 168.10 470.72 168.22 474.74 168.13 478.77 C 167.87 483.34 168.18 487.95 169.41 492.38 C 183.53 492.38 197.30 488.89 211.25 487.17 C 229.47 484.04 247.69 480.92 265.94 477.98 C 275.41 475.78 284.25 471.55 293.42 468.39 C 310.97 460.86 329.18 455.06 346.84 447.82 Z" />
</g>
<g id="#ce381dff">
<path fill="#ce381d" opacity="1.00" d=" M 165.83 469.04 C 167.83 459.47 165.65 449.53 168.10 440.05 C 168.17 441.62 168.30 443.20 168.41 444.78 C 168.35 452.08 168.52 459.41 167.92 466.70 C 166.20 473.36 166.72 480.27 166.94 487.06 C 167.12 489.86 167.31 492.80 168.67 495.34 C 172.41 496.85 176.56 495.90 180.43 495.53 C 195.26 493.33 210.24 492.59 225.11 490.87 C 229.79 490.44 234.36 491.74 238.90 492.66 C 236.77 493.65 234.46 494.72 233.68 497.15 C 212.26 503.57 190.55 509.02 169.00 514.99 C 169.85 512.71 170.66 510.42 171.43 508.11 C 167.42 503.75 165.77 497.88 165.78 492.05 C 165.84 484.37 164.12 476.64 165.83 469.04 Z" />
</g>
<g id="#e2e0e0ff">
<path fill="#e2e0e0" opacity="1.00" d=" M 115.41 453.29 C 125.79 448.57 136.75 445.37 147.60 441.96 C 147.60 445.27 147.56 448.57 147.55 451.88 C 139.43 453.69 131.66 456.71 124.09 460.10 C 109.07 466.09 94.45 473.29 81.02 482.32 C 84.97 487.84 91.24 490.81 97.11 493.81 C 104.30 497.35 111.51 500.88 118.87 504.10 C 126.22 507.38 133.23 511.46 140.89 514.04 C 143.86 515.03 146.61 516.54 149.29 518.17 C 147.78 518.09 146.27 517.99 144.77 517.87 C 141.67 517.88 139.14 515.80 136.11 515.57 C 133.34 515.40 131.23 513.32 128.66 512.50 C 125.72 511.59 122.82 510.59 119.92 509.58 C 120.70 509.34 122.26 508.88 123.04 508.64 C 107.16 501.63 90.58 496.11 75.39 487.61 C 72.98 486.32 71.05 484.14 70.44 481.43 C 69.97 479.47 69.26 476.65 71.41 475.42 C 78.31 470.73 85.49 466.32 93.28 463.27 C 100.81 460.26 107.77 456.02 115.41 453.29 Z" />
</g>
<g id="#d3d1d0ff">
<path fill="#d3d1d0" opacity="1.00" d=" M 124.09 460.10 C 131.66 456.71 139.43 453.69 147.55 451.88 C 147.60 460.83 147.58 469.78 147.45 478.74 C 141.87 481.78 139.15 487.87 136.48 493.31 C 135.21 499.62 140.66 504.33 144.51 508.49 C 147.69 512.36 153.44 513.48 155.50 518.31 C 153.42 518.35 151.35 518.31 149.29 518.17 C 146.61 516.54 143.86 515.03 140.89 514.04 C 133.23 511.46 126.22 507.38 118.87 504.10 C 111.51 500.88 104.30 497.35 97.11 493.81 C 91.24 490.81 84.97 487.84 81.02 482.32 C 94.45 473.29 109.07 466.09 124.09 460.10 Z" />
</g>
<g id="#496072ff">
<path fill="#496072" opacity="1.00" d=" M 520.11 462.74 C 523.40 462.90 526.71 463.16 529.92 463.95 C 534.22 465.11 538.81 466.90 541.14 470.97 C 538.35 470.27 535.52 469.10 532.60 469.54 C 528.80 470.18 525.63 472.57 522.81 475.04 C 521.79 472.75 522.41 470.40 522.93 468.10 C 522.69 466.06 521.17 464.42 520.11 462.74 Z" />
</g>
<g id="#ec5a3bff">
<path fill="#ec5a3b" opacity="1.00" d=" M 532.60 469.54 C 535.52 469.10 538.35 470.27 541.14 470.97 C 549.98 481.34 545.44 498.61 533.72 504.72 C 530.77 506.33 527.29 505.67 524.08 505.95 C 521.74 503.96 519.13 502.02 517.93 499.09 C 515.65 493.86 516.54 487.94 518.01 482.62 C 519.46 480.00 521.06 477.46 522.81 475.04 C 525.63 472.57 528.80 470.18 532.60 469.54 M 532.39 476.43 C 524.15 478.04 519.40 489.05 523.77 496.19 C 525.75 499.60 530.68 499.65 533.72 497.72 C 539.13 494.23 542.12 486.67 539.46 480.61 C 538.36 477.85 535.37 475.91 532.39 476.43 Z" />
<path fill="#ec5a3b" opacity="1.00" d=" M 532.30 479.42 C 536.94 479.11 538.89 484.90 537.56 488.63 C 536.64 493.07 531.50 498.07 526.95 495.04 C 522.02 490.30 525.57 480.32 532.30 479.42 Z" />
</g>
<g id="#334657ff">
<path fill="#334657" opacity="1.00" d=" M 532.39 476.43 C 535.37 475.91 538.36 477.85 539.46 480.61 C 542.12 486.67 539.13 494.23 533.72 497.72 C 530.68 499.65 525.75 499.60 523.77 496.19 C 519.40 489.05 524.15 478.04 532.39 476.43 M 532.30 479.42 C 525.57 480.32 522.02 490.30 526.95 495.04 C 531.50 498.07 536.64 493.07 537.56 488.63 C 538.89 484.90 536.94 479.11 532.30 479.42 Z" />
</g>
<g id="#c6c1c1ff">
<path fill="#c6c1c1" opacity="1.00" d=" M 136.48 493.31 C 139.15 487.87 141.87 481.78 147.45 478.74 C 147.68 485.79 147.32 492.84 147.59 499.88 C 147.76 504.90 150.33 509.71 154.60 512.41 C 156.15 513.57 157.81 514.58 159.49 515.57 C 158.40 516.81 157.18 517.98 155.50 518.31 C 153.44 513.48 147.69 512.36 144.51 508.49 C 140.66 504.33 135.21 499.62 136.48 493.31 Z" />
</g>
</svg>
