<?xml version="1.0" encoding="UTF-8" ?>
<!DOCTYPE svg PUBLIC "-//W3C//DTD SVG 1.1//EN" "http://www.w3.org/Graphics/SVG/1.1/DTD/svg11.dtd">
<svg width="1264pt" height="1028pt" viewBox="0 0 1264 1028" version="1.1" xmlns="http://www.w3.org/2000/svg">
<g id="#f88373ff">
<path fill="#f88373" opacity="1.00" d=" M 190.36 136.79 C 199.57 133.60 207.82 126.35 218.01 127.27 C 229.72 126.83 241.36 128.53 252.90 130.34 C 295.37 137.91 337.52 147.12 379.88 155.25 C 479.56 174.88 578.03 200.13 677.01 222.88 C 726.35 234.22 775.55 246.18 824.97 257.18 C 860.17 265.79 895.06 275.65 930.10 284.87 C 962.50 294.37 994.84 304.00 1027.17 313.73 C 1028.45 314.23 1030.00 314.37 1031.05 315.39 C 1033.15 318.09 1036.56 318.91 1039.65 319.97 C 1040.29 321.58 1041.23 323.03 1042.24 324.44 C 1041.24 324.00 1040.25 323.59 1039.27 323.17 C 1034.74 327.81 1028.02 327.75 1022.84 331.13 C 1005.73 324.50 987.94 319.88 970.44 314.48 C 941.53 306.02 912.79 296.94 883.61 289.44 C 849.12 280.39 814.84 270.49 779.94 263.06 C 676.74 239.24 573.70 214.75 470.63 190.39 C 397.57 173.40 323.88 159.41 250.36 144.63 C 230.55 140.74 210.53 137.84 190.36 136.79 Z" />
</g>
<g id="#ef5034ff">
<path fill="#ef5034" opacity="1.00" d=" M 183.35 145.37 C 184.83 142.04 186.09 137.31 190.36 136.79 C 210.53 137.84 230.55 140.74 250.36 144.63 C 323.88 159.41 397.57 173.40 470.63 190.39 C 573.70 214.75 676.74 239.24 779.94 263.06 C 814.84 270.49 849.12 280.39 883.61 289.44 C 912.79 296.94 941.53 306.02 970.44 314.48 C 987.94 319.88 1005.73 324.50 1022.84 331.13 C 1032.52 334.99 1042.45 338.47 1051.17 344.33 C 1039.56 352.35 1028.61 361.30 1017.02 369.36 C 1005.17 361.53 991.42 357.46 978.11 352.92 C 916.93 333.94 855.24 316.61 793.16 300.84 C 670.59 273.17 548.72 242.52 426.17 214.77 C 390.18 206.65 353.91 199.83 317.81 192.26 C 288.30 186.52 258.98 179.23 228.96 176.72 C 225.75 176.60 222.40 176.18 219.31 177.22 C 216.14 181.06 214.81 186.03 213.67 190.79 C 209.91 207.54 208.64 224.74 207.53 241.84 C 204.71 279.82 204.73 317.93 203.95 356.00 C 203.52 418.37 206.10 480.69 208.14 543.01 C 209.38 565.17 211.43 587.27 213.55 609.36 C 214.87 620.42 215.69 631.86 220.61 642.05 C 209.66 651.70 200.13 663.28 188.18 671.61 C 185.23 666.14 184.30 659.95 183.19 653.93 C 175.28 593.74 174.17 533.01 172.44 472.41 C 170.04 412.31 170.62 352.11 171.19 291.98 C 172.14 255.59 173.25 219.19 176.65 182.95 C 178.09 170.31 179.46 157.53 183.35 145.37 Z" />
</g>
<g id="#253340ff">
<path fill="#253340" opacity="1.00" d=" M 219.31 177.22 C 222.40 176.18 225.75 176.60 228.96 176.72 C 258.98 179.23 288.30 186.52 317.81 192.26 C 353.91 199.83 390.18 206.65 426.17 214.77 C 548.72 242.52 670.59 273.17 793.16 300.84 C 855.24 316.61 916.93 333.94 978.11 352.92 C 991.42 357.46 1005.17 361.53 1017.02 369.36 C 1028.61 361.30 1039.56 352.35 1051.17 344.33 C 1058.21 340.61 1065.45 337.27 1072.45 333.47 C 1073.00 334.27 1073.57 335.06 1074.16 335.85 C 1066.96 339.40 1059.71 342.87 1052.66 346.70 C 1041.04 354.73 1029.55 363.04 1018.40 371.72 C 1029.41 407.74 1029.45 445.89 1034.04 483.03 C 1039.79 569.21 1042.42 655.65 1040.49 742.02 C 1039.89 770.10 1038.41 798.20 1035.43 826.13 C 1033.96 834.56 1033.74 844.33 1027.88 851.04 C 1019.43 853.18 1010.59 850.85 1002.14 849.66 C 971.07 843.83 940.12 837.30 909.17 830.81 C 808.66 807.36 708.02 784.35 607.99 758.90 C 536.19 739.95 464.25 721.52 392.80 701.26 C 361.29 691.87 329.78 682.44 298.34 672.79 C 272.72 664.02 246.32 656.88 222.28 644.22 C 211.87 653.36 202.35 663.50 192.17 672.91 C 190.85 672.43 189.52 671.99 188.18 671.61 C 200.13 663.28 209.66 651.70 220.61 642.05 C 215.69 631.86 214.87 620.42 213.55 609.36 C 211.43 587.27 209.38 565.17 208.14 543.01 C 206.10 480.69 203.52 418.37 203.95 356.00 C 204.73 317.93 204.71 279.82 207.53 241.84 C 208.64 224.74 209.91 207.54 213.67 190.79 C 214.81 186.03 216.14 181.06 219.31 177.22 M 360.68 412.66 C 353.92 417.15 353.65 426.09 351.17 433.10 C 348.10 441.27 352.89 449.31 356.63 456.31 C 364.62 462.45 372.40 469.08 381.53 473.50 C 384.63 476.37 388.15 478.81 390.94 482.00 C 377.18 488.95 362.27 479.44 348.44 477.53 C 340.57 478.33 338.84 488.68 341.09 494.88 C 343.83 499.36 343.98 505.26 348.20 508.81 C 353.83 514.41 362.35 514.15 368.90 518.06 C 374.31 520.99 380.84 517.14 386.04 520.60 C 391.60 518.60 397.78 519.48 403.23 517.19 C 409.93 513.64 416.19 508.59 419.88 501.87 C 423.84 493.14 420.50 483.85 418.63 475.11 C 412.61 465.02 409.14 452.83 398.71 446.10 C 418.68 444.75 438.70 449.54 458.56 446.58 C 461.57 442.10 462.99 436.28 460.72 431.17 C 458.70 426.91 459.65 421.86 457.25 417.75 C 446.75 412.02 434.30 414.03 422.90 411.45 C 413.06 412.49 409.64 401.91 405.05 395.42 C 389.36 398.06 373.34 402.63 360.68 412.66 M 509.86 417.77 C 502.91 423.22 495.86 429.05 487.57 432.57 C 482.47 435.82 478.24 440.45 472.54 442.69 C 452.59 458.76 432.72 479.88 431.80 507.01 C 433.53 518.53 438.57 530.77 449.01 536.96 C 455.00 540.80 462.41 540.50 468.84 543.24 C 475.75 545.79 482.97 542.65 490.01 543.99 C 495.86 544.25 501.62 542.85 507.15 541.11 C 511.20 539.87 515.80 540.88 519.52 538.56 C 523.49 536.12 527.21 533.22 531.62 531.59 C 539.35 528.85 543.33 520.77 545.34 513.35 C 547.91 505.04 544.08 496.56 545.63 488.15 C 542.56 477.21 541.02 465.90 538.09 454.93 C 537.12 450.96 538.21 446.73 540.57 443.46 C 543.37 439.83 541.09 435.17 540.62 431.14 C 538.35 427.88 534.82 425.17 534.30 420.97 C 533.52 415.59 527.23 414.69 523.77 411.53 C 518.62 412.99 515.83 419.64 509.86 417.77 M 629.23 441.28 C 623.38 438.55 621.02 445.55 616.37 447.33 C 612.82 448.97 610.45 452.42 606.68 453.71 C 599.43 456.25 594.68 462.99 587.54 465.73 C 567.80 481.63 548.34 502.30 546.74 529.02 C 548.17 543.56 556.46 559.79 571.88 563.18 C 579.06 563.96 585.60 568.11 592.98 567.29 C 601.67 565.88 610.63 568.40 619.09 565.08 C 624.44 562.61 630.97 564.51 635.83 560.81 C 639.28 558.49 642.75 556.12 646.66 554.62 C 654.38 551.86 658.35 543.77 660.33 536.35 C 662.85 528.03 659.07 519.56 660.61 511.15 C 657.46 499.56 655.59 487.65 652.71 475.98 C 651.51 469.50 659.11 465.15 656.45 458.69 C 656.95 452.48 649.83 449.86 649.27 443.98 C 648.47 438.64 642.20 437.74 638.74 434.60 C 635.10 436.10 632.12 438.69 629.23 441.28 M 694.32 452.00 C 689.43 458.60 685.05 466.19 687.81 474.61 C 683.65 475.65 682.78 480.26 682.34 483.92 C 682.58 494.99 682.31 506.30 678.93 516.93 C 672.79 526.90 668.95 538.32 662.26 548.09 C 660.87 557.20 658.97 567.53 664.19 575.83 C 666.74 579.15 670.81 582.95 675.34 581.48 C 694.24 576.94 713.77 574.81 732.11 568.07 C 743.96 563.75 755.56 557.50 763.64 547.58 C 770.04 534.91 767.16 519.56 760.39 507.64 C 753.33 495.50 742.82 485.90 733.07 475.99 C 719.52 469.03 708.11 458.46 694.32 452.00 M 786.86 525.86 C 786.31 528.68 783.59 528.72 781.29 528.49 C 774.01 534.25 768.76 542.11 766.30 550.97 C 766.58 553.44 766.79 556.01 765.16 558.11 C 766.42 559.54 768.88 560.71 768.11 563.02 C 767.18 570.63 761.53 576.41 759.86 583.77 C 757.79 588.90 763.47 593.53 761.40 598.72 C 767.12 603.49 774.09 602.39 781.05 602.90 C 789.88 595.28 793.51 583.71 795.70 572.65 C 812.55 572.48 829.93 573.73 846.13 568.12 C 850.85 566.30 855.70 564.00 859.08 560.13 C 867.84 546.90 865.70 529.37 859.35 515.63 C 852.71 507.18 842.04 502.81 831.60 501.56 C 813.14 496.61 793.75 508.70 786.86 525.86 M 883.21 521.42 C 881.29 528.00 876.39 533.26 873.55 539.34 C 872.71 548.42 866.18 555.60 862.82 563.84 C 859.00 571.84 858.52 580.89 854.95 588.97 C 855.22 597.72 855.63 606.59 857.79 615.12 C 858.55 621.31 866.26 621.10 871.00 621.29 C 878.47 621.17 883.48 614.03 883.11 606.96 C 883.71 584.51 895.68 564.86 906.97 546.25 C 902.60 543.00 905.71 537.44 906.10 533.08 C 901.34 528.66 904.53 521.65 901.69 516.33 C 894.91 513.88 888.82 518.27 883.21 521.42 Z" />
</g>
<g id="#f5705cff">
<path fill="#f5705c" opacity="1.00" d=" M 1031.05 315.39 C 1045.32 319.81 1060.61 324.01 1072.45 333.47 C 1065.45 337.27 1058.21 340.61 1051.17 344.33 C 1042.45 338.47 1032.52 334.99 1022.84 331.13 C 1028.02 327.75 1034.74 327.81 1039.27 323.17 C 1040.25 323.59 1041.24 324.00 1042.24 324.44 C 1041.23 323.03 1040.29 321.58 1039.65 319.97 C 1036.56 318.91 1033.15 318.09 1031.05 315.39 Z" />
</g>
<g id="#c54a38ff">
<path fill="#c54a38" opacity="1.00" d=" M 1052.66 346.70 C 1059.71 342.87 1066.96 339.40 1074.16 335.85 C 1076.61 340.06 1077.10 345.03 1078.35 349.67 C 1086.03 387.99 1087.49 427.16 1091.69 465.94 C 1095.52 534.56 1098.95 603.24 1098.43 672.00 C 1098.12 720.65 1099.44 769.37 1096.09 817.94 C 1094.40 834.91 1094.60 852.17 1091.04 868.88 C 1085.58 876.08 1076.19 878.46 1068.83 883.23 C 1072.74 855.65 1073.68 827.79 1075.33 800.02 C 1078.53 691.33 1075.87 582.51 1069.08 474.01 C 1064.34 431.51 1063.48 388.29 1052.66 346.70 Z" />
</g>
<g id="#eb4c30ff">
<path fill="#eb4c30" opacity="1.00" d=" M 1018.40 371.72 C 1029.55 363.04 1041.04 354.73 1052.66 346.70 C 1063.48 388.29 1064.34 431.51 1069.08 474.01 C 1075.87 582.51 1078.53 691.33 1075.33 800.02 C 1073.68 827.79 1072.74 855.65 1068.83 883.23 C 1067.62 888.90 1065.45 894.44 1061.99 899.13 C 1045.40 902.96 1028.33 897.05 1011.90 894.34 C 986.20 889.53 960.65 883.97 935.00 878.85 C 825.16 853.20 715.17 828.06 605.86 800.21 C 539.58 782.42 473.07 765.48 407.02 746.86 C 363.91 735.12 321.37 721.44 278.62 708.49 C 252.08 699.24 224.71 691.96 199.40 679.55 C 196.41 678.03 193.18 676.67 191.08 673.93 L 192.17 672.91 C 202.35 663.50 211.87 653.36 222.28 644.22 C 246.32 656.88 272.72 664.02 298.34 672.79 C 329.78 682.44 361.29 691.87 392.80 701.26 C 464.25 721.52 536.19 739.95 607.99 758.90 C 708.02 784.35 808.66 807.36 909.17 830.81 C 940.12 837.30 971.07 843.83 1002.14 849.66 C 1010.59 850.85 1019.43 853.18 1027.88 851.04 C 1033.74 844.33 1033.96 834.56 1035.43 826.13 C 1038.41 798.20 1039.89 770.10 1040.49 742.02 C 1042.42 655.65 1039.79 569.21 1034.04 483.03 C 1029.45 445.89 1029.41 407.74 1018.40 371.72 Z" />
</g>
<g id="#ffd433ff">
<path fill="#ffd433" opacity="1.00" d=" M 360.68 412.66 C 373.34 402.63 389.36 398.06 405.05 395.42 C 409.64 401.91 413.06 412.49 422.90 411.45 C 434.30 414.03 446.75 412.02 457.25 417.75 C 459.65 421.86 458.70 426.91 460.72 431.17 C 462.99 436.28 461.57 442.10 458.56 446.58 C 438.70 449.54 418.68 444.75 398.71 446.10 C 409.14 452.83 412.61 465.02 418.63 475.11 C 420.50 483.85 423.84 493.14 419.88 501.87 C 416.19 508.59 409.93 513.64 403.23 517.19 C 397.78 519.48 391.60 518.60 386.04 520.60 C 380.84 517.14 374.31 520.99 368.90 518.06 C 362.35 514.15 353.83 514.41 348.20 508.81 C 343.98 505.26 343.83 499.36 341.09 494.88 C 338.84 488.68 340.57 478.33 348.44 477.53 C 362.27 479.44 377.18 488.95 390.94 482.00 C 388.15 478.81 384.63 476.37 381.53 473.50 C 372.40 469.08 364.62 462.45 356.63 456.31 C 352.89 449.31 348.10 441.27 351.17 433.10 C 353.65 426.09 353.92 417.15 360.68 412.66 Z" />
<path fill="#ffd433" opacity="1.00" d=" M 509.86 417.77 C 515.83 419.64 518.62 412.99 523.77 411.53 C 527.23 414.69 533.52 415.59 534.30 420.97 C 534.82 425.17 538.35 427.88 540.62 431.14 C 541.09 435.17 543.37 439.83 540.57 443.46 C 538.21 446.73 537.12 450.96 538.09 454.93 C 541.02 465.90 542.56 477.21 545.63 488.15 C 544.08 496.56 547.91 505.04 545.34 513.35 C 543.33 520.77 539.35 528.85 531.62 531.59 C 527.21 533.22 523.49 536.12 519.52 538.56 C 515.80 540.88 511.20 539.87 507.15 541.11 C 501.62 542.85 495.86 544.25 490.01 543.99 C 482.97 542.65 475.75 545.79 468.84 543.24 C 462.41 540.50 455.00 540.80 449.01 536.96 C 438.57 530.77 433.53 518.53 431.80 507.01 C 432.72 479.88 452.59 458.76 472.54 442.69 C 478.24 440.45 482.47 435.82 487.57 432.57 C 495.86 429.05 502.91 423.22 509.86 417.77 M 474.68 487.64 C 470.76 492.39 465.90 497.59 465.62 503.98 C 470.58 508.55 477.78 507.60 483.98 507.91 C 491.37 507.63 499.05 507.36 505.73 503.79 C 510.56 502.25 516.75 499.09 515.78 493.02 C 514.97 483.62 512.31 474.43 510.87 465.09 C 507.87 466.76 504.60 466.53 501.82 464.54 C 491.85 471.03 481.71 477.89 474.68 487.64 Z" />
<path fill="#ffd433" opacity="1.00" d=" M 629.23 441.28 C 632.12 438.69 635.10 436.10 638.74 434.60 C 642.20 437.74 648.47 438.64 649.27 443.98 C 649.83 449.86 656.95 452.48 656.45 458.69 C 659.11 465.15 651.51 469.50 652.71 475.98 C 655.59 487.65 657.46 499.56 660.61 511.15 C 659.07 519.56 662.85 528.03 660.33 536.35 C 658.35 543.77 654.38 551.86 646.66 554.62 C 642.75 556.12 639.28 558.49 635.83 560.81 C 630.97 564.51 624.44 562.61 619.09 565.08 C 610.63 568.40 601.67 565.88 592.98 567.29 C 585.60 568.11 579.06 563.96 571.88 563.18 C 556.46 559.79 548.17 543.56 546.74 529.02 C 548.34 502.30 567.80 481.63 587.54 465.73 C 594.68 462.99 599.43 456.25 606.68 453.71 C 610.45 452.42 612.82 448.97 616.37 447.33 C 621.02 445.55 623.38 438.55 629.23 441.28 M 580.20 526.82 C 582.99 529.02 586.35 530.56 589.96 530.66 C 600.53 531.13 611.76 531.54 621.43 526.55 C 626.12 525.13 631.74 521.73 630.77 516.01 C 629.92 506.63 627.31 497.44 625.83 488.11 C 622.85 489.88 619.58 489.67 616.81 487.58 C 601.71 497.23 586.24 509.35 580.20 526.82 Z" />
<path fill="#ffd433" opacity="1.00" d=" M 694.32 452.00 C 708.11 458.46 719.52 469.03 733.07 475.99 C 742.82 485.90 753.33 495.50 760.39 507.64 C 767.16 519.56 770.04 534.91 763.64 547.58 C 755.56 557.50 743.96 563.75 732.11 568.07 C 713.77 574.81 694.24 576.94 675.34 581.48 C 670.81 582.95 666.74 579.15 664.19 575.83 C 658.97 567.53 660.87 557.20 662.26 548.09 C 668.95 538.32 672.79 526.90 678.93 516.93 C 682.31 506.30 682.58 494.99 682.34 483.92 C 682.78 480.26 683.65 475.65 687.81 474.61 C 685.05 466.19 689.43 458.60 694.32 452.00 M 707.92 494.08 C 708.80 510.76 705.05 527.19 699.00 542.64 C 704.23 541.30 709.86 541.54 714.60 538.64 C 724.59 536.38 735.98 534.66 742.75 526.06 C 739.79 520.84 735.34 516.64 732.79 511.16 C 725.41 504.28 716.60 499.25 707.92 494.08 Z" />
<path fill="#ffd433" opacity="1.00" d=" M 786.86 525.86 C 793.75 508.70 813.14 496.61 831.60 501.56 C 842.04 502.81 852.71 507.18 859.35 515.63 C 865.70 529.37 867.84 546.90 859.08 560.13 C 855.70 564.00 850.85 566.30 846.13 568.12 C 829.93 573.73 812.55 572.48 795.70 572.65 C 793.51 583.71 789.88 595.28 781.05 602.90 C 774.09 602.39 767.12 603.49 761.40 598.72 C 763.47 593.53 757.79 588.90 759.86 583.77 C 761.53 576.41 767.18 570.63 768.11 563.02 C 768.88 560.71 766.42 559.54 765.16 558.11 C 766.79 556.01 766.58 553.44 766.30 550.97 C 768.76 542.11 774.01 534.25 781.29 528.49 C 783.59 528.72 786.31 528.68 786.86 525.86 M 808.92 540.63 C 818.10 541.29 827.09 539.31 836.19 538.47 C 828.56 532.77 813.04 529.14 808.92 540.63 Z" />
<path fill="#ffd433" opacity="1.00" d=" M 883.21 521.42 C 888.82 518.27 894.91 513.88 901.69 516.33 C 904.53 521.65 901.34 528.66 906.10 533.08 C 905.71 537.44 902.60 543.00 906.97 546.25 C 895.68 564.86 883.71 584.51 883.11 606.96 C 883.48 614.03 878.47 621.17 871.00 621.29 C 866.26 621.10 858.55 621.31 857.79 615.12 C 855.63 606.59 855.22 597.72 854.95 588.97 C 858.52 580.89 859.00 571.84 862.82 563.84 C 866.18 555.60 872.71 548.42 873.55 539.34 C 876.39 533.26 881.29 528.00 883.21 521.42 Z" />
</g>
<g id="#243340ff">
<path fill="#243340" opacity="1.00" d=" M 474.68 487.64 C 481.71 477.89 491.85 471.03 501.82 464.54 C 504.60 466.53 507.87 466.76 510.87 465.09 C 512.31 474.43 514.97 483.62 515.78 493.02 C 516.75 499.09 510.56 502.25 505.73 503.79 C 499.05 507.36 491.37 507.63 483.98 507.91 C 477.78 507.60 470.58 508.55 465.62 503.98 C 465.90 497.59 470.76 492.39 474.68 487.64 Z" />
</g>
<g id="#253440ff">
<path fill="#253440" opacity="1.00" d=" M 580.20 526.82 C 586.24 509.35 601.71 497.23 616.81 487.58 C 619.58 489.67 622.85 489.88 625.83 488.11 C 627.31 497.44 629.92 506.63 630.77 516.01 C 631.74 521.73 626.12 525.13 621.43 526.55 C 611.76 531.54 600.53 531.13 589.96 530.66 C 586.35 530.56 582.99 529.02 580.20 526.82 Z" />
<path fill="#253440" opacity="1.00" d=" M 707.92 494.08 C 716.60 499.25 725.41 504.28 732.79 511.16 C 735.34 516.64 739.79 520.84 742.75 526.06 C 735.98 534.66 724.59 536.38 714.60 538.64 C 709.86 541.54 704.23 541.30 699.00 542.64 C 705.05 527.19 708.80 510.76 707.92 494.08 Z" />
</g>
<g id="#23323eff">
<path fill="#23323e" opacity="1.00" d=" M 808.92 540.63 C 813.04 529.14 828.56 532.77 836.19 538.47 C 827.09 539.31 818.10 541.29 808.92 540.63 Z" />
</g>
<g id="#c66458ff">
<path fill="#c66458" opacity="1.00" d=" M 1068.83 883.23 C 1076.19 878.46 1085.58 876.08 1091.04 868.88 C 1090.10 875.23 1088.75 882.25 1084.01 886.93 C 1076.78 891.18 1069.30 895.01 1061.99 899.13 C 1065.45 894.44 1067.62 888.90 1068.83 883.23 Z" />
</g>
</svg>
