<?xml version="1.0" encoding="UTF-8" ?>
<!DOCTYPE svg PUBLIC "-//W3C//DTD SVG 1.1//EN" "http://www.w3.org/Graphics/SVG/1.1/DTD/svg11.dtd">
<svg width="1312pt" height="1132pt" viewBox="0 0 1312 1132" version="1.1" xmlns="http://www.w3.org/2000/svg">
<g id="#ffe685ff">
<path fill="#ffe685" opacity="1.00" d=" M 340.02 87.93 C 344.91 87.04 349.88 85.60 354.88 86.49 C 554.91 131.11 754.99 175.56 955.02 220.15 C 968.24 223.27 981.69 225.65 994.77 229.26 C 968.86 234.35 946.20 248.54 924.78 263.30 C 853.75 247.83 782.91 231.46 711.99 215.52 C 571.26 183.78 430.54 152.03 289.81 120.29 C 285.45 119.35 281.09 118.37 276.87 116.91 C 296.66 104.86 317.18 93.05 340.02 87.93 Z" />
</g>
<g id="#ffd961ff">
<path fill="#ffd961" opacity="1.00" d=" M 268.26 184.90 C 271.00 162.25 273.10 139.33 276.87 116.91 C 281.09 118.37 285.45 119.35 289.81 120.29 C 430.54 152.03 571.26 183.78 711.99 215.52 C 709.14 218.33 704.57 220.30 704.22 224.81 C 702.01 221.79 698.07 219.93 694.42 221.38 C 691.89 222.74 691.63 225.82 690.91 228.27 C 689.38 225.89 689.59 222.85 687.97 220.53 C 687.80 221.90 687.68 223.29 687.56 224.67 C 684.81 224.03 681.98 223.82 679.17 223.84 C 680.47 223.08 681.76 222.30 683.05 221.53 C 681.99 220.48 680.96 219.40 679.86 218.42 C 679.95 219.25 680.06 220.09 680.18 220.93 C 678.76 221.32 677.35 221.73 675.95 222.13 C 675.19 223.43 674.43 224.73 673.69 226.04 C 672.95 225.86 672.22 225.69 671.50 225.52 C 671.42 226.33 671.36 227.14 671.30 227.96 C 670.72 227.34 670.14 226.71 669.58 226.10 C 662.87 225.01 655.93 224.91 649.94 228.72 C 650.01 227.68 650.09 226.65 650.18 225.62 C 651.51 225.50 652.85 225.38 654.20 225.29 C 651.91 224.19 650.05 222.49 648.96 220.19 C 648.88 221.64 648.76 223.09 648.66 224.55 C 647.54 223.87 646.41 223.19 645.29 222.52 C 643.43 223.75 641.53 224.91 639.54 225.91 C 639.80 226.75 640.06 227.59 640.35 228.44 C 639.36 227.56 638.38 226.68 637.40 225.80 C 635.72 227.09 634.05 228.39 632.38 229.69 C 631.59 228.58 630.73 227.55 629.96 226.44 C 628.29 226.77 626.74 227.50 625.37 228.49 C 625.30 227.50 625.23 226.51 625.18 225.52 C 622.73 224.49 620.12 223.95 617.47 224.07 C 616.89 226.32 616.30 228.56 615.69 230.79 C 614.13 228.09 612.27 225.14 613.48 221.92 C 612.45 222.80 611.42 223.68 610.39 224.56 C 611.08 225.63 611.81 226.67 612.52 227.74 C 610.51 227.99 608.50 228.23 606.49 228.45 C 606.12 227.35 605.77 226.26 605.43 225.17 C 604.76 226.26 604.17 227.39 603.52 228.49 C 602.76 227.41 602.02 226.31 601.28 225.23 C 600.88 226.49 600.47 227.74 600.08 229.00 C 599.37 228.03 598.67 227.06 597.98 226.10 C 597.14 227.59 596.31 229.08 595.49 230.58 C 594.62 226.54 591.55 224.17 587.51 223.82 C 588.41 226.81 589.02 229.89 589.05 233.03 C 587.59 230.17 586.43 227.17 585.55 224.08 C 585.04 226.05 584.54 228.01 584.03 229.98 C 582.34 228.01 580.67 226.04 579.03 224.04 C 578.04 225.30 577.06 226.56 576.08 227.82 C 575.21 227.19 574.36 226.57 573.50 225.95 C 570.66 229.08 567.05 228.80 565.01 225.04 C 561.82 231.77 555.80 224.47 550.95 227.64 C 550.78 227.58 550.44 227.46 550.27 227.41 C 551.57 226.29 552.50 224.53 550.85 223.18 C 547.62 221.90 543.97 222.66 540.57 222.36 C 540.83 223.11 541.10 223.86 541.37 224.61 C 538.87 225.45 536.19 225.66 534.32 223.46 C 534.32 224.21 534.32 224.97 534.33 225.73 C 530.09 225.63 525.98 224.54 521.94 223.33 C 521.46 225.09 520.97 226.86 520.49 228.63 C 519.94 228.47 519.40 228.30 518.87 228.14 C 520.10 225.44 519.62 222.76 516.96 221.21 C 515.75 223.74 514.14 226.06 512.12 228.02 C 510.70 226.94 509.29 225.88 507.87 224.81 C 506.93 224.98 505.99 225.15 505.06 225.32 C 503.89 224.46 502.71 223.60 501.54 222.75 C 501.84 223.91 502.14 225.08 502.45 226.25 C 500.26 224.48 498.08 222.70 495.91 220.92 C 495.24 221.51 494.58 222.10 493.92 222.70 C 494.70 223.30 495.49 223.91 496.29 224.51 C 496.01 224.74 495.45 225.20 495.17 225.43 C 495.08 226.23 494.99 227.03 494.90 227.83 C 492.52 227.14 490.37 225.86 490.14 223.15 C 489.55 224.77 488.91 226.36 488.28 227.96 C 487.99 225.86 487.75 223.75 487.56 221.64 C 486.46 222.04 485.36 222.44 484.27 222.84 C 483.58 222.06 482.90 221.28 482.23 220.50 C 480.66 222.39 479.49 224.55 478.68 226.87 C 477.22 225.28 475.84 223.64 474.51 221.96 C 471.54 222.99 468.67 224.37 465.60 225.08 C 462.41 225.32 458.92 222.30 456.20 225.19 C 454.92 223.10 453.33 220.83 454.42 218.28 C 452.35 219.77 449.92 219.43 447.64 218.72 C 449.13 219.93 450.61 221.16 452.10 222.40 C 450.97 222.35 449.86 222.30 448.74 222.25 C 448.68 223.08 448.63 223.91 448.57 224.74 C 447.65 223.84 446.72 222.94 445.80 222.04 C 445.58 223.12 445.36 224.20 445.14 225.28 C 443.54 222.57 442.40 219.30 438.53 220.77 C 438.93 221.65 439.35 222.54 439.77 223.43 C 439.00 223.41 438.23 223.40 437.47 223.38 C 437.85 224.15 438.24 224.91 438.63 225.68 C 434.70 224.95 430.56 224.22 426.65 225.49 C 427.59 221.23 422.67 220.05 421.57 216.51 C 419.78 222.07 412.93 224.42 409.33 219.10 C 407.20 220.79 405.58 223.36 406.15 226.19 C 404.37 224.33 402.38 222.69 400.34 221.13 C 398.57 222.45 396.65 223.69 394.35 223.70 C 394.48 221.55 395.00 219.45 395.78 217.45 C 394.50 217.99 393.20 218.50 391.92 219.03 C 391.24 218.10 390.57 217.16 389.90 216.22 C 389.37 217.29 388.83 218.36 388.31 219.43 C 384.40 220.32 380.36 220.11 376.64 218.57 C 375.77 220.05 374.92 221.66 375.33 223.43 C 373.92 223.88 372.50 224.34 371.09 224.80 C 370.56 219.94 366.39 222.15 363.82 224.04 C 362.33 221.12 360.37 218.43 357.56 216.64 C 356.56 219.83 353.99 221.84 350.98 223.02 C 350.12 220.76 349.35 218.47 348.76 216.13 C 348.32 215.87 347.43 215.36 346.99 215.11 C 346.78 216.20 347.23 217.27 347.10 218.38 C 344.93 217.99 342.94 217.06 341.22 215.68 C 340.94 216.77 340.66 217.85 340.38 218.94 C 340.17 217.48 339.96 216.02 339.76 214.57 C 338.47 215.00 337.17 215.42 335.88 215.85 C 336.80 216.45 337.73 217.05 338.66 217.65 C 337.62 217.98 336.59 218.31 335.56 218.64 C 334.67 220.82 333.56 223.03 331.26 224.02 C 330.17 220.29 329.02 216.57 327.46 213.01 C 325.43 214.91 324.73 217.63 324.00 220.21 C 321.07 218.60 318.81 216.11 316.23 214.04 C 315.91 214.43 315.27 215.21 314.94 215.61 C 314.98 216.49 315.01 217.37 315.05 218.26 C 312.36 217.84 309.59 217.69 306.97 218.57 C 308.18 217.27 309.36 215.94 310.53 214.60 C 308.54 213.44 306.38 212.39 304.02 213.06 C 305.03 213.82 306.03 214.59 307.05 215.35 C 305.05 216.41 302.90 216.07 300.85 215.34 C 299.12 216.64 297.43 218.00 295.76 219.39 C 295.95 218.53 296.16 217.68 296.36 216.83 C 295.47 216.34 294.57 215.86 293.68 215.38 C 293.43 215.85 292.93 216.79 292.68 217.27 C 292.15 216.83 291.63 216.40 291.11 215.97 C 285.82 214.77 280.18 214.99 275.22 212.59 C 275.11 213.57 275.02 214.56 274.92 215.55 C 273.65 214.28 272.46 212.92 271.10 211.76 C 264.16 214.72 269.30 223.38 265.02 228.37 C 264.80 213.82 267.58 199.42 268.26 184.90 Z" />
</g>
<g id="#ffd55eff">
<path fill="#ffd55e" opacity="1.00" d=" M 265.02 228.37 C 269.30 223.38 264.16 214.72 271.10 211.76 C 272.46 212.92 273.65 214.28 274.92 215.55 C 275.02 214.56 275.11 213.57 275.22 212.59 C 280.18 214.99 285.82 214.77 291.11 215.97 C 291.63 216.40 292.15 216.83 292.68 217.27 C 292.93 216.79 293.43 215.85 293.68 215.38 C 294.57 215.86 295.47 216.34 296.36 216.83 C 296.16 217.68 295.95 218.53 295.76 219.39 C 297.43 218.00 299.12 216.64 300.85 215.34 C 302.90 216.07 305.05 216.41 307.05 215.35 C 306.03 214.59 305.03 213.82 304.02 213.06 C 306.38 212.39 308.54 213.44 310.53 214.60 C 309.36 215.94 308.18 217.27 306.97 218.57 C 309.59 217.69 312.36 217.84 315.05 218.26 C 315.01 217.37 314.98 216.49 314.94 215.61 C 315.27 215.21 315.91 214.43 316.23 214.04 C 318.81 216.11 321.07 218.60 324.00 220.21 C 324.73 217.63 325.43 214.91 327.46 213.01 C 329.02 216.57 330.17 220.29 331.26 224.02 C 333.56 223.03 334.67 220.82 335.56 218.64 C 336.59 218.31 337.62 217.98 338.66 217.65 C 337.73 217.05 336.80 216.45 335.88 215.85 C 337.17 215.42 338.47 215.00 339.76 214.57 C 339.96 216.02 340.17 217.48 340.38 218.94 C 340.66 217.85 340.94 216.77 341.22 215.68 C 342.94 217.06 344.93 217.99 347.10 218.38 C 347.23 217.27 346.78 216.20 346.99 215.11 C 347.43 215.36 348.32 215.87 348.76 216.13 C 349.35 218.47 350.12 220.76 350.98 223.02 C 353.99 221.84 356.56 219.83 357.56 216.64 C 360.37 218.43 362.33 221.12 363.82 224.04 C 366.39 222.15 370.56 219.94 371.09 224.80 C 372.50 224.34 373.92 223.88 375.33 223.43 C 374.92 221.66 375.77 220.05 376.64 218.57 C 380.36 220.11 384.40 220.32 388.31 219.43 C 388.83 218.36 389.37 217.29 389.90 216.22 C 390.57 217.16 391.24 218.10 391.92 219.03 C 393.20 218.50 394.50 217.99 395.78 217.45 C 395.00 219.45 394.48 221.55 394.35 223.70 C 396.65 223.69 398.57 222.45 400.34 221.13 C 402.38 222.69 404.37 224.33 406.15 226.19 C 405.58 223.36 407.20 220.79 409.33 219.10 C 412.93 224.42 419.78 222.07 421.57 216.51 C 422.67 220.05 427.59 221.23 426.65 225.49 C 430.56 224.22 434.70 224.95 438.63 225.68 C 438.24 224.91 437.85 224.15 437.47 223.38 C 438.23 223.40 439.00 223.41 439.77 223.43 C 439.35 222.54 438.93 221.65 438.53 220.77 C 442.40 219.30 443.54 222.57 445.14 225.28 C 445.36 224.20 445.58 223.12 445.80 222.04 C 446.72 222.94 447.65 223.84 448.57 224.74 C 448.63 223.91 448.68 223.08 448.74 222.25 C 449.86 222.30 450.97 222.35 452.10 222.40 C 450.61 221.16 449.13 219.93 447.64 218.72 C 449.92 219.43 452.35 219.77 454.42 218.28 C 453.33 220.83 454.92 223.10 456.20 225.19 C 458.92 222.30 462.41 225.32 465.60 225.08 C 468.67 224.37 471.54 222.99 474.51 221.96 C 475.84 223.64 477.22 225.28 478.68 226.87 C 479.49 224.55 480.66 222.39 482.23 220.50 C 482.90 221.28 483.58 222.06 484.27 222.84 C 485.36 222.44 486.46 222.04 487.56 221.64 C 487.75 223.75 487.99 225.86 488.28 227.96 C 488.91 226.36 489.55 224.77 490.14 223.15 C 490.37 225.86 492.52 227.14 494.90 227.83 C 494.99 227.03 495.08 226.23 495.17 225.43 C 495.45 225.20 496.01 224.74 496.29 224.51 C 495.49 223.91 494.70 223.30 493.92 222.70 C 494.58 222.10 495.24 221.51 495.91 220.92 C 498.08 222.70 500.26 224.48 502.45 226.25 C 502.14 225.08 501.84 223.91 501.54 222.75 C 502.71 223.60 503.89 224.46 505.06 225.32 C 505.99 225.15 506.93 224.98 507.87 224.81 C 509.29 225.88 510.70 226.94 512.12 228.02 C 514.14 226.06 515.75 223.74 516.96 221.21 C 519.62 222.76 520.10 225.44 518.87 228.14 C 519.40 228.30 519.94 228.47 520.49 228.63 C 520.97 226.86 521.46 225.09 521.94 223.33 C 525.98 224.54 530.09 225.63 534.33 225.73 C 534.32 224.97 534.32 224.21 534.32 223.46 C 536.19 225.66 538.87 225.45 541.37 224.61 C 541.10 223.86 540.83 223.11 540.57 222.36 C 543.97 222.66 547.62 221.90 550.85 223.18 C 552.50 224.53 551.57 226.29 550.27 227.41 C 550.44 227.46 550.78 227.58 550.95 227.64 C 555.80 224.47 561.82 231.77 565.01 225.04 C 567.05 228.80 570.66 229.08 573.50 225.95 C 574.36 226.57 575.21 227.19 576.08 227.82 C 577.06 226.56 578.04 225.30 579.03 224.04 C 580.67 226.04 582.34 228.01 584.03 229.98 C 584.54 228.01 585.04 226.05 585.55 224.08 C 586.43 227.17 587.59 230.17 589.05 233.03 C 589.02 229.89 588.41 226.81 587.51 223.82 C 591.55 224.17 594.62 226.54 595.49 230.58 C 596.31 229.08 597.14 227.59 597.98 226.10 C 598.67 227.06 599.37 228.03 600.08 229.00 C 600.47 227.74 600.88 226.49 601.28 225.23 C 602.02 226.31 602.76 227.41 603.52 228.49 C 604.17 227.39 604.76 226.26 605.43 225.17 C 605.77 226.26 606.12 227.35 606.49 228.45 C 608.50 228.23 610.51 227.99 612.52 227.74 C 611.81 226.67 611.08 225.63 610.39 224.56 C 611.42 223.68 612.45 222.80 613.48 221.92 C 612.27 225.14 614.13 228.09 615.69 230.79 C 616.30 228.56 616.89 226.32 617.47 224.07 C 620.12 223.95 622.73 224.49 625.18 225.52 C 625.23 226.51 625.30 227.50 625.37 228.49 C 626.74 227.50 628.29 226.77 629.96 226.44 C 630.73 227.55 631.59 228.58 632.38 229.69 C 634.05 228.39 635.72 227.09 637.40 225.80 C 638.38 226.68 639.36 227.56 640.35 228.44 C 640.06 227.59 639.80 226.75 639.54 225.91 C 641.53 224.91 643.43 223.75 645.29 222.52 C 646.41 223.19 647.54 223.87 648.66 224.55 C 648.76 223.09 648.88 221.64 648.96 220.19 C 650.05 222.49 651.91 224.19 654.20 225.29 C 652.85 225.38 651.51 225.50 650.18 225.62 C 650.09 226.65 650.01 227.68 649.94 228.72 C 655.93 224.91 662.87 225.01 669.58 226.10 C 670.14 226.71 670.72 227.34 671.30 227.96 C 671.36 227.14 671.42 226.33 671.50 225.52 C 672.22 225.69 672.95 225.86 673.69 226.04 C 674.43 224.73 675.19 223.43 675.95 222.13 C 677.35 221.73 678.76 221.32 680.18 220.93 C 680.06 220.09 679.95 219.25 679.86 218.42 C 680.96 219.40 681.99 220.48 683.05 221.53 C 681.76 222.30 680.47 223.08 679.17 223.84 C 681.98 223.82 684.81 224.03 687.56 224.67 C 687.68 223.29 687.80 221.90 687.97 220.53 C 689.59 222.85 689.38 225.89 690.91 228.27 C 691.63 225.82 691.89 222.74 694.42 221.38 C 698.07 219.93 702.01 221.79 704.22 224.81 C 704.57 220.30 709.14 218.33 711.99 215.52 C 782.91 231.46 853.75 247.83 924.78 263.30 C 924.02 267.37 923.38 271.48 922.93 275.60 C 919.87 277.70 920.92 282.26 917.46 283.84 C 916.79 281.94 916.14 280.05 915.50 278.15 C 915.08 279.34 914.79 280.58 914.40 281.78 C 913.04 280.52 911.42 279.61 909.67 279.06 C 909.26 280.23 908.86 281.41 908.48 282.59 C 906.30 281.82 904.12 281.05 901.95 280.28 C 901.08 280.97 900.23 281.65 899.38 282.34 C 899.98 282.69 901.17 283.40 901.76 283.75 C 898.67 288.24 892.71 285.87 888.41 288.17 C 888.18 287.98 887.72 287.61 887.49 287.42 C 888.16 285.69 888.89 283.89 888.53 282.01 C 886.57 285.93 881.32 283.52 878.79 286.82 C 876.84 289.11 873.97 286.85 871.70 286.42 C 871.61 288.74 870.67 290.67 868.42 291.52 C 866.68 290.13 865.05 286.37 862.58 288.56 C 860.19 290.66 857.72 288.16 855.28 287.59 C 851.72 288.91 848.74 291.56 845.01 292.56 C 842.37 290.42 839.69 286.63 835.84 287.91 C 831.50 289.11 827.18 287.33 822.82 287.48 C 822.53 288.07 822.25 288.66 821.97 289.26 C 820.84 289.84 819.69 290.37 818.53 290.86 C 815.63 289.41 812.56 288.27 809.93 286.35 C 806.99 289.21 802.17 288.64 799.77 292.09 C 799.82 289.68 799.48 287.28 798.89 284.94 C 797.31 287.13 795.90 289.58 793.43 290.88 C 792.26 289.58 791.08 288.29 789.91 287.01 C 789.26 288.35 788.64 289.70 788.01 291.05 C 787.50 289.65 787.04 288.25 786.61 286.84 C 785.87 287.59 785.14 288.36 784.43 289.12 C 783.37 288.85 782.32 288.60 781.28 288.34 C 781.52 289.75 781.74 291.16 781.99 292.57 C 780.60 291.51 779.23 290.46 777.86 289.40 C 777.09 290.27 776.33 291.14 775.58 292.01 C 775.07 291.75 774.56 291.49 774.07 291.24 C 774.57 290.84 775.56 290.06 776.06 289.66 C 775.03 288.97 773.97 288.36 772.87 287.84 C 772.51 289.12 772.17 290.41 771.83 291.70 C 771.13 290.70 770.45 289.71 769.76 288.71 C 765.05 288.85 759.99 286.42 756.52 291.12 C 755.09 290.10 753.67 289.07 752.26 288.05 C 750.87 289.38 749.48 290.70 748.09 292.03 C 745.98 289.97 745.40 287.13 745.71 284.27 C 743.48 285.96 740.23 289.84 737.77 286.38 C 736.99 287.41 736.22 288.43 735.47 289.47 C 734.89 288.62 734.32 287.78 733.76 286.94 C 733.31 289.01 732.80 291.07 732.22 293.11 C 731.76 291.30 731.35 289.49 730.95 287.68 C 730.03 287.11 729.11 286.53 728.21 285.97 C 728.63 287.07 729.06 288.18 729.49 289.29 C 729.23 289.31 728.70 289.36 728.44 289.38 C 727.50 288.61 726.55 287.84 725.63 287.07 C 724.80 288.57 723.98 290.07 723.17 291.58 C 721.29 288.74 718.35 289.44 715.57 290.18 C 713.67 289.54 711.91 288.31 709.82 288.24 C 710.77 289.18 711.76 290.09 712.75 291.02 C 710.83 291.49 708.88 291.84 706.93 292.10 C 707.01 290.98 707.09 289.86 707.18 288.75 C 704.84 288.49 702.40 289.07 700.13 289.79 C 699.63 290.75 699.14 291.71 698.65 292.67 C 696.54 291.55 694.44 290.44 692.34 289.34 C 691.46 290.41 690.58 291.48 689.73 292.57 C 689.22 290.89 688.37 289.36 687.34 287.95 C 686.16 288.85 684.98 289.75 683.82 290.66 C 681.39 289.01 679.69 286.62 678.16 284.18 C 676.49 287.62 673.92 290.52 670.70 292.59 C 670.02 291.51 669.35 290.45 668.69 289.38 C 666.66 289.85 664.96 291.04 663.74 292.71 C 661.97 290.94 660.20 289.17 658.44 287.41 C 656.95 289.53 655.45 291.94 652.91 292.91 C 649.37 292.03 647.34 287.48 643.35 288.16 C 641.12 288.44 638.97 290.80 636.76 289.23 C 634.94 288.15 632.78 287.19 631.06 289.05 C 628.36 291.94 624.52 288.33 621.66 290.89 C 622.01 291.93 622.36 292.97 622.73 294.02 C 619.78 290.33 614.96 289.69 611.09 287.41 C 611.61 288.71 612.11 290.02 612.61 291.33 C 610.84 291.10 609.10 290.75 607.37 290.38 C 607.51 291.28 607.66 292.19 607.82 293.10 C 541.06 277.65 474.37 261.91 407.62 246.47 C 405.89 260.28 405.40 274.27 404.43 288.17 C 404.13 286.81 403.82 285.45 403.50 284.10 C 399.53 283.61 395.36 283.77 392.35 280.67 C 388.08 281.40 383.76 283.28 379.41 281.17 C 381.88 283.71 381.45 286.93 379.83 289.82 C 379.50 289.62 378.85 289.23 378.53 289.03 C 378.93 287.89 379.34 286.76 379.76 285.63 C 376.15 282.20 370.75 285.67 366.47 286.12 C 366.93 284.75 367.39 283.38 367.84 282.01 C 366.12 283.24 364.41 284.47 362.69 285.69 C 361.81 283.95 361.28 282.07 361.05 280.14 C 359.40 280.06 357.74 279.98 356.10 279.92 C 351.91 265.06 334.03 256.31 319.93 262.80 C 314.93 266.87 318.02 274.41 318.35 279.87 C 318.20 280.35 317.90 281.33 317.76 281.81 C 315.36 280.03 312.67 278.01 309.57 279.45 C 309.35 281.36 309.06 283.27 308.67 285.17 C 307.58 283.64 307.41 281.76 307.27 279.95 C 304.03 279.55 300.08 281.83 298.56 277.58 C 297.24 278.38 295.91 279.18 294.60 279.99 C 294.10 278.87 293.65 277.73 293.17 276.62 C 292.20 276.52 291.24 276.41 290.28 276.32 C 290.62 277.23 290.97 278.15 291.31 279.07 C 290.67 279.25 290.04 279.44 289.41 279.66 C 289.15 278.54 288.89 277.43 288.64 276.31 C 287.45 277.89 286.25 279.46 285.05 281.03 C 283.38 278.77 281.91 276.37 280.61 273.88 C 280.57 275.68 280.54 277.48 280.52 279.28 C 278.35 279.37 276.18 279.42 274.01 279.37 C 274.50 278.96 275.49 278.15 275.98 277.74 C 274.62 276.22 272.95 275.03 271.01 274.38 C 270.81 275.11 270.61 275.85 270.41 276.60 C 271.16 277.92 271.89 279.27 272.61 280.62 C 270.43 279.52 268.26 278.36 265.86 277.81 C 265.62 276.84 265.38 275.88 265.16 274.93 C 264.03 275.96 262.89 276.99 261.76 278.02 C 262.27 261.46 262.96 244.76 265.02 228.37 Z" />
</g>
<g id="#f6a84cff">
<path fill="#f6a84c" opacity="1.00" d=" M 994.77 229.26 C 995.20 229.26 996.06 229.25 996.48 229.25 C 1004.78 287.73 1006.83 346.98 1008.46 405.99 C 1010.70 526.07 1005.05 646.08 1000.47 766.03 C 998.68 800.50 998.46 835.10 996.50 869.55 C 973.95 886.09 950.60 902.89 923.47 910.98 L 923.53 910.47 C 924.68 903.65 923.31 896.81 922.97 889.99 C 919.45 840.60 916.20 791.17 913.42 741.75 C 910.65 693.88 909.27 645.94 908.11 598.00 C 907.60 571.21 908.75 544.39 907.73 517.63 C 908.19 477.17 909.93 436.73 911.99 396.32 C 914.27 355.97 918.44 315.75 922.93 275.60 C 923.38 271.48 924.02 267.37 924.78 263.30 C 946.20 248.54 968.86 234.35 994.77 229.26 Z" />
</g>
<g id="#f6f6f6ff">
<path fill="#f6f6f6" opacity="1.00" d=" M 404.43 288.17 C 405.40 274.27 405.89 260.28 407.62 246.47 C 474.37 261.91 541.06 277.65 607.82 293.10 C 659.21 305.15 710.63 317.08 762.03 329.14 C 760.87 351.09 759.10 373.04 758.14 395.02 C 757.03 394.24 755.94 393.48 754.85 392.72 C 759.27 389.02 755.98 381.31 750.20 384.99 C 750.47 385.79 750.76 386.61 751.05 387.42 C 752.32 387.14 753.60 386.87 754.89 386.59 C 754.71 387.80 754.54 389.00 754.37 390.22 C 752.53 389.38 750.74 388.47 748.97 387.53 C 748.33 388.32 747.71 389.11 747.09 389.91 C 746.73 387.61 746.48 385.31 746.31 383.00 C 745.38 383.84 744.48 384.70 743.57 385.56 C 741.61 384.15 739.68 382.73 737.77 381.28 C 739.58 384.20 741.70 387.59 739.20 390.77 C 737.49 388.49 734.94 386.41 732.40 388.90 C 730.54 387.98 728.70 387.06 726.86 386.15 C 726.55 385.06 726.23 383.98 725.94 382.89 C 725.42 382.66 724.38 382.20 723.87 381.97 C 722.76 384.97 723.50 388.14 723.65 391.23 C 721.87 390.00 721.89 387.71 721.53 385.81 C 721.76 373.55 723.32 361.34 723.27 349.09 C 634.90 328.36 546.55 307.54 458.19 286.79 C 452.26 285.50 446.44 283.69 440.40 282.99 C 437.93 314.83 437.30 346.77 435.89 378.65 C 433.77 390.98 435.51 403.61 434.67 416.05 C 434.17 413.63 433.66 411.22 433.11 408.81 C 429.95 409.62 427.07 408.29 424.42 406.68 C 420.67 407.10 417.44 409.57 413.92 410.86 C 412.66 409.14 412.40 407.07 412.35 405.00 C 411.03 406.81 409.93 408.82 409.92 411.12 C 407.79 409.99 405.65 408.89 403.49 407.84 C 401.53 418.26 402.81 428.99 400.90 439.38 C 400.14 388.96 401.57 338.51 404.43 288.17 Z" />
</g>
<g id="#f5613eff">
<path fill="#f5613e" opacity="1.00" d=" M 319.93 262.80 C 334.03 256.31 351.91 265.06 356.10 279.92 C 357.83 287.01 359.31 295.08 355.83 301.87 C 350.61 308.87 339.76 308.67 332.98 304.12 C 324.90 298.56 320.96 288.97 318.35 279.87 C 318.02 274.41 314.93 266.87 319.93 262.80 Z" />
</g>
<g id="#ffce5aff">
<path fill="#ffce5a" opacity="1.00" d=" M 271.01 274.38 C 272.95 275.03 274.62 276.22 275.98 277.74 C 275.49 278.15 274.50 278.96 274.01 279.37 C 276.18 279.42 278.35 279.37 280.52 279.28 C 280.54 277.48 280.57 275.68 280.61 273.88 C 281.91 276.37 283.38 278.77 285.05 281.03 C 286.25 279.46 287.45 277.89 288.64 276.31 C 288.89 277.43 289.15 278.54 289.41 279.66 C 290.04 279.44 290.67 279.25 291.31 279.07 C 290.97 278.15 290.62 277.23 290.28 276.32 C 291.24 276.41 292.20 276.52 293.17 276.62 C 293.65 277.73 294.10 278.87 294.60 279.99 C 295.91 279.18 297.24 278.38 298.56 277.58 C 300.08 281.83 304.03 279.55 307.27 279.95 C 307.41 281.76 307.58 283.64 308.67 285.17 C 309.06 283.27 309.35 281.36 309.57 279.45 C 312.67 278.01 315.36 280.03 317.76 281.81 C 317.90 281.33 318.20 280.35 318.35 279.87 C 320.96 288.97 324.90 298.56 332.98 304.12 C 339.76 308.67 350.61 308.87 355.83 301.87 C 359.31 295.08 357.83 287.01 356.10 279.92 C 357.74 279.98 359.40 280.06 361.05 280.14 C 361.28 282.07 361.81 283.95 362.69 285.69 C 364.41 284.47 366.12 283.24 367.84 282.01 C 367.39 283.38 366.93 284.75 366.47 286.12 C 370.75 285.67 376.15 282.20 379.76 285.63 C 379.34 286.76 378.93 287.89 378.53 289.03 C 378.85 289.23 379.50 289.62 379.83 289.82 C 381.45 286.93 381.88 283.71 379.41 281.17 C 383.76 283.28 388.08 281.40 392.35 280.67 C 395.36 283.77 399.53 283.61 403.50 284.10 C 403.82 285.45 404.13 286.81 404.43 288.17 C 401.57 338.51 400.14 388.96 400.90 439.38 C 400.41 449.67 401.25 459.98 400.85 470.29 C 400.47 467.97 400.04 465.66 399.75 463.34 C 399.98 440.18 400.00 416.95 399.44 393.77 C 398.33 388.41 400.41 382.06 396.35 377.70 C 397.50 376.15 398.66 374.60 399.80 373.03 C 395.59 372.75 392.00 375.06 388.37 376.78 C 388.07 371.96 382.98 370.44 379.97 367.50 C 379.99 368.34 380.01 369.17 380.05 370.01 C 377.26 373.17 374.04 371.52 371.54 369.05 C 371.94 368.01 372.34 366.96 372.74 365.92 C 370.22 367.21 368.03 369.13 365.31 370.01 C 365.64 368.90 365.99 367.81 366.34 366.72 C 365.07 366.73 363.80 366.74 362.53 366.75 C 363.05 368.01 363.56 369.28 364.09 370.55 C 360.03 366.33 355.09 369.02 350.56 370.55 C 350.41 369.62 350.26 368.69 350.12 367.76 C 348.22 368.39 346.36 369.13 344.53 369.94 C 341.86 368.06 338.36 366.54 337.87 362.91 C 336.25 365.30 334.16 367.68 330.96 366.75 C 330.67 365.79 330.37 364.84 330.08 363.90 C 326.72 366.91 323.20 369.84 318.61 370.67 C 318.23 369.45 317.84 368.23 317.46 367.01 C 317.83 366.67 318.58 365.98 318.95 365.63 C 315.94 363.31 313.16 365.63 310.93 367.77 C 309.44 367.16 307.96 366.54 306.49 365.87 C 306.47 364.56 306.45 363.26 306.44 361.96 C 305.17 363.58 304.04 365.33 302.54 366.75 C 299.42 367.19 297.69 363.75 295.42 362.19 C 293.17 365.50 289.91 367.96 285.76 367.94 C 285.88 367.07 286.00 366.20 286.12 365.34 C 284.93 364.38 283.74 363.42 282.57 362.45 C 281.62 364.57 280.44 366.58 279.10 368.49 C 275.57 366.70 277.25 362.90 277.15 359.82 C 274.78 361.46 272.69 363.46 270.74 365.58 C 270.51 365.51 270.04 365.37 269.81 365.31 C 272.20 360.62 267.71 358.74 264.16 357.33 C 258.24 367.60 260.46 379.72 260.02 391.00 C 259.67 399.46 260.83 408.02 259.20 416.40 C 258.52 370.26 259.14 324.06 261.76 278.02 C 262.89 276.99 264.03 275.96 265.16 274.93 C 265.38 275.88 265.62 276.84 265.86 277.81 C 268.26 278.36 270.43 279.52 272.61 280.62 C 271.89 279.27 271.16 277.92 270.41 276.60 C 270.61 275.85 270.81 275.11 271.01 274.38 Z" />
<path fill="#ffce5a" opacity="1.00" d=" M 917.46 283.84 C 920.92 282.26 919.87 277.70 922.93 275.60 C 918.44 315.75 914.27 355.97 911.99 396.32 C 908.74 395.98 905.43 395.36 902.73 393.43 C 902.27 394.10 901.82 394.78 901.39 395.47 C 901.21 394.99 900.86 394.04 900.68 393.56 C 900.13 394.20 899.60 394.85 899.07 395.50 C 898.35 395.19 897.64 394.89 896.93 394.60 C 896.71 395.73 896.48 396.87 896.27 398.01 C 894.00 397.25 891.75 396.44 889.52 395.58 C 888.87 396.89 888.16 398.16 887.53 399.48 C 885.84 399.41 884.15 399.38 882.47 399.37 C 882.53 397.66 882.61 395.95 882.72 394.24 C 881.05 395.45 879.30 396.54 877.51 397.54 C 878.13 397.82 878.76 398.12 879.40 398.41 C 877.98 399.39 876.56 400.35 875.15 401.33 C 874.54 398.86 873.08 396.80 871.02 395.35 C 868.68 398.49 864.81 398.88 861.28 399.64 C 861.84 398.27 862.41 396.90 862.97 395.54 C 861.92 395.88 860.86 396.22 859.83 396.57 C 858.96 394.49 858.15 392.38 857.37 390.28 C 856.03 391.44 854.68 392.60 853.34 393.75 C 853.67 394.98 854.02 396.21 854.36 397.46 C 853.44 396.33 852.51 395.20 851.64 394.05 C 851.39 389.97 849.06 386.48 845.62 384.38 C 837.76 379.06 827.25 375.10 818.00 379.04 C 810.10 382.79 806.84 391.78 805.98 399.93 C 804.98 400.45 804.00 400.98 803.02 401.50 C 800.47 398.94 797.76 396.48 794.58 394.72 C 794.01 395.46 793.45 396.21 792.90 396.97 C 789.85 396.64 787.58 398.76 785.54 400.72 C 785.02 400.03 784.53 399.35 784.03 398.67 C 780.31 399.16 776.94 397.76 774.42 395.07 C 773.30 402.67 762.98 406.48 757.93 400.02 C 757.98 398.35 758.05 396.68 758.14 395.02 C 759.10 373.04 760.87 351.09 762.03 329.14 C 710.63 317.08 659.21 305.15 607.82 293.10 C 607.66 292.19 607.51 291.28 607.37 290.38 C 609.10 290.75 610.84 291.10 612.61 291.33 C 612.11 290.02 611.61 288.71 611.09 287.41 C 614.96 289.69 619.78 290.33 622.73 294.02 C 622.36 292.97 622.01 291.93 621.66 290.89 C 624.52 288.33 628.36 291.94 631.06 289.05 C 632.78 287.19 634.94 288.15 636.76 289.23 C 638.97 290.80 641.12 288.44 643.35 288.16 C 647.34 287.48 649.37 292.03 652.91 292.91 C 655.45 291.94 656.95 289.53 658.44 287.41 C 660.20 289.17 661.97 290.94 663.74 292.71 C 664.96 291.04 666.66 289.85 668.69 289.38 C 669.35 290.45 670.02 291.51 670.70 292.59 C 673.92 290.52 676.49 287.62 678.16 284.18 C 679.69 286.62 681.39 289.01 683.82 290.66 C 684.98 289.75 686.16 288.85 687.34 287.95 C 688.37 289.36 689.22 290.89 689.73 292.57 C 690.58 291.48 691.46 290.41 692.34 289.34 C 694.44 290.44 696.54 291.55 698.65 292.67 C 699.14 291.71 699.63 290.75 700.13 289.79 C 702.40 289.07 704.84 288.49 707.18 288.75 C 707.09 289.86 707.01 290.98 706.93 292.10 C 708.88 291.84 710.83 291.49 712.75 291.02 C 711.76 290.09 710.77 289.18 709.82 288.24 C 711.91 288.31 713.67 289.54 715.57 290.18 C 718.35 289.44 721.29 288.74 723.17 291.58 C 723.98 290.07 724.80 288.57 725.63 287.07 C 726.55 287.84 727.50 288.61 728.44 289.38 C 728.70 289.36 729.23 289.31 729.49 289.29 C 729.06 288.18 728.63 287.07 728.21 285.97 C 729.11 286.53 730.03 287.11 730.95 287.68 C 731.35 289.49 731.76 291.30 732.22 293.11 C 732.80 291.07 733.31 289.01 733.76 286.94 C 734.32 287.78 734.89 288.62 735.47 289.47 C 736.22 288.43 736.99 287.41 737.77 286.38 C 740.23 289.84 743.48 285.96 745.71 284.27 C 745.40 287.13 745.98 289.97 748.09 292.03 C 749.48 290.70 750.87 289.38 752.26 288.05 C 753.67 289.07 755.09 290.10 756.52 291.12 C 759.99 286.42 765.05 288.85 769.76 288.71 C 770.45 289.71 771.13 290.70 771.83 291.70 C 772.17 290.41 772.51 289.12 772.87 287.84 C 773.97 288.36 775.03 288.97 776.06 289.66 C 775.56 290.06 774.57 290.84 774.07 291.24 C 774.56 291.49 775.07 291.75 775.58 292.01 C 776.33 291.14 777.09 290.27 777.86 289.40 C 779.23 290.46 780.60 291.51 781.99 292.57 C 781.74 291.16 781.52 289.75 781.28 288.34 C 782.32 288.60 783.37 288.85 784.43 289.12 C 785.14 288.36 785.87 287.59 786.61 286.84 C 787.04 288.25 787.50 289.65 788.01 291.05 C 788.64 289.70 789.26 288.35 789.91 287.01 C 791.08 288.29 792.26 289.58 793.43 290.88 C 795.90 289.58 797.31 287.13 798.89 284.94 C 799.48 287.28 799.82 289.68 799.77 292.09 C 802.17 288.64 806.99 289.21 809.93 286.35 C 812.56 288.27 815.63 289.41 818.53 290.86 C 819.69 290.37 820.84 289.84 821.97 289.26 C 822.25 288.66 822.53 288.07 822.82 287.48 C 827.18 287.33 831.50 289.11 835.84 287.91 C 839.69 286.63 842.37 290.42 845.01 292.56 C 848.74 291.56 851.72 288.91 855.28 287.59 C 857.72 288.16 860.19 290.66 862.58 288.56 C 865.05 286.37 866.68 290.13 868.42 291.52 C 870.67 290.67 871.61 288.74 871.70 286.42 C 873.97 286.85 876.84 289.11 878.79 286.82 C 881.32 283.52 886.57 285.93 888.53 282.01 C 888.89 283.89 888.16 285.69 887.49 287.42 C 887.72 287.61 888.18 287.98 888.41 288.17 C 892.71 285.87 898.67 288.24 901.76 283.75 C 901.17 283.40 899.98 282.69 899.38 282.34 C 900.23 281.65 901.08 280.97 901.95 280.28 C 904.12 281.05 906.30 281.82 908.48 282.59 C 908.86 281.41 909.26 280.23 909.67 279.06 C 911.42 279.61 913.04 280.52 914.40 281.78 C 914.79 280.58 915.08 279.34 915.50 278.15 C 916.14 280.05 916.79 281.94 917.46 283.84 Z" />
</g>
<g id="#53b1ddff">
<path fill="#53b1dd" opacity="1.00" d=" M 440.40 282.99 C 446.44 283.69 452.26 285.50 458.19 286.79 C 546.55 307.54 634.90 328.36 723.27 349.09 C 723.32 361.34 721.76 373.55 721.53 385.81 C 721.17 394.07 720.90 402.35 720.27 410.61 C 719.94 407.31 719.59 404.01 719.39 400.70 C 718.59 400.84 717.80 400.98 717.03 401.13 C 715.28 397.47 711.81 395.52 707.78 396.45 C 709.87 397.39 712.02 398.21 714.18 399.01 C 713.19 399.89 712.22 400.78 711.26 401.67 C 709.28 399.54 706.98 397.68 704.12 396.92 C 703.50 398.21 702.90 399.51 702.30 400.81 C 701.92 399.16 701.53 397.51 701.15 395.86 C 699.59 396.91 698.00 397.93 696.54 399.11 C 693.03 397.21 689.27 398.07 685.86 399.67 C 685.68 400.37 685.51 401.09 685.34 401.80 C 683.17 397.70 678.32 393.83 674.65 398.81 C 674.60 398.13 674.57 397.46 674.54 396.80 C 672.50 396.69 670.47 396.58 668.44 396.43 C 668.87 395.23 669.32 394.03 669.74 392.84 C 667.97 394.06 666.54 395.68 665.48 397.55 C 663.49 397.06 661.51 396.56 659.53 396.04 C 659.82 397.83 660.11 399.62 660.39 401.43 C 659.30 399.45 658.49 397.30 657.12 395.51 C 653.87 394.85 651.36 398.19 648.10 398.30 C 647.30 395.55 646.24 392.88 644.83 390.39 C 643.68 391.97 642.56 393.55 641.43 395.13 C 640.60 394.20 639.80 393.28 639.00 392.36 C 638.79 393.48 638.60 394.61 638.40 395.74 C 640.58 395.94 642.77 396.15 644.96 396.38 C 644.71 397.01 644.47 397.66 644.25 398.31 C 641.97 397.77 639.67 397.24 637.40 396.68 C 640.05 398.74 640.20 401.83 638.85 404.72 C 627.01 378.48 597.47 362.33 569.01 365.66 C 558.82 366.12 549.75 371.33 539.89 373.00 C 538.85 369.09 543.05 365.15 540.46 361.52 C 537.96 358.19 533.16 358.53 529.59 359.60 C 517.73 363.27 508.40 374.30 507.24 386.74 C 506.79 388.06 506.29 389.36 505.78 390.66 C 504.59 391.18 503.55 391.97 502.56 392.80 C 502.10 392.88 501.64 392.97 501.18 393.06 C 501.03 393.86 500.88 394.67 500.73 395.49 C 498.91 393.91 496.68 393.17 494.29 393.39 C 494.69 392.53 495.08 391.67 495.50 390.81 C 493.48 391.77 491.44 392.65 489.35 393.42 C 488.72 392.84 488.10 392.27 487.48 391.70 C 487.98 391.35 488.98 390.65 489.48 390.30 C 489.34 389.96 489.21 389.62 489.08 389.29 C 488.10 388.82 487.16 388.26 486.15 387.86 C 486.00 388.26 485.71 389.05 485.57 389.45 C 484.84 388.87 484.11 388.30 483.40 387.74 C 481.48 389.47 479.60 391.26 477.78 393.10 C 477.67 391.39 477.58 389.68 477.49 387.98 C 476.03 388.82 474.58 389.66 473.13 390.53 C 471.91 390.11 470.68 389.78 469.47 389.38 C 469.24 390.41 469.02 391.44 468.81 392.49 C 467.76 391.11 466.51 389.90 464.98 389.09 C 464.67 388.41 464.35 387.74 464.05 387.08 C 460.59 391.23 450.78 394.23 450.55 386.11 C 450.24 387.20 449.93 388.29 449.63 389.39 C 447.96 388.95 446.29 388.51 444.62 388.09 C 444.12 389.99 443.66 391.91 443.24 393.84 C 442.03 392.83 440.82 391.83 439.61 390.84 C 439.51 392.97 439.49 395.11 439.46 397.25 C 438.29 397.59 437.11 397.94 435.94 398.29 C 435.93 391.74 436.17 385.19 435.89 378.65 C 437.30 346.77 437.93 314.83 440.40 282.99 Z" />
</g>
<g id="#ffc858ff">
<path fill="#ffc858" opacity="1.00" d=" M 264.16 357.33 C 267.71 358.74 272.20 360.62 269.81 365.31 C 270.04 365.37 270.51 365.51 270.74 365.58 C 272.69 363.46 274.78 361.46 277.15 359.82 C 277.25 362.90 275.57 366.70 279.10 368.49 C 280.44 366.58 281.62 364.57 282.57 362.45 C 283.74 363.42 284.93 364.38 286.12 365.34 C 286.00 366.20 285.88 367.07 285.76 367.94 C 289.91 367.96 293.17 365.50 295.42 362.19 C 297.69 363.75 299.42 367.19 302.54 366.75 C 304.04 365.33 305.17 363.58 306.44 361.96 C 306.45 363.26 306.47 364.56 306.49 365.87 C 307.96 366.54 309.44 367.16 310.93 367.77 C 313.16 365.63 315.94 363.31 318.95 365.63 C 318.58 365.98 317.83 366.67 317.46 367.01 C 317.84 368.23 318.23 369.45 318.61 370.67 C 323.20 369.84 326.72 366.91 330.08 363.90 C 330.37 364.84 330.67 365.79 330.96 366.75 C 334.16 367.68 336.25 365.30 337.87 362.91 C 338.36 366.54 341.86 368.06 344.53 369.94 C 346.36 369.13 348.22 368.39 350.12 367.76 C 350.26 368.69 350.41 369.62 350.56 370.55 C 355.09 369.02 360.03 366.33 364.09 370.55 C 363.56 369.28 363.05 368.01 362.53 366.75 C 363.80 366.74 365.07 366.73 366.34 366.72 C 365.99 367.81 365.64 368.90 365.31 370.01 C 368.03 369.13 370.22 367.21 372.74 365.92 C 372.34 366.96 371.94 368.01 371.54 369.05 C 374.04 371.52 377.26 373.17 380.05 370.01 C 380.01 369.17 379.99 368.34 379.97 367.50 C 382.98 370.44 388.07 371.96 388.37 376.78 C 392.00 375.06 395.59 372.75 399.80 373.03 C 398.66 374.60 397.50 376.15 396.35 377.70 C 400.41 382.06 398.33 388.41 399.44 393.77 C 400.00 416.95 399.98 440.18 399.75 463.34 C 399.17 459.52 398.04 455.53 394.53 453.39 C 392.50 456.78 389.14 457.68 385.92 455.23 C 386.43 454.89 387.46 454.22 387.97 453.88 C 387.45 453.29 386.94 452.71 386.44 452.13 C 385.51 453.47 384.59 454.82 383.67 456.16 C 383.65 454.74 383.63 453.32 383.62 451.90 C 382.23 453.46 380.94 455.10 379.79 456.85 C 379.18 456.38 378.57 455.92 377.97 455.47 C 377.97 454.39 377.96 453.32 377.97 452.24 C 377.20 452.51 376.43 452.79 375.67 453.06 C 375.71 454.17 375.76 455.29 375.82 456.41 C 374.58 455.67 373.33 454.93 372.09 454.19 C 371.55 454.89 371.01 455.61 370.48 456.33 C 371.56 457.41 372.65 458.51 373.74 459.61 C 372.48 460.10 371.22 460.59 369.97 461.08 C 356.12 450.79 339.64 442.29 321.97 442.54 C 309.19 442.23 295.59 442.07 284.03 448.33 C 283.61 448.24 282.76 448.06 282.34 447.97 C 283.22 447.23 284.11 446.51 285.00 445.79 C 283.70 444.97 282.40 444.15 281.11 443.33 C 280.62 443.78 280.14 444.24 279.67 444.70 C 278.06 444.33 276.46 443.95 274.85 443.61 C 269.64 441.45 264.79 448.12 259.77 444.39 C 259.08 435.08 259.09 425.71 259.20 416.40 C 260.83 408.02 259.67 399.46 260.02 391.00 C 260.46 379.72 258.24 367.60 264.16 357.33 Z" />
</g>
<g id="#000820ff">
<path fill="#000820" opacity="1.00" d=" M 529.59 359.60 C 533.16 358.53 537.96 358.19 540.46 361.52 C 543.05 365.15 538.85 369.09 539.89 373.00 C 549.75 371.33 558.82 366.12 569.01 365.66 C 597.47 362.33 627.01 378.48 638.85 404.72 C 648.86 427.22 651.61 455.08 639.53 477.32 C 637.69 480.35 635.15 482.93 631.85 484.34 C 630.33 483.21 628.06 482.61 627.40 480.67 C 624.72 464.02 624.78 444.70 612.15 431.86 C 601.19 420.43 585.21 412.85 569.18 414.37 C 558.90 416.22 549.56 421.79 539.06 422.71 C 531.85 423.24 525.27 419.41 519.69 415.27 C 511.24 408.50 506.91 397.44 507.24 386.74 C 508.40 374.30 517.73 363.27 529.59 359.60 Z" />
</g>
<g id="#f15c3aff">
<path fill="#f15c3a" opacity="1.00" d=" M 818.00 379.04 C 827.25 375.10 837.76 379.06 845.62 384.38 C 849.06 386.48 851.39 389.97 851.64 394.05 C 850.32 405.38 844.85 417.98 833.63 422.50 C 820.42 425.91 804.51 414.10 805.98 399.93 C 806.84 391.78 810.10 382.79 818.00 379.04 Z" />
</g>
<g id="#ebebebff">
<path fill="#ebebeb" opacity="1.00" d=" M 434.67 416.05 C 435.51 403.61 433.77 390.98 435.89 378.65 C 436.17 385.19 435.93 391.74 435.94 398.29 C 435.64 431.61 435.50 464.95 436.62 498.25 C 436.64 509.58 437.25 520.90 437.58 532.23 C 437.74 548.03 439.10 563.79 439.33 579.59 C 437.92 583.16 437.39 587.10 434.92 590.18 C 435.23 592.56 434.12 594.52 432.36 596.05 C 432.30 594.43 432.26 592.83 432.23 591.23 C 431.80 590.93 431.37 590.65 430.95 590.37 C 429.72 592.94 427.85 595.12 425.55 596.78 C 426.33 594.92 427.24 593.12 428.27 591.38 C 426.38 590.19 424.48 589.03 422.55 587.91 C 420.70 589.87 418.19 590.74 415.55 590.94 C 415.85 591.99 416.16 593.05 416.48 594.12 C 415.62 594.44 414.76 594.78 413.92 595.12 C 413.69 594.04 413.47 592.97 413.25 591.91 C 410.43 592.53 407.96 594.01 405.77 595.85 C 405.05 585.72 404.93 575.56 404.15 565.44 C 402.75 533.73 401.90 502.00 400.85 470.29 C 401.25 459.98 400.41 449.67 400.90 439.38 C 402.81 428.99 401.53 418.26 403.49 407.84 C 405.65 408.89 407.79 409.99 409.92 411.12 C 409.93 408.82 411.03 406.81 412.35 405.00 C 412.40 407.07 412.66 409.14 413.92 410.86 C 417.44 409.57 420.67 407.10 424.42 406.68 C 427.07 408.29 429.95 409.62 433.11 408.81 C 433.66 411.22 434.17 413.63 434.67 416.05 Z" />
</g>
<g id="#eeeeeeff">
<path fill="#eeeeee" opacity="1.00" d=" M 737.77 381.28 C 739.68 382.73 741.61 384.15 743.57 385.56 C 744.48 384.70 745.38 383.84 746.31 383.00 C 746.48 385.31 746.73 387.61 747.09 389.91 C 747.71 389.11 748.33 388.32 748.97 387.53 C 750.74 388.47 752.53 389.38 754.37 390.22 C 754.54 389.00 754.71 387.80 754.89 386.59 C 753.60 386.87 752.32 387.14 751.05 387.42 C 750.76 386.61 750.47 385.79 750.20 384.99 C 755.98 381.31 759.27 389.02 754.85 392.72 C 755.94 393.48 757.03 394.24 758.14 395.02 C 758.05 396.68 757.98 398.35 757.93 400.02 C 757.13 421.91 756.57 443.82 755.77 465.71 C 753.35 486.16 756.52 507.14 753.94 527.47 C 753.82 525.75 753.78 524.02 753.76 522.31 C 753.14 521.73 752.52 521.16 751.92 520.59 C 753.04 519.28 753.55 517.72 752.99 516.02 C 752.22 516.97 751.46 517.92 750.73 518.89 C 750.55 517.61 750.27 516.35 750.11 515.08 C 749.75 515.07 749.04 515.04 748.68 515.02 C 748.71 516.21 748.74 517.41 748.80 518.61 C 747.94 517.99 747.10 517.39 746.27 516.78 C 744.82 517.58 743.38 518.39 741.95 519.20 C 740.71 517.36 739.54 515.48 738.44 513.57 C 737.79 514.76 737.10 515.92 736.46 517.13 C 734.65 516.06 732.68 514.95 731.01 513.51 C 728.60 514.69 726.36 516.25 724.96 518.60 C 725.88 519.52 726.82 520.45 727.74 521.40 C 722.81 521.14 721.76 515.81 720.13 512.09 C 719.45 489.99 720.85 467.81 719.63 445.73 C 719.54 434.02 720.41 422.32 720.27 410.61 C 720.90 402.35 721.17 394.07 721.53 385.81 C 721.89 387.71 721.87 390.00 723.65 391.23 C 723.50 388.14 722.76 384.97 723.87 381.97 C 724.38 382.20 725.42 382.66 725.94 382.89 C 726.23 383.98 726.55 385.06 726.86 386.15 C 728.70 387.06 730.54 387.98 732.40 388.90 C 734.94 386.41 737.49 388.49 739.20 390.77 C 741.70 387.59 739.58 384.20 737.77 381.28 Z" />
</g>
<g id="#4dabd8ff">
<path fill="#4dabd8" opacity="1.00" d=" M 450.55 386.11 C 450.78 394.23 460.59 391.23 464.05 387.08 C 464.35 387.74 464.67 388.41 464.98 389.09 C 466.51 389.90 467.76 391.11 468.81 392.49 C 469.02 391.44 469.24 390.41 469.47 389.38 C 470.68 389.78 471.91 390.11 473.13 390.53 C 474.58 389.66 476.03 388.82 477.49 387.98 C 477.58 389.68 477.67 391.39 477.78 393.10 C 479.60 391.26 481.48 389.47 483.40 387.74 C 484.11 388.30 484.84 388.87 485.57 389.45 C 485.71 389.05 486.00 388.26 486.15 387.86 C 487.16 388.26 488.10 388.82 489.08 389.29 C 489.21 389.62 489.34 389.96 489.48 390.30 C 488.98 390.65 487.98 391.35 487.48 391.70 C 488.10 392.27 488.72 392.84 489.35 393.42 C 491.44 392.65 493.48 391.77 495.50 390.81 C 495.08 391.67 494.69 392.53 494.29 393.39 C 496.68 393.17 498.91 393.91 500.73 395.49 C 500.88 394.67 501.03 393.86 501.18 393.06 C 501.64 392.97 502.10 392.88 502.56 392.80 C 503.55 391.97 504.59 391.18 505.78 390.66 C 506.29 389.36 506.79 388.06 507.24 386.74 C 506.91 397.44 511.24 408.50 519.69 415.27 C 515.02 429.23 516.18 444.24 516.40 458.73 C 515.71 458.83 514.33 459.01 513.64 459.10 C 513.88 459.73 514.13 460.36 514.38 461.00 C 508.91 460.71 503.79 462.36 498.37 460.80 C 498.10 460.45 497.54 459.76 497.26 459.41 C 496.67 460.42 496.08 461.44 495.50 462.47 C 492.37 458.47 485.60 456.42 481.18 459.51 C 482.96 460.14 484.76 460.75 486.56 461.36 C 486.39 462.02 486.24 462.69 486.11 463.36 C 484.81 462.74 483.52 462.12 482.23 461.52 C 478.96 462.82 475.46 462.38 472.06 462.00 C 471.73 460.73 471.38 459.47 471.07 458.21 C 470.53 457.89 470.00 457.57 469.48 457.26 C 468.51 458.86 467.55 460.47 466.62 462.09 C 466.99 459.42 466.44 455.72 463.05 455.59 C 460.15 457.77 456.74 457.83 453.45 456.46 C 452.91 457.24 452.38 458.03 451.85 458.82 C 449.64 457.78 447.42 456.77 445.17 455.85 C 444.97 458.43 447.02 459.77 448.98 460.90 C 448.76 461.35 448.32 462.25 448.10 462.69 C 446.36 461.43 444.61 460.18 442.87 458.93 C 441.09 461.83 438.30 464.25 437.36 467.59 C 436.32 477.78 437.90 488.07 436.62 498.25 C 435.50 464.95 435.64 431.61 435.94 398.29 C 437.11 397.94 438.29 397.59 439.46 397.25 C 439.49 395.11 439.51 392.97 439.61 390.84 C 440.82 391.83 442.03 392.83 443.24 393.84 C 443.66 391.91 444.12 389.99 444.62 388.09 C 446.29 388.51 447.96 388.95 449.63 389.39 C 449.93 388.29 450.24 387.20 450.55 386.11 Z" />
</g>
<g id="#4daad7ff">
<path fill="#4daad7" opacity="1.00" d=" M 644.83 390.39 C 646.24 392.88 647.30 395.55 648.10 398.30 C 651.36 398.19 653.87 394.85 657.12 395.51 C 658.49 397.30 659.30 399.45 660.39 401.43 C 660.11 399.62 659.82 397.83 659.53 396.04 C 661.51 396.56 663.49 397.06 665.48 397.55 C 666.54 395.68 667.97 394.06 669.74 392.84 C 669.32 394.03 668.87 395.23 668.44 396.43 C 670.47 396.58 672.50 396.69 674.54 396.80 C 674.57 397.46 674.60 398.13 674.65 398.81 C 678.32 393.83 683.17 397.70 685.34 401.80 C 685.51 401.09 685.68 400.37 685.86 399.67 C 689.27 398.07 693.03 397.21 696.54 399.11 C 698.00 397.93 699.59 396.91 701.15 395.86 C 701.53 397.51 701.92 399.16 702.30 400.81 C 702.90 399.51 703.50 398.21 704.12 396.92 C 706.98 397.68 709.28 399.54 711.26 401.67 C 712.22 400.78 713.19 399.89 714.18 399.01 C 712.02 398.21 709.87 397.39 707.78 396.45 C 711.81 395.52 715.28 397.47 717.03 401.13 C 717.80 400.98 718.59 400.84 719.39 400.70 C 719.59 404.01 719.94 407.31 720.27 410.61 C 720.41 422.32 719.54 434.02 719.63 445.73 C 718.47 477.26 718.98 508.83 719.07 540.37 C 716.69 524.78 718.55 508.76 717.91 493.00 C 717.25 488.11 719.66 481.89 715.81 477.97 C 715.50 479.14 715.22 480.32 714.94 481.51 C 713.54 480.44 712.15 479.38 710.77 478.32 C 711.84 475.45 711.32 472.64 708.75 470.82 C 706.65 473.13 702.74 472.56 701.21 475.42 C 703.11 477.24 704.75 479.32 705.99 481.65 C 698.64 483.60 692.70 476.88 685.37 478.15 C 682.60 478.84 682.80 475.22 681.77 473.55 C 679.22 473.84 676.68 474.26 674.11 473.99 C 673.75 474.97 673.40 475.96 673.07 476.95 C 669.90 476.18 666.86 474.51 663.52 474.77 C 660.06 475.42 657.93 471.40 654.48 471.72 C 651.74 471.52 649.76 473.66 648.17 475.58 C 648.83 476.85 649.48 478.12 650.15 479.40 C 646.87 477.18 642.58 479.07 639.53 477.32 C 651.61 455.08 648.86 427.22 638.85 404.72 C 640.20 401.83 640.05 398.74 637.40 396.68 C 639.67 397.24 641.97 397.77 644.25 398.31 C 644.47 397.66 644.71 397.01 644.96 396.38 C 642.77 396.15 640.58 395.94 638.40 395.74 C 638.60 394.61 638.79 393.48 639.00 392.36 C 639.80 393.28 640.60 394.20 641.43 395.13 C 642.56 393.55 643.68 391.97 644.83 390.39 Z" />
</g>
<g id="#ffc455ff">
<path fill="#ffc455" opacity="1.00" d=" M 853.34 393.75 C 854.68 392.60 856.03 391.44 857.37 390.28 C 858.15 392.38 858.96 394.49 859.83 396.57 C 860.86 396.22 861.92 395.88 862.97 395.54 C 862.41 396.90 861.84 398.27 861.28 399.64 C 864.81 398.88 868.68 398.49 871.02 395.35 C 873.08 396.80 874.54 398.86 875.15 401.33 C 876.56 400.35 877.98 399.39 879.40 398.41 C 878.76 398.12 878.13 397.82 877.51 397.54 C 879.30 396.54 881.05 395.45 882.72 394.24 C 882.61 395.95 882.53 397.66 882.47 399.37 C 884.15 399.38 885.84 399.41 887.53 399.48 C 888.16 398.16 888.87 396.89 889.52 395.58 C 891.75 396.44 894.00 397.25 896.27 398.01 C 896.48 396.87 896.71 395.73 896.93 394.60 C 897.64 394.89 898.35 395.19 899.07 395.50 C 899.60 394.85 900.13 394.20 900.68 393.56 C 900.86 394.04 901.21 394.99 901.39 395.47 C 901.82 394.78 902.27 394.10 902.73 393.43 C 905.43 395.36 908.74 395.98 911.99 396.32 C 909.93 436.73 908.19 477.17 907.73 517.63 C 905.70 529.28 907.50 541.18 906.43 552.92 C 904.96 552.06 903.49 551.20 902.04 550.34 C 899.50 552.64 903.59 555.24 900.80 557.30 C 898.56 555.82 898.26 553.54 899.10 551.15 C 898.46 550.47 897.83 549.79 897.21 549.13 C 896.41 550.26 895.62 551.39 894.81 552.51 C 895.44 553.34 896.09 554.17 896.74 555.02 C 896.30 555.29 895.42 555.84 894.98 556.12 C 893.09 554.05 891.01 552.18 888.80 550.47 C 888.98 551.46 889.17 552.46 889.37 553.46 C 888.10 553.24 886.83 553.00 885.57 552.80 C 886.65 554.31 887.73 555.82 888.82 557.34 C 887.65 557.65 886.50 557.97 885.35 558.30 C 884.82 555.78 884.16 553.29 883.04 550.98 C 882.49 551.33 881.95 551.69 881.42 552.05 C 882.36 553.88 883.14 555.82 883.30 557.90 C 881.32 556.24 879.45 554.46 877.61 552.68 C 876.68 552.72 875.76 552.78 874.86 552.84 C 874.95 553.71 875.06 554.59 875.17 555.47 C 873.31 555.13 871.58 554.35 870.00 553.35 C 869.37 554.11 868.74 554.88 868.14 555.66 C 866.81 552.47 864.01 552.35 861.47 554.31 C 860.08 552.89 858.71 551.46 857.38 550.00 C 858.38 552.71 858.17 555.56 856.59 558.01 C 854.02 556.57 852.57 552.19 849.18 553.92 C 849.79 554.38 851.00 555.30 851.61 555.76 C 850.97 556.88 850.32 557.99 849.70 559.13 C 848.68 557.51 847.79 555.83 847.04 554.09 C 846.39 557.21 842.75 559.77 840.13 556.89 C 835.58 552.65 829.19 552.36 823.49 553.98 C 822.81 553.42 822.14 552.86 821.48 552.31 C 822.11 554.25 823.33 555.88 824.79 557.30 C 822.37 557.99 819.95 558.72 817.53 559.41 C 816.22 554.17 810.67 554.57 806.43 555.30 C 806.63 556.33 806.84 557.37 807.05 558.42 C 805.71 559.87 804.48 561.42 803.39 563.07 C 799.65 563.41 795.91 563.82 792.20 564.37 C 788.59 560.39 782.99 558.43 780.33 553.62 C 779.42 554.41 778.50 555.20 777.61 556.01 C 775.41 554.97 774.79 552.79 774.99 550.54 C 772.72 550.83 770.55 551.59 768.65 552.88 C 770.47 553.32 772.31 553.74 774.14 554.18 C 770.44 554.99 766.15 554.99 763.53 558.14 C 761.81 557.84 760.10 557.51 758.40 557.16 C 758.86 558.43 759.35 559.71 759.67 561.04 C 756.18 566.09 757.73 572.55 756.63 578.27 C 755.17 540.77 756.06 503.22 755.77 465.71 C 756.57 443.82 757.13 421.91 757.93 400.02 C 762.98 406.48 773.30 402.67 774.42 395.07 C 776.94 397.76 780.31 399.16 784.03 398.67 C 784.53 399.35 785.02 400.03 785.54 400.72 C 787.58 398.76 789.85 396.64 792.90 396.97 C 793.45 396.21 794.01 395.46 794.58 394.72 C 797.76 396.48 800.47 398.94 803.02 401.50 C 804.00 400.98 804.98 400.45 805.98 399.93 C 804.51 414.10 820.42 425.91 833.63 422.50 C 844.85 417.98 850.32 405.38 851.64 394.05 C 852.51 395.20 853.44 396.33 854.36 397.46 C 854.02 396.21 853.67 394.98 853.34 393.75 Z" />
</g>
<g id="#ecececff">
<path fill="#ececec" opacity="1.00" d=" M 539.06 422.71 C 549.56 421.79 558.90 416.22 569.18 414.37 C 585.21 412.85 601.19 420.43 612.15 431.86 C 624.78 444.70 624.72 464.02 627.40 480.67 C 628.06 482.61 630.33 483.21 631.85 484.34 C 631.96 503.15 632.42 525.41 617.24 539.13 C 601.40 549.79 581.27 543.31 565.15 536.74 C 551.65 531.40 538.13 524.25 529.39 512.26 C 519.30 496.37 517.83 477.01 516.40 458.73 C 516.18 444.24 515.02 429.23 519.69 415.27 C 525.27 419.41 531.85 423.24 539.06 422.71 M 541.26 436.32 C 530.67 441.60 534.97 461.64 547.03 461.36 C 560.15 457.88 554.64 433.10 541.26 436.32 M 595.48 454.73 C 585.22 460.05 589.18 479.60 601.04 479.32 C 613.83 475.95 608.80 451.56 595.48 454.73 M 539.59 477.10 C 538.19 498.39 557.15 517.32 578.03 517.82 C 589.08 517.63 597.39 507.92 600.28 497.97 C 578.89 495.10 558.59 487.08 539.59 477.10 Z" />
</g>
<g id="#00081eff">
<path fill="#00081e" opacity="1.00" d=" M 541.26 436.32 C 554.64 433.10 560.15 457.88 547.03 461.36 C 534.97 461.64 530.67 441.60 541.26 436.32 Z" />
<path fill="#00081e" opacity="1.00" d=" M 595.48 454.73 C 608.80 451.56 613.83 475.95 601.04 479.32 C 589.18 479.60 585.22 460.05 595.48 454.73 Z" />
</g>
<g id="#ffc355ff">
<path fill="#ffc355" opacity="1.00" d=" M 259.77 444.39 C 264.79 448.12 269.64 441.45 274.85 443.61 C 276.46 443.95 278.06 444.33 279.67 444.70 C 280.14 444.24 280.62 443.78 281.11 443.33 C 282.40 444.15 283.70 444.97 285.00 445.79 C 284.11 446.51 283.22 447.23 282.34 447.97 C 282.76 448.06 283.61 448.24 284.03 448.33 C 280.73 451.72 279.31 457.25 283.14 460.86 C 293.09 471.39 307.33 476.40 320.58 481.42 C 335.39 487.19 352.11 487.10 367.12 482.13 C 371.29 480.52 376.40 478.39 377.56 473.59 C 378.26 468.20 373.66 464.23 369.97 461.08 C 371.22 460.59 372.48 460.10 373.74 459.61 C 372.65 458.51 371.56 457.41 370.48 456.33 C 371.01 455.61 371.55 454.89 372.09 454.19 C 373.33 454.93 374.58 455.67 375.82 456.41 C 375.76 455.29 375.71 454.17 375.67 453.06 C 376.43 452.79 377.20 452.51 377.97 452.24 C 377.96 453.32 377.97 454.39 377.97 455.47 C 378.57 455.92 379.18 456.38 379.79 456.85 C 380.94 455.10 382.23 453.46 383.62 451.90 C 383.63 453.32 383.65 454.74 383.67 456.16 C 384.59 454.82 385.51 453.47 386.44 452.13 C 386.94 452.71 387.45 453.29 387.97 453.88 C 387.46 454.22 386.43 454.89 385.92 455.23 C 389.14 457.68 392.50 456.78 394.53 453.39 C 398.04 455.53 399.17 459.52 399.75 463.34 C 400.04 465.66 400.47 467.97 400.85 470.29 C 401.90 502.00 402.75 533.73 404.15 565.44 C 403.29 564.74 402.44 564.05 401.59 563.35 C 401.92 559.49 402.01 555.14 398.13 552.98 C 396.83 553.58 395.54 554.17 394.24 554.78 C 394.63 553.49 395.03 552.20 395.43 550.93 C 394.73 550.28 394.02 549.64 393.32 549.01 C 394.97 549.12 396.63 549.24 398.29 549.35 C 397.10 547.60 395.79 545.94 394.40 544.35 C 392.86 547.18 390.86 549.75 388.16 551.57 C 387.78 550.34 387.43 549.09 387.08 547.88 C 386.09 549.14 385.08 550.39 384.05 551.63 C 383.13 550.02 382.90 548.18 383.08 546.36 C 380.44 546.05 377.80 545.72 375.17 545.38 C 375.61 546.21 376.05 547.05 376.50 547.89 C 373.40 546.29 370.53 548.77 367.50 549.22 C 367.97 547.77 368.45 546.32 368.95 544.89 C 366.60 544.55 364.26 544.15 361.94 543.66 C 360.77 546.95 359.82 550.74 356.36 552.37 C 357.11 550.86 357.92 549.37 358.74 547.90 C 356.38 543.93 351.65 545.90 348.04 546.37 C 348.40 544.33 348.76 542.30 349.13 540.28 C 348.62 540.82 348.11 541.37 347.60 541.93 C 347.06 541.90 346.52 541.88 345.98 541.87 C 346.35 543.46 346.71 545.05 347.08 546.64 C 346.23 545.94 345.38 545.25 344.54 544.56 C 339.67 544.74 335.45 547.32 330.83 548.47 C 330.93 547.58 331.04 546.70 331.15 545.83 C 329.19 545.77 327.22 545.78 325.27 545.93 C 324.24 540.69 319.19 542.18 316.62 545.45 C 315.85 545.25 315.08 545.07 314.32 544.88 C 315.27 544.00 316.24 543.14 317.21 542.28 C 313.92 544.53 310.33 543.84 307.16 541.82 C 307.48 545.26 310.19 547.73 311.28 550.91 C 309.98 549.79 308.73 548.64 307.49 547.48 C 307.21 548.04 306.63 549.15 306.34 549.70 C 305.74 547.56 304.67 545.59 302.55 544.62 C 302.94 546.12 303.34 547.62 303.74 549.13 C 299.97 546.92 300.85 543.05 304.72 541.76 C 304.41 540.92 304.10 540.08 303.80 539.25 C 300.81 539.01 299.48 541.93 297.90 543.92 C 296.62 543.45 295.35 542.98 294.07 542.52 C 294.31 543.92 294.53 545.33 294.77 546.75 C 293.59 546.05 292.40 545.37 291.22 544.69 C 290.48 545.34 289.75 545.99 289.02 546.65 C 289.13 544.95 289.25 543.25 289.34 541.56 C 288.15 542.84 287.00 544.16 285.88 545.51 C 281.83 543.08 277.60 545.14 273.34 545.23 C 272.12 541.21 270.44 537.34 268.80 533.48 C 268.77 535.59 268.85 537.70 268.99 539.81 C 268.40 538.97 267.81 538.14 267.23 537.32 C 267.10 537.52 266.84 537.92 266.72 538.12 C 268.63 541.53 264.95 544.32 266.14 547.67 C 266.83 549.63 264.84 551.02 263.95 552.52 C 261.71 516.51 260.45 480.47 259.77 444.39 Z" />
</g>
<g id="#ed5534ff">
<path fill="#ed5534" opacity="1.00" d=" M 284.03 448.33 C 295.59 442.07 309.19 442.23 321.97 442.54 C 339.64 442.29 356.12 450.79 369.97 461.08 C 373.66 464.23 378.26 468.20 377.56 473.59 C 376.40 478.39 371.29 480.52 367.12 482.13 C 352.11 487.10 335.39 487.19 320.58 481.42 C 307.33 476.40 293.09 471.39 283.14 460.86 C 279.31 457.25 280.73 451.72 284.03 448.33 Z" />
</g>
<g id="#e8e7e7ff">
<path fill="#e8e7e7" opacity="1.00" d=" M 719.07 540.37 C 718.98 508.83 718.47 477.26 719.63 445.73 C 720.85 467.81 719.45 489.99 720.13 512.09 C 721.76 515.81 722.81 521.14 727.74 521.40 C 726.82 520.45 725.88 519.52 724.96 518.60 C 726.36 516.25 728.60 514.69 731.01 513.51 C 732.68 514.95 734.65 516.06 736.46 517.13 C 737.10 515.92 737.79 514.76 738.44 513.57 C 739.54 515.48 740.71 517.36 741.95 519.20 C 743.38 518.39 744.82 517.58 746.27 516.78 C 747.10 517.39 747.94 517.99 748.80 518.61 C 748.74 517.41 748.71 516.21 748.68 515.02 C 749.04 515.04 749.75 515.07 750.11 515.08 C 750.27 516.35 750.55 517.61 750.73 518.89 C 751.46 517.92 752.22 516.97 752.99 516.02 C 753.55 517.72 753.04 519.28 751.92 520.59 C 752.52 521.16 753.14 521.73 753.76 522.31 C 753.78 524.02 753.82 525.75 753.94 527.47 C 756.52 507.14 753.35 486.16 755.77 465.71 C 756.06 503.22 755.17 540.77 756.63 578.27 C 757.05 598.44 757.58 618.61 758.41 638.76 C 758.21 642.29 757.63 645.79 756.88 649.25 C 754.45 649.58 752.02 649.87 749.58 650.14 C 749.19 649.62 748.80 649.10 748.43 648.59 C 747.46 652.98 742.79 654.52 738.83 654.91 C 738.42 651.88 737.92 648.86 737.27 645.87 C 733.36 646.89 730.00 643.03 726.04 644.77 C 725.42 646.15 724.77 647.53 724.16 648.92 C 722.50 643.57 723.22 637.96 723.74 632.51 C 723.25 632.57 722.29 632.70 721.80 632.77 C 721.30 617.65 720.80 602.53 720.09 587.42 C 720.13 571.73 719.51 556.04 719.07 540.37 Z" />
</g>
<g id="#49a6d4ff">
<path fill="#49a6d4" opacity="1.00" d=" M 453.45 456.46 C 456.74 457.83 460.15 457.77 463.05 455.59 C 466.44 455.72 466.99 459.42 466.62 462.09 C 467.55 460.47 468.51 458.86 469.48 457.26 C 470.00 457.57 470.53 457.89 471.07 458.21 C 471.38 459.47 471.73 460.73 472.06 462.00 C 475.46 462.38 478.96 462.82 482.23 461.52 C 483.52 462.12 484.81 462.74 486.11 463.36 C 486.24 462.69 486.39 462.02 486.56 461.36 C 484.76 460.75 482.96 460.14 481.18 459.51 C 485.60 456.42 492.37 458.47 495.50 462.47 C 496.08 461.44 496.67 460.42 497.26 459.41 C 497.54 459.76 498.10 460.45 498.37 460.80 C 503.79 462.36 508.91 460.71 514.38 461.00 C 514.13 460.36 513.88 459.73 513.64 459.10 C 514.33 459.01 515.71 458.83 516.40 458.73 C 517.83 477.01 519.30 496.37 529.39 512.26 C 510.53 511.48 489.74 518.59 480.47 536.15 C 477.61 534.40 474.36 533.54 471.14 532.74 C 470.30 533.88 469.44 535.02 468.61 536.17 C 465.24 532.98 459.94 530.71 456.05 534.43 C 453.31 533.69 449.64 530.46 447.49 533.70 C 445.72 536.14 442.51 535.03 440.01 534.74 C 441.03 537.12 442.01 539.72 440.76 542.24 C 437.58 537.48 439.81 531.26 438.65 525.92 C 438.24 528.01 437.85 530.10 437.58 532.23 C 437.25 520.90 436.64 509.58 436.62 498.25 C 437.90 488.07 436.32 477.78 437.36 467.59 C 438.30 464.25 441.09 461.83 442.87 458.93 C 444.61 460.18 446.36 461.43 448.10 462.69 C 448.32 462.25 448.76 461.35 448.98 460.90 C 447.02 459.77 444.97 458.43 445.17 455.85 C 447.42 456.77 449.64 457.78 451.85 458.82 C 452.38 458.03 452.91 457.24 453.45 456.46 Z" />
</g>
<g id="#47a5d2ff">
<path fill="#47a5d2" opacity="1.00" d=" M 708.75 470.82 C 711.32 472.64 711.84 475.45 710.77 478.32 C 712.15 479.38 713.54 480.44 714.94 481.51 C 715.22 480.32 715.50 479.14 715.81 477.97 C 719.66 481.89 717.25 488.11 717.91 493.00 C 718.55 508.76 716.69 524.78 719.07 540.37 C 719.51 556.04 720.13 571.73 720.09 587.42 C 717.05 583.34 720.69 572.92 712.61 575.10 C 712.89 573.98 713.18 572.85 713.49 571.74 C 706.88 568.92 700.30 571.82 693.91 573.53 C 692.24 571.99 690.26 570.87 688.18 570.00 C 688.10 569.32 688.02 568.65 687.96 567.98 C 682.94 567.57 678.25 572.06 673.42 569.39 C 672.14 570.72 671.05 572.21 670.17 573.83 C 671.39 574.97 672.88 575.18 674.38 574.45 C 673.82 577.54 675.90 579.81 677.99 581.73 C 676.86 581.62 675.75 581.52 674.64 581.44 C 660.19 561.95 638.60 549.66 617.24 539.13 C 632.42 525.41 631.96 503.15 631.85 484.34 C 635.15 482.93 637.69 480.35 639.53 477.32 C 642.58 479.07 646.87 477.18 650.15 479.40 C 649.48 478.12 648.83 476.85 648.17 475.58 C 649.76 473.66 651.74 471.52 654.48 471.72 C 657.93 471.40 660.06 475.42 663.52 474.77 C 666.86 474.51 669.90 476.18 673.07 476.95 C 673.40 475.96 673.75 474.97 674.11 473.99 C 676.68 474.26 679.22 473.84 681.77 473.55 C 682.80 475.22 682.60 478.84 685.37 478.15 C 692.70 476.88 698.64 483.60 705.99 481.65 C 704.75 479.32 703.11 477.24 701.21 475.42 C 702.74 472.56 706.65 473.13 708.75 470.82 Z" />
</g>
<g id="#00071dff">
<path fill="#00071d" opacity="1.00" d=" M 539.59 477.10 C 558.59 487.08 578.89 495.10 600.28 497.97 C 597.39 507.92 589.08 517.63 578.03 517.82 C 557.15 517.32 538.19 498.39 539.59 477.10 Z" />
</g>
<g id="#f2a41eff">
<path fill="#f2a41e" opacity="1.00" d=" M 480.47 536.15 C 489.74 518.59 510.53 511.48 529.39 512.26 C 538.13 524.25 551.65 531.40 565.15 536.74 C 581.27 543.31 601.40 549.79 617.24 539.13 C 638.60 549.66 660.19 561.95 674.64 581.44 C 688.63 600.09 693.03 623.85 694.11 646.65 C 694.13 661.58 693.97 676.52 694.07 691.46 L 693.91 692.47 C 632.93 676.72 571.99 660.77 511.02 644.95 C 504.10 643.25 497.48 640.56 490.53 638.99 C 487.64 637.62 484.72 636.34 481.72 635.25 C 476.34 617.31 472.98 598.70 471.91 579.99 C 471.47 565.05 473.20 549.46 480.47 536.15 Z" />
</g>
<g id="#ffbc4fff">
<path fill="#ffbc4f" opacity="1.00" d=" M 906.43 552.92 C 907.50 541.18 905.70 529.28 907.73 517.63 C 908.75 544.39 907.60 571.21 908.11 598.00 C 909.27 645.94 910.65 693.88 913.42 741.75 C 910.97 740.37 908.74 738.63 907.05 736.37 C 907.16 738.30 907.72 740.50 906.46 742.20 C 905.92 740.74 905.39 739.28 904.90 737.82 C 901.04 740.50 901.65 749.37 895.48 747.07 C 894.45 745.10 893.41 743.14 892.39 741.18 C 894.75 739.45 895.83 736.73 896.92 734.14 C 892.05 736.59 887.00 738.68 881.86 740.51 C 882.09 741.81 882.16 743.14 882.38 744.46 C 879.65 741.99 877.47 739.03 875.19 736.17 C 875.20 737.97 875.25 739.79 875.29 741.60 C 871.61 739.06 867.89 741.93 869.03 746.24 C 871.57 745.11 874.08 743.26 877.02 743.96 C 875.97 746.85 873.39 747.74 870.53 747.47 C 870.45 749.76 870.01 752.02 869.35 754.22 C 864.90 751.67 860.38 749.08 857.03 745.11 C 857.09 746.45 856.64 748.08 856.45 749.77 C 855.35 749.27 854.25 748.78 853.16 748.30 C 853.73 746.87 854.30 745.45 854.88 744.04 C 853.68 745.18 852.51 746.32 851.34 747.49 C 850.68 745.43 849.90 743.44 848.84 741.57 C 847.55 742.11 846.30 742.67 845.03 743.23 C 843.66 746.97 839.93 748.58 836.70 750.34 C 833.35 732.52 823.75 714.44 806.88 706.20 C 803.61 704.40 798.47 703.40 796.57 707.57 C 789.58 720.53 795.21 735.96 802.25 747.64 C 801.75 748.67 801.28 749.71 800.79 750.76 C 797.54 750.01 795.09 747.78 793.23 745.11 C 792.98 746.47 792.66 747.80 792.49 749.20 C 791.67 749.34 790.86 749.49 790.07 749.68 C 792.06 751.11 794.16 752.55 795.38 754.76 C 792.32 753.55 789.44 751.11 785.96 751.94 C 785.31 750.69 784.67 749.47 784.05 748.23 C 778.38 748.66 779.66 754.76 778.92 758.76 C 778.20 757.72 777.51 756.69 776.82 755.67 C 775.31 755.89 773.80 756.12 772.31 756.35 C 773.01 757.09 773.71 757.84 774.43 758.61 C 773.95 759.09 773.48 759.57 773.03 760.07 C 770.19 758.94 767.34 758.78 766.33 762.18 C 766.78 762.50 767.67 763.15 768.11 763.48 C 767.20 765.33 766.29 767.19 765.51 769.11 C 762.60 725.70 760.25 682.24 758.41 638.76 C 757.58 618.61 757.05 598.44 756.63 578.27 C 757.73 572.55 756.18 566.09 759.67 561.04 C 759.35 559.71 758.86 558.43 758.40 557.16 C 760.10 557.51 761.81 557.84 763.53 558.14 C 766.15 554.99 770.44 554.99 774.14 554.18 C 772.31 553.74 770.47 553.32 768.65 552.88 C 770.55 551.59 772.72 550.83 774.99 550.54 C 774.79 552.79 775.41 554.97 777.61 556.01 C 778.50 555.20 779.42 554.41 780.33 553.62 C 782.99 558.43 788.59 560.39 792.20 564.37 C 788.21 565.50 783.13 566.23 780.93 570.16 C 779.19 576.15 784.16 581.10 787.98 584.99 C 798.89 595.00 811.78 602.84 825.43 608.51 C 839.91 613.39 855.39 615.28 870.64 614.59 C 875.43 614.14 881.27 613.69 884.35 609.45 C 886.35 603.84 881.63 598.73 878.08 594.92 C 865.67 583.36 849.99 576.22 834.74 569.22 C 824.96 564.64 814.06 563.38 803.39 563.07 C 804.48 561.42 805.71 559.87 807.05 558.42 C 806.84 557.37 806.63 556.33 806.43 555.30 C 810.67 554.57 816.22 554.17 817.53 559.41 C 819.95 558.72 822.37 557.99 824.79 557.30 C 823.33 555.88 822.11 554.25 821.48 552.31 C 822.14 552.86 822.81 553.42 823.49 553.98 C 829.19 552.36 835.58 552.65 840.13 556.89 C 842.75 559.77 846.39 557.21 847.04 554.09 C 847.79 555.83 848.68 557.51 849.70 559.13 C 850.32 557.99 850.97 556.88 851.61 555.76 C 851.00 555.30 849.79 554.38 849.18 553.92 C 852.57 552.19 854.02 556.57 856.59 558.01 C 858.17 555.56 858.38 552.71 857.38 550.00 C 858.71 551.46 860.08 552.89 861.47 554.31 C 864.01 552.35 866.81 552.47 868.14 555.66 C 868.74 554.88 869.37 554.11 870.00 553.35 C 871.58 554.35 873.31 555.13 875.17 555.47 C 875.06 554.59 874.95 553.71 874.86 552.84 C 875.76 552.78 876.68 552.72 877.61 552.68 C 879.45 554.46 881.32 556.24 883.30 557.90 C 883.14 555.82 882.36 553.88 881.42 552.05 C 881.95 551.69 882.49 551.33 883.04 550.98 C 884.16 553.29 884.82 555.78 885.35 558.30 C 886.50 557.97 887.65 557.65 888.82 557.34 C 887.73 555.82 886.65 554.31 885.57 552.80 C 886.83 553.00 888.10 553.24 889.37 553.46 C 889.17 552.46 888.98 551.46 888.80 550.47 C 891.01 552.18 893.09 554.05 894.98 556.12 C 895.42 555.84 896.30 555.29 896.74 555.02 C 896.09 554.17 895.44 553.34 894.81 552.51 C 895.62 551.39 896.41 550.26 897.21 549.13 C 897.83 549.79 898.46 550.47 899.10 551.15 C 898.26 553.54 898.56 555.82 900.80 557.30 C 903.59 555.24 899.50 552.64 902.04 550.34 C 903.49 551.20 904.96 552.06 906.43 552.92 Z" />
</g>
<g id="#43a1cfff">
<path fill="#43a1cf" opacity="1.00" d=" M 438.65 525.92 C 439.81 531.26 437.58 537.48 440.76 542.24 C 442.01 539.72 441.03 537.12 440.01 534.74 C 442.51 535.03 445.72 536.14 447.49 533.70 C 449.64 530.46 453.31 533.69 456.05 534.43 C 459.94 530.71 465.24 532.98 468.61 536.17 C 469.44 535.02 470.30 533.88 471.14 532.74 C 474.36 533.54 477.61 534.40 480.47 536.15 C 473.20 549.46 471.47 565.05 471.91 579.99 C 472.98 598.70 476.34 617.31 481.72 635.25 C 484.72 636.34 487.64 637.62 490.53 638.99 C 474.21 636.03 458.28 630.99 442.20 626.91 C 440.69 611.17 440.65 595.34 439.33 579.59 C 439.10 563.79 437.74 548.03 437.58 532.23 C 437.85 530.10 438.24 528.01 438.65 525.92 Z" />
</g>
<g id="#ffbe51ff">
<path fill="#ffbe51" opacity="1.00" d=" M 268.80 533.48 C 270.44 537.34 272.12 541.21 273.34 545.23 C 277.60 545.14 281.83 543.08 285.88 545.51 C 287.00 544.16 288.15 542.84 289.34 541.56 C 289.25 543.25 289.13 544.95 289.02 546.65 C 289.75 545.99 290.48 545.34 291.22 544.69 C 292.40 545.37 293.59 546.05 294.77 546.75 C 294.53 545.33 294.31 543.92 294.07 542.52 C 295.35 542.98 296.62 543.45 297.90 543.92 C 299.48 541.93 300.81 539.01 303.80 539.25 C 304.10 540.08 304.41 540.92 304.72 541.76 C 300.85 543.05 299.97 546.92 303.74 549.13 C 303.34 547.62 302.94 546.12 302.55 544.62 C 304.67 545.59 305.74 547.56 306.34 549.70 C 306.63 549.15 307.21 548.04 307.49 547.48 C 308.73 548.64 309.98 549.79 311.28 550.91 C 310.19 547.73 307.48 545.26 307.16 541.82 C 310.33 543.84 313.92 544.53 317.21 542.28 C 316.24 543.14 315.27 544.00 314.32 544.88 C 315.08 545.07 315.85 545.25 316.62 545.45 C 319.19 542.18 324.24 540.69 325.27 545.93 C 327.22 545.78 329.19 545.77 331.15 545.83 C 331.04 546.70 330.93 547.58 330.83 548.47 C 335.45 547.32 339.67 544.74 344.54 544.56 C 345.38 545.25 346.23 545.94 347.08 546.64 C 346.71 545.05 346.35 543.46 345.98 541.87 C 346.52 541.88 347.06 541.90 347.60 541.93 C 348.11 541.37 348.62 540.82 349.13 540.28 C 348.76 542.30 348.40 544.33 348.04 546.37 C 351.65 545.90 356.38 543.93 358.74 547.90 C 357.92 549.37 357.11 550.86 356.36 552.37 C 359.82 550.74 360.77 546.95 361.94 543.66 C 364.26 544.15 366.60 544.55 368.95 544.89 C 368.45 546.32 367.97 547.77 367.50 549.22 C 370.53 548.77 373.40 546.29 376.50 547.89 C 376.05 547.05 375.61 546.21 375.17 545.38 C 377.80 545.72 380.44 546.05 383.08 546.36 C 382.90 548.18 383.13 550.02 384.05 551.63 C 385.08 550.39 386.09 549.14 387.08 547.88 C 387.43 549.09 387.78 550.34 388.16 551.57 C 390.86 549.75 392.86 547.18 394.40 544.35 C 395.79 545.94 397.10 547.60 398.29 549.35 C 396.63 549.24 394.97 549.12 393.32 549.01 C 394.02 549.64 394.73 550.28 395.43 550.93 C 395.03 552.20 394.63 553.49 394.24 554.78 C 395.54 554.17 396.83 553.58 398.13 552.98 C 402.01 555.14 401.92 559.49 401.59 563.35 C 402.44 564.05 403.29 564.74 404.15 565.44 C 404.93 575.56 405.05 585.72 405.77 595.85 C 407.24 623.72 409.05 651.57 411.00 679.41 C 407.23 678.04 402.54 677.31 400.76 673.18 C 399.36 670.14 396.53 668.32 393.22 668.15 C 393.64 669.20 394.06 670.26 394.50 671.32 C 392.39 670.85 390.28 670.41 388.17 669.99 C 388.89 672.67 389.36 675.42 389.64 678.20 C 387.61 678.02 385.61 677.59 383.79 676.67 C 385.10 676.58 386.42 676.56 387.74 676.52 C 387.63 673.08 386.17 669.49 382.76 668.14 C 379.77 667.44 377.56 669.95 376.12 672.20 C 372.98 672.55 369.85 672.03 368.11 669.08 C 368.96 667.94 369.81 666.80 370.66 665.68 C 369.15 666.21 367.64 666.76 366.13 667.30 C 366.35 669.47 366.58 671.64 366.79 673.82 C 363.90 672.89 364.50 670.11 364.87 667.73 C 359.69 667.11 356.90 672.55 352.03 673.69 C 351.14 671.43 349.81 669.39 348.04 667.72 C 346.94 668.71 345.83 669.70 344.73 670.69 C 343.37 669.02 342.02 667.34 340.66 665.69 C 340.64 667.96 340.66 670.25 340.78 672.53 C 336.92 668.75 331.58 672.54 327.02 672.30 C 328.32 672.76 329.63 673.21 330.93 673.69 C 328.48 674.15 326.03 674.58 323.58 674.99 C 323.86 674.31 324.15 673.63 324.45 672.96 C 323.53 673.27 322.63 673.61 321.72 673.95 C 318.33 670.88 313.29 674.15 311.63 677.59 C 309.96 674.90 308.00 672.41 305.79 670.15 C 304.60 671.27 303.42 672.39 302.24 673.52 C 300.19 672.22 298.51 670.48 297.08 668.55 C 294.79 669.55 293.25 671.43 294.02 674.03 C 289.53 673.32 284.92 672.94 280.46 674.08 C 279.80 673.07 279.15 672.07 278.50 671.08 C 273.03 674.20 276.05 680.72 272.84 685.11 C 269.20 640.98 266.08 596.75 263.95 552.52 C 264.84 551.02 266.83 549.63 266.14 547.67 C 264.95 544.32 268.63 541.53 266.72 538.12 C 266.84 537.92 267.10 537.52 267.23 537.32 C 267.81 538.14 268.40 538.97 268.99 539.81 C 268.85 537.70 268.77 535.59 268.80 533.48 M 357.37 591.46 C 349.42 592.98 343.17 599.41 341.00 607.09 C 337.65 617.59 335.62 630.33 341.93 640.11 C 350.28 646.62 363.52 644.04 370.25 636.26 C 379.65 624.85 378.76 607.26 370.71 595.38 C 367.93 590.91 362.04 590.48 357.37 591.46 Z" />
</g>
<g id="#e9512fff">
<path fill="#e9512f" opacity="1.00" d=" M 792.20 564.37 C 795.91 563.82 799.65 563.41 803.39 563.07 C 814.06 563.38 824.96 564.64 834.74 569.22 C 849.99 576.22 865.67 583.36 878.08 594.92 C 881.63 598.73 886.35 603.84 884.35 609.45 C 881.27 613.69 875.43 614.14 870.64 614.59 C 855.39 615.28 839.91 613.39 825.43 608.51 C 811.78 602.84 798.89 595.00 787.98 584.99 C 784.16 581.10 779.19 576.15 780.93 570.16 C 783.13 566.23 788.21 565.50 792.20 564.37 Z" />
</g>
<g id="#419fcdff">
<path fill="#419fcd" opacity="1.00" d=" M 673.42 569.39 C 678.25 572.06 682.94 567.57 687.96 567.98 C 688.02 568.65 688.10 569.32 688.18 570.00 C 690.26 570.87 692.24 571.99 693.91 573.53 C 700.30 571.82 706.88 568.92 713.49 571.74 C 713.18 572.85 712.89 573.98 712.61 575.10 C 720.69 572.92 717.05 583.34 720.09 587.42 C 720.80 602.53 721.30 617.65 721.80 632.77 C 722.76 655.31 724.07 677.84 725.07 700.39 C 714.59 698.13 704.32 695.04 693.91 692.47 L 694.07 691.46 C 695.41 676.65 695.30 661.49 694.11 646.65 C 693.03 623.85 688.63 600.09 674.64 581.44 C 675.75 581.52 676.86 581.62 677.99 581.73 C 675.90 579.81 673.82 577.54 674.38 574.45 C 672.88 575.18 671.39 574.97 670.17 573.83 C 671.05 572.21 672.14 570.72 673.42 569.39 Z" />
</g>
<g id="#e3e3e3ff">
<path fill="#e3e3e3" opacity="1.00" d=" M 439.33 579.59 C 440.65 595.34 440.69 611.17 442.20 626.91 C 458.28 630.99 474.21 636.03 490.53 638.99 C 497.48 640.56 504.10 643.25 511.02 644.95 C 571.99 660.77 632.93 676.72 693.91 692.47 C 704.32 695.04 714.59 698.13 725.07 700.39 C 724.07 677.84 722.76 655.31 721.80 632.77 C 722.29 632.70 723.25 632.57 723.74 632.51 C 723.22 637.96 722.50 643.57 724.16 648.92 C 724.77 647.53 725.42 646.15 726.04 644.77 C 730.00 643.03 733.36 646.89 737.27 645.87 C 737.92 648.86 738.42 651.88 738.83 654.91 C 742.79 654.52 747.46 652.98 748.43 648.59 C 748.80 649.10 749.19 649.62 749.58 650.14 C 752.02 649.87 754.45 649.58 756.88 649.25 C 757.63 645.79 758.21 642.29 758.41 638.76 C 760.25 682.24 762.60 725.70 765.51 769.11 C 765.73 772.98 766.06 776.85 766.15 780.74 C 760.80 779.40 755.50 777.87 750.16 776.53 C 637.28 746.51 524.29 716.88 411.46 686.72 C 411.29 684.28 411.14 681.84 411.00 679.41 C 409.05 651.57 407.24 623.72 405.77 595.85 C 407.96 594.01 410.43 592.53 413.25 591.91 C 413.47 592.97 413.69 594.04 413.92 595.12 C 414.76 594.78 415.62 594.44 416.48 594.12 C 416.16 593.05 415.85 591.99 415.55 590.94 C 418.19 590.74 420.70 589.87 422.55 587.91 C 424.48 589.03 426.38 590.19 428.27 591.38 C 427.24 593.12 426.33 594.92 425.55 596.78 C 427.85 595.12 429.72 592.94 430.95 590.37 C 431.37 590.65 431.80 590.93 432.23 591.23 C 432.26 592.83 432.30 594.43 432.36 596.05 C 434.12 594.52 435.23 592.56 434.92 590.18 C 437.39 587.10 437.92 583.16 439.33 579.59 Z" />
</g>
<g id="#e7512fff">
<path fill="#e7512f" opacity="1.00" d=" M 357.37 591.46 C 362.04 590.48 367.93 590.91 370.71 595.38 C 378.76 607.26 379.65 624.85 370.25 636.26 C 363.52 644.04 350.28 646.62 341.93 640.11 C 335.62 630.33 337.65 617.59 341.00 607.09 C 343.17 599.41 349.42 592.98 357.37 591.46 Z" />
</g>
<g id="#5a9e88ff">
<path fill="#5a9e88" opacity="1.00" d=" M 694.11 646.65 C 695.30 661.49 695.41 676.65 694.07 691.46 C 693.97 676.52 694.13 661.58 694.11 646.65 Z" />
</g>
<g id="#ffba4fff">
<path fill="#ffba4f" opacity="1.00" d=" M 340.66 665.69 C 342.02 667.34 343.37 669.02 344.73 670.69 C 345.83 669.70 346.94 668.71 348.04 667.72 C 349.81 669.39 351.14 671.43 352.03 673.69 C 356.90 672.55 359.69 667.11 364.87 667.73 C 364.50 670.11 363.90 672.89 366.79 673.82 C 366.58 671.64 366.35 669.47 366.13 667.30 C 367.64 666.76 369.15 666.21 370.66 665.68 C 369.81 666.80 368.96 667.94 368.11 669.08 C 369.85 672.03 372.98 672.55 376.12 672.20 C 377.56 669.95 379.77 667.44 382.76 668.14 C 386.17 669.49 387.63 673.08 387.74 676.52 C 386.42 676.56 385.10 676.58 383.79 676.67 C 385.61 677.59 387.61 678.02 389.64 678.20 C 389.36 675.42 388.89 672.67 388.17 669.99 C 390.28 670.41 392.39 670.85 394.50 671.32 C 394.06 670.26 393.64 669.20 393.22 668.15 C 396.53 668.32 399.36 670.14 400.76 673.18 C 402.54 677.31 407.23 678.04 411.00 679.41 C 411.14 681.84 411.29 684.28 411.46 686.72 C 524.29 716.88 637.28 746.51 750.16 776.53 C 749.54 777.71 748.93 778.89 748.32 780.08 C 749.01 780.95 749.72 781.82 750.43 782.71 C 747.13 782.77 744.30 784.13 744.11 787.74 C 739.22 784.94 734.92 781.26 730.15 778.29 C 732.23 782.01 731.36 786.14 728.13 788.83 C 725.23 786.18 721.77 784.05 717.97 783.03 C 714.72 783.10 711.45 783.62 708.22 782.95 C 707.79 783.43 707.36 783.92 706.95 784.43 C 704.37 783.57 701.57 783.15 700.42 786.24 C 706.02 782.57 708.78 790.66 705.98 794.58 C 704.80 794.40 703.62 794.30 702.46 794.17 C 703.80 792.80 704.87 791.20 705.38 789.34 C 700.68 790.34 696.96 794.99 691.90 793.81 C 687.43 793.32 683.49 795.89 679.88 798.15 C 677.36 799.66 675.25 796.76 673.41 795.46 C 672.58 795.85 671.75 796.24 670.94 796.66 C 671.25 798.34 670.80 799.90 669.56 801.11 C 669.17 799.35 668.80 797.60 668.43 795.86 C 666.41 798.75 666.37 802.92 662.12 803.71 C 661.58 802.98 661.04 802.28 660.52 801.58 C 655.58 802.23 649.50 797.16 645.77 802.20 C 646.67 802.32 647.59 802.46 648.52 802.60 C 646.88 805.27 649.09 807.39 650.76 809.34 C 649.11 809.40 647.48 809.47 645.85 809.56 C 645.62 810.33 645.40 811.10 645.19 811.89 C 643.37 811.54 641.56 811.21 639.75 810.90 C 639.73 809.99 639.73 809.10 639.73 808.21 C 638.52 807.63 637.30 807.04 636.10 806.47 C 634.99 808.16 633.97 809.92 633.25 811.82 C 632.50 811.14 631.76 810.48 631.01 809.82 C 630.86 814.26 628.56 818.04 625.45 821.07 C 626.12 818.68 626.23 816.21 624.70 814.12 C 621.56 818.09 615.80 820.79 614.83 826.02 C 614.38 826.11 613.47 826.28 613.02 826.36 C 572.63 815.63 532.27 804.63 491.96 793.55 C 479.67 790.09 467.31 786.92 455.02 783.47 C 449.96 782.09 444.91 780.71 439.82 779.47 C 432.76 777.70 425.77 775.66 418.72 773.88 C 371.37 760.99 323.97 748.23 276.65 735.24 C 275.45 718.53 273.61 701.84 272.84 685.11 C 276.05 680.72 273.03 674.20 278.50 671.08 C 279.15 672.07 279.80 673.07 280.46 674.08 C 284.92 672.94 289.53 673.32 294.02 674.03 C 293.25 671.43 294.79 669.55 297.08 668.55 C 298.51 670.48 300.19 672.22 302.24 673.52 C 303.42 672.39 304.60 671.27 305.79 670.15 C 308.00 672.41 309.96 674.90 311.63 677.59 C 313.29 674.15 318.33 670.88 321.72 673.95 C 322.63 673.61 323.53 673.27 324.45 672.96 C 324.15 673.63 323.86 674.31 323.58 674.99 C 326.03 674.58 328.48 674.15 330.93 673.69 C 329.63 673.21 328.32 672.76 327.02 672.30 C 331.58 672.54 336.92 668.75 340.78 672.53 C 340.66 670.25 340.64 667.96 340.66 665.69 Z" />
</g>
<g id="#e34d2bff">
<path fill="#e34d2b" opacity="1.00" d=" M 796.57 707.57 C 798.47 703.40 803.61 704.40 806.88 706.20 C 823.75 714.44 833.35 732.52 836.70 750.34 C 837.17 756.65 840.02 764.11 835.65 769.66 C 832.09 770.88 828.27 769.49 824.98 768.07 C 815.65 763.63 807.83 756.29 802.25 747.64 C 795.21 735.96 789.58 720.53 796.57 707.57 Z" />
</g>
<g id="#ffb74dff">
<path fill="#ffb74d" opacity="1.00" d=" M 881.86 740.51 C 887.00 738.68 892.05 736.59 896.92 734.14 C 895.83 736.73 894.75 739.45 892.39 741.18 C 893.41 743.14 894.45 745.10 895.48 747.07 C 901.65 749.37 901.04 740.50 904.90 737.82 C 905.39 739.28 905.92 740.74 906.46 742.20 C 907.72 740.50 907.16 738.30 907.05 736.37 C 908.74 738.63 910.97 740.37 913.42 741.75 C 916.20 791.17 919.45 840.60 922.97 889.99 C 923.31 896.81 924.68 903.65 923.53 910.47 C 894.94 902.83 866.31 895.35 837.76 887.51 C 825.95 883.95 813.96 881.01 802.09 877.68 C 795.88 875.98 789.67 874.33 783.46 872.65 C 777.28 870.98 771.13 869.17 764.87 867.79 L 763.91 867.55 C 713.65 853.70 663.30 840.18 613.02 826.36 C 613.47 826.28 614.38 826.11 614.83 826.02 C 615.80 820.79 621.56 818.09 624.70 814.12 C 626.23 816.21 626.12 818.68 625.45 821.07 C 628.56 818.04 630.86 814.26 631.01 809.82 C 631.76 810.48 632.50 811.14 633.25 811.82 C 633.97 809.92 634.99 808.16 636.10 806.47 C 637.30 807.04 638.52 807.63 639.73 808.21 C 639.73 809.10 639.73 809.99 639.75 810.90 C 641.56 811.21 643.37 811.54 645.19 811.89 C 645.40 811.10 645.62 810.33 645.85 809.56 C 647.48 809.47 649.11 809.40 650.76 809.34 C 649.09 807.39 646.88 805.27 648.52 802.60 C 647.59 802.46 646.67 802.32 645.77 802.20 C 649.50 797.16 655.58 802.23 660.52 801.58 C 661.04 802.28 661.58 802.98 662.12 803.71 C 666.37 802.92 666.41 798.75 668.43 795.86 C 668.80 797.60 669.17 799.35 669.56 801.11 C 670.80 799.90 671.25 798.34 670.94 796.66 C 671.75 796.24 672.58 795.85 673.41 795.46 C 675.25 796.76 677.36 799.66 679.88 798.15 C 683.49 795.89 687.43 793.32 691.90 793.81 C 696.96 794.99 700.68 790.34 705.38 789.34 C 704.87 791.20 703.80 792.80 702.46 794.17 C 703.62 794.30 704.80 794.40 705.98 794.58 C 708.78 790.66 706.02 782.57 700.42 786.24 C 701.57 783.15 704.37 783.57 706.95 784.43 C 707.36 783.92 707.79 783.43 708.22 782.95 C 711.45 783.62 714.72 783.10 717.97 783.03 C 721.77 784.05 725.23 786.18 728.13 788.83 C 731.36 786.14 732.23 782.01 730.15 778.29 C 734.92 781.26 739.22 784.94 744.11 787.74 C 744.30 784.13 747.13 782.77 750.43 782.71 C 749.72 781.82 749.01 780.95 748.32 780.08 C 748.93 778.89 749.54 777.71 750.16 776.53 C 755.50 777.87 760.80 779.40 766.15 780.74 C 766.06 776.85 765.73 772.98 765.51 769.11 C 766.29 767.19 767.20 765.33 768.11 763.48 C 767.67 763.15 766.78 762.50 766.33 762.18 C 767.34 758.78 770.19 758.94 773.03 760.07 C 773.48 759.57 773.95 759.09 774.43 758.61 C 773.71 757.84 773.01 757.09 772.31 756.35 C 773.80 756.12 775.31 755.89 776.82 755.67 C 777.51 756.69 778.20 757.72 778.92 758.76 C 779.66 754.76 778.38 748.66 784.05 748.23 C 784.67 749.47 785.31 750.69 785.96 751.94 C 789.44 751.11 792.32 753.55 795.38 754.76 C 794.16 752.55 792.06 751.11 790.07 749.68 C 790.86 749.49 791.67 749.34 792.49 749.20 C 792.66 747.80 792.98 746.47 793.23 745.11 C 795.09 747.78 797.54 750.01 800.79 750.76 C 801.28 749.71 801.75 748.67 802.25 747.64 C 807.83 756.29 815.65 763.63 824.98 768.07 C 828.27 769.49 832.09 770.88 835.65 769.66 C 840.02 764.11 837.17 756.65 836.70 750.34 C 839.93 748.58 843.66 746.97 845.03 743.23 C 846.30 742.67 847.55 742.11 848.84 741.57 C 849.90 743.44 850.68 745.43 851.34 747.49 C 852.51 746.32 853.68 745.18 854.88 744.04 C 854.30 745.45 853.73 746.87 853.16 748.30 C 854.25 748.78 855.35 749.27 856.45 749.77 C 856.64 748.08 857.09 746.45 857.03 745.11 C 860.38 749.08 864.90 751.67 869.35 754.22 C 870.01 752.02 870.45 749.76 870.53 747.47 C 873.39 747.74 875.97 746.85 877.02 743.96 C 874.08 743.26 871.57 745.11 869.03 746.24 C 867.89 741.93 871.61 739.06 875.29 741.60 C 875.25 739.79 875.20 737.97 875.19 736.17 C 877.47 739.03 879.65 741.99 882.38 744.46 C 882.16 743.14 882.09 741.81 881.86 740.51 Z" />
</g>
<g id="#384b5bff">
<path fill="#384b5b" opacity="1.00" d=" M 418.72 773.88 C 425.77 775.66 432.76 777.70 439.82 779.47 C 435.59 790.92 440.57 803.71 436.43 814.97 C 437.89 823.02 436.87 831.19 436.89 839.32 C 434.94 849.45 437.67 859.63 436.42 869.79 C 435.59 878.65 436.07 887.59 435.63 896.52 C 434.33 896.99 433.04 897.47 431.75 897.98 C 426.56 896.11 419.66 893.45 419.17 887.06 C 418.72 849.34 419.63 811.59 418.72 773.88 Z" />
</g>
<g id="#2e3f4eff">
<path fill="#2e3f4e" opacity="1.00" d=" M 436.43 814.97 C 440.57 803.71 435.59 790.92 439.82 779.47 C 444.91 780.71 449.96 782.09 455.02 783.47 C 455.84 789.86 455.62 796.36 454.72 802.72 C 455.15 808.13 456.32 813.61 454.99 819.01 C 453.95 828.75 456.03 838.63 454.56 848.36 C 453.94 856.27 453.99 864.18 454.75 872.07 C 454.60 875.94 453.04 879.74 453.94 883.63 C 455.01 888.58 451.94 893.84 454.38 898.55 C 457.77 899.62 461.37 899.66 464.85 900.29 L 465.70 900.39 C 454.41 901.57 442.67 901.32 431.75 897.98 C 433.04 897.47 434.33 896.99 435.63 896.52 C 436.07 887.59 435.59 878.65 436.42 869.79 C 437.67 859.63 434.94 849.45 436.89 839.32 C 436.87 831.19 437.89 823.02 436.43 814.97 Z" />
</g>
<g id="#22303eff">
<path fill="#22303e" opacity="1.00" d=" M 454.72 802.72 C 455.62 796.36 455.84 789.86 455.02 783.47 C 467.31 786.92 479.67 790.09 491.96 793.55 C 491.56 793.69 490.75 793.98 490.35 794.12 C 489.94 825.42 490.75 856.78 489.95 888.05 C 486.26 897.65 473.81 899.10 464.85 900.29 C 461.37 899.66 457.77 899.62 454.38 898.55 C 451.94 893.84 455.01 888.58 453.94 883.63 C 453.04 879.74 454.60 875.94 454.75 872.07 C 453.99 864.18 453.94 856.27 454.56 848.36 C 456.03 838.63 453.95 828.75 454.99 819.01 C 456.32 813.61 455.15 808.13 454.72 802.72 Z" />
</g>
<g id="#4e505271">
<path fill="#4e5052" opacity="0.44" d=" M 763.91 867.55 L 764.87 867.79 C 764.92 906.99 765.00 946.19 764.83 985.38 C 763.45 982.09 764.05 978.45 763.95 975.00 C 763.94 939.18 764.00 903.37 763.91 867.55 Z" />
</g>
<g id="#374b5aff">
<path fill="#374b5a" opacity="1.00" d=" M 764.87 867.79 C 771.13 869.17 777.28 870.98 783.46 872.65 C 784.14 891.23 782.63 909.81 782.79 928.38 C 782.54 928.74 782.30 929.12 782.07 929.51 C 783.60 940.72 781.53 952.29 782.66 963.61 C 781.04 972.63 781.69 981.87 781.81 990.96 C 780.61 992.27 779.40 993.58 778.19 994.89 C 773.10 992.92 767.31 990.64 764.83 985.38 C 765.00 946.19 764.92 906.99 764.87 867.79 Z" />
</g>
<g id="#2c3e4cff">
<path fill="#2c3e4c" opacity="1.00" d=" M 783.46 872.65 C 789.67 874.33 795.88 875.98 802.09 877.68 C 800.78 878.23 799.49 878.80 798.21 879.38 C 797.48 909.78 797.98 940.24 797.24 970.65 C 798.24 979.76 796.21 989.03 798.39 998.03 C 791.57 997.79 784.72 996.93 778.19 994.89 C 779.40 993.58 780.61 992.27 781.81 990.96 C 781.69 981.87 781.04 972.63 782.66 963.61 C 781.53 952.29 783.60 940.72 782.07 929.51 C 782.30 929.12 782.54 928.74 782.79 928.38 C 782.63 909.81 784.14 891.23 783.46 872.65 Z" />
</g>
<g id="#212f3cff">
<path fill="#212f3c" opacity="1.00" d=" M 798.21 879.38 C 799.49 878.80 800.78 878.23 802.09 877.68 C 813.96 881.01 825.95 883.95 837.76 887.51 C 836.84 919.30 837.77 951.16 837.30 982.97 C 837.55 987.35 834.01 990.49 830.57 992.51 C 820.68 997.55 809.31 998.42 798.39 998.03 C 796.21 989.03 798.24 979.76 797.24 970.65 C 797.98 940.24 797.48 909.78 798.21 879.38 Z" />
</g>
</svg>
